{
  "header": {
    "PPQ": 384,
    "timeSignature": [
      2,
      4
    ],
    "bpm": 200,
    "name": ""
  },
  "tempo": [
    {
      "absoluteTime": 0,
      "seconds": 0,
      "bpm": 200
    }
  ],
  "timeSignature": [
    {
      "absoluteTime": 0,
      "seconds": 0,
      "numerator": 2,
      "denominator": 2,
      "click": 24,
      "notesQ": 8
    }
  ],
  "startTime": 3.5585937499999996,
  "duration": 136.32187500000072,
  "tracks": [
    {
      "startTime": 3.5585937499999996,
      "duration": 136.32187500000072,
      "length": 1228,
      "notes": [
        {
          "name": "A4",
          "midi": 69,
          "time": 3.5585937499999996,
          "velocity": 0.31496062992125984,
          "duration": 0.9171875000000003
        },
        {
          "name": "B4",
          "midi": 71,
          "time": 3.5859374999999996,
          "velocity": 0.30708661417322836,
          "duration": 0.9171875000000003
        },
        {
          "name": "A3",
          "midi": 57,
          "time": 3.5914062499999995,
          "velocity": 0.28346456692913385,
          "duration": 0.9171875000000007
        },
        {
          "name": "F3",
          "midi": 53,
          "time": 3.5992187499999995,
          "velocity": 0.33070866141732286,
          "duration": 0.9171875000000007
        },
        {
          "name": "E4",
          "midi": 64,
          "time": 3.6070312499999995,
          "velocity": 0.44881889763779526,
          "duration": 0.9171875000000007
        },
        {
          "name": "E5",
          "midi": 76,
          "time": 3.6078124999999996,
          "velocity": 0.41732283464566927,
          "duration": 0.9171875000000007
        },
        {
          "name": "A4",
          "midi": 69,
          "time": 4.4984375,
          "velocity": 0.3858267716535433,
          "duration": 0.45078125000000124
        },
        {
          "name": "D5",
          "midi": 74,
          "time": 4.7953125000000005,
          "velocity": 0.36220472440944884,
          "duration": 0.4500000000000002
        },
        {
          "name": "C5",
          "midi": 72,
          "time": 5.2515625,
          "velocity": 0.33858267716535434,
          "duration": 0.4500000000000002
        },
        {
          "name": "D4",
          "midi": 62,
          "time": 5.38828125,
          "velocity": 0.3779527559055118,
          "duration": 0.4500000000000002
        },
        {
          "name": "F3",
          "midi": 53,
          "time": 5.401562500000001,
          "velocity": 0.3228346456692913,
          "duration": 0.4500000000000002
        },
        {
          "name": "G#3",
          "midi": 56,
          "time": 5.403125000000001,
          "velocity": 0.33070866141732286,
          "duration": 0.4500000000000002
        },
        {
          "name": "C5",
          "midi": 72,
          "time": 5.406250000000001,
          "velocity": 0.5511811023622047,
          "duration": 0.4500000000000002
        },
        {
          "name": "B4",
          "midi": 71,
          "time": 5.698437500000001,
          "velocity": 0.3700787401574803,
          "duration": 0.4500000000000002
        },
        {
          "name": "B4",
          "midi": 71,
          "time": 6.289843750000001,
          "velocity": 0.48031496062992124,
          "duration": 0.4500000000000002
        },
        {
          "name": "C5",
          "midi": 72,
          "time": 6.458593750000001,
          "velocity": 0.4330708661417323,
          "duration": 0.45078125000000036
        },
        {
          "name": "D5",
          "midi": 74,
          "time": 6.600781250000002,
          "velocity": 0.5039370078740157,
          "duration": 0.45078125000000036
        },
        {
          "name": "C5",
          "midi": 72,
          "time": 6.740625000000001,
          "velocity": 0.31496062992125984,
          "duration": 0.4500000000000002
        },
        {
          "name": "B4",
          "midi": 71,
          "time": 6.905468750000002,
          "velocity": 0.36220472440944884,
          "duration": 0.4500000000000002
        },
        {
          "name": "C5",
          "midi": 72,
          "time": 7.042187500000002,
          "velocity": 0.2992125984251969,
          "duration": 0.44921875
        },
        {
          "name": "G3",
          "midi": 55,
          "time": 7.194531250000002,
          "velocity": 0.3543307086614173,
          "duration": 0.4500000000000002
        },
        {
          "name": "D4",
          "midi": 62,
          "time": 7.196093750000002,
          "velocity": 0.28346456692913385,
          "duration": 0.4500000000000002
        },
        {
          "name": "E3",
          "midi": 52,
          "time": 7.199218750000002,
          "velocity": 0.3464566929133858,
          "duration": 0.4500000000000002
        },
        {
          "name": "G5",
          "midi": 79,
          "time": 7.200781250000002,
          "velocity": 0.5511811023622047,
          "duration": 0.4500000000000002
        },
        {
          "name": "B4",
          "midi": 71,
          "time": 7.340625000000002,
          "velocity": 0.4251968503937008,
          "duration": 0.4500000000000002
        },
        {
          "name": "C5",
          "midi": 72,
          "time": 7.489062500000002,
          "velocity": 0.47244094488188976,
          "duration": 0.45078125000000036
        },
        {
          "name": "F5",
          "midi": 77,
          "time": 7.648437500000002,
          "velocity": 0.4094488188976378,
          "duration": 0.45078125000000036
        },
        {
          "name": "B4",
          "midi": 71,
          "time": 7.7960937500000025,
          "velocity": 0.29133858267716534,
          "duration": 0.4499999999999993
        },
        {
          "name": "C5",
          "midi": 72,
          "time": 7.946875000000002,
          "velocity": 0.30708661417322836,
          "duration": 0.4499999999999993
        },
        {
          "name": "E5",
          "midi": 76,
          "time": 8.094531250000003,
          "velocity": 0.4881889763779528,
          "duration": 0.4499999999999993
        },
        {
          "name": "B4",
          "midi": 71,
          "time": 8.238281250000002,
          "velocity": 0.44881889763779526,
          "duration": 0.4499999999999993
        },
        {
          "name": "G4",
          "midi": 67,
          "time": 8.398437500000002,
          "velocity": 0.33070866141732286,
          "duration": 0.44921875
        },
        {
          "name": "E4",
          "midi": 64,
          "time": 8.550781250000002,
          "velocity": 0.4251968503937008,
          "duration": 0.44921875
        },
        {
          "name": "D#4",
          "midi": 63,
          "time": 8.70234375,
          "velocity": 0.4251968503937008,
          "duration": 0.45000000000000107
        },
        {
          "name": "E4",
          "midi": 64,
          "time": 8.844531250000001,
          "velocity": 0.4330708661417323,
          "duration": 0.45000000000000107
        },
        {
          "name": "C4",
          "midi": 60,
          "time": 8.988281250000002,
          "velocity": 0.3464566929133858,
          "duration": 0.45000000000000107
        },
        {
          "name": "B4",
          "midi": 71,
          "time": 8.996093750000002,
          "velocity": 0.3464566929133858,
          "duration": 0.45000000000000107
        },
        {
          "name": "E4",
          "midi": 64,
          "time": 9.000000000000002,
          "velocity": 0.41732283464566927,
          "duration": 0.45000000000000107
        },
        {
          "name": "A3",
          "midi": 57,
          "time": 9.002343750000001,
          "velocity": 0.4015748031496063,
          "duration": 0.45000000000000107
        },
        {
          "name": "A4",
          "midi": 69,
          "time": 9.595312500000002,
          "velocity": 0.29133858267716534,
          "duration": 0.44921875
        },
        {
          "name": "E3",
          "midi": 52,
          "time": 9.895312500000003,
          "velocity": 0.30708661417322836,
          "duration": 0.44921875
        },
        {
          "name": "C4",
          "midi": 60,
          "time": 9.897656250000002,
          "velocity": 0.4251968503937008,
          "duration": 0.44921875
        },
        {
          "name": "A3",
          "midi": 57,
          "time": 9.900000000000002,
          "velocity": 0.2677165354330709,
          "duration": 0.44921875
        },
        {
          "name": "A4",
          "midi": 69,
          "time": 9.907031250000003,
          "velocity": 0.4094488188976378,
          "duration": 0.44921875
        },
        {
          "name": "E4",
          "midi": 64,
          "time": 10.036718750000002,
          "velocity": 0.2677165354330709,
          "duration": 0.44921875
        },
        {
          "name": "B4",
          "midi": 71,
          "time": 10.188281250000003,
          "velocity": 0.4330708661417323,
          "duration": 0.4492187499999982
        },
        {
          "name": "E4",
          "midi": 64,
          "time": 10.339062500000002,
          "velocity": 0.3700787401574803,
          "duration": 0.4499999999999975
        },
        {
          "name": "C5",
          "midi": 72,
          "time": 10.486718750000001,
          "velocity": 0.4645669291338583,
          "duration": 0.4499999999999993
        },
        {
          "name": "D5",
          "midi": 74,
          "time": 10.63984375,
          "velocity": 0.5354330708661418,
          "duration": 0.44921875
        },
        {
          "name": "E4",
          "midi": 64,
          "time": 10.78671875,
          "velocity": 0.4015748031496063,
          "duration": 0.4484375000000007
        },
        {
          "name": "F3",
          "midi": 53,
          "time": 10.790625,
          "velocity": 0.2992125984251969,
          "duration": 0.4484375000000007
        },
        {
          "name": "A3",
          "midi": 57,
          "time": 10.80234375,
          "velocity": 0.3700787401574803,
          "duration": 0.4476562500000014
        },
        {
          "name": "E5",
          "midi": 76,
          "time": 10.80234375,
          "velocity": 0.5275590551181102,
          "duration": 0.4476562500000014
        },
        {
          "name": "A5",
          "midi": 81,
          "time": 10.94921875,
          "velocity": 0.3543307086614173,
          "duration": 0.4484375000000025
        },
        {
          "name": "B5",
          "midi": 83,
          "time": 11.096875,
          "velocity": 0.33070866141732286,
          "duration": 0.44921875
        },
        {
          "name": "C6",
          "midi": 84,
          "time": 11.244531250000001,
          "velocity": 0.3937007874015748,
          "duration": 0.4499999999999993
        },
        {
          "name": "B5",
          "midi": 83,
          "time": 11.398437500000002,
          "velocity": 0.4566929133858268,
          "duration": 0.45078125000000036
        },
        {
          "name": "A5",
          "midi": 81,
          "time": 11.539843750000001,
          "velocity": 0.3858267716535433,
          "duration": 0.45078125000000036
        },
        {
          "name": "F#3",
          "midi": 54,
          "time": 11.684375000000001,
          "velocity": 0.33070866141732286,
          "duration": 0.45078125000000036
        },
        {
          "name": "E4",
          "midi": 64,
          "time": 11.6890625,
          "velocity": 0.41732283464566927,
          "duration": 0.45078125000000036
        },
        {
          "name": "A3",
          "midi": 57,
          "time": 11.697656250000001,
          "velocity": 0.36220472440944884,
          "duration": 0.4507812499999986
        },
        {
          "name": "E5",
          "midi": 76,
          "time": 11.699218750000002,
          "velocity": 0.48031496062992124,
          "duration": 0.4507812499999986
        },
        {
          "name": "D5",
          "midi": 74,
          "time": 12.1484375,
          "velocity": 0.4566929133858268,
          "duration": 0.45000000000000284
        },
        {
          "name": "C#5",
          "midi": 73,
          "time": 12.297656250000001,
          "velocity": 0.3464566929133858,
          "duration": 0.4499999999999993
        },
        {
          "name": "D5",
          "midi": 74,
          "time": 12.442187500000001,
          "velocity": 0.3228346456692913,
          "duration": 0.4499999999999993
        },
        {
          "name": "G5",
          "midi": 79,
          "time": 12.584375000000001,
          "velocity": 0.4881889763779528,
          "duration": 0.4499999999999993
        },
        {
          "name": "E4",
          "midi": 64,
          "time": 12.595312500000002,
          "velocity": 0.33858267716535434,
          "duration": 0.4499999999999975
        },
        {
          "name": "G3",
          "midi": 55,
          "time": 12.600781250000002,
          "velocity": 0.2440944881889764,
          "duration": 0.44999999999999574
        },
        {
          "name": "A#3",
          "midi": 58,
          "time": 12.605468750000002,
          "velocity": 0.4015748031496063,
          "duration": 0.44999999999999574
        },
        {
          "name": "A#4",
          "midi": 70,
          "time": 12.742968750000001,
          "velocity": 0.4094488188976378,
          "duration": 0.44999999999999574
        },
        {
          "name": "C#5",
          "midi": 73,
          "time": 12.88671875,
          "velocity": 0.31496062992125984,
          "duration": 0.4499999999999975
        },
        {
          "name": "B3",
          "midi": 59,
          "time": 13.04296875,
          "velocity": 0.33858267716535434,
          "duration": 0.44999999999999574
        },
        {
          "name": "F#3",
          "midi": 54,
          "time": 13.04296875,
          "velocity": 0.3937007874015748,
          "duration": 0.44999999999999574
        },
        {
          "name": "D4",
          "midi": 62,
          "time": 13.046093749999999,
          "velocity": 0.29133858267716534,
          "duration": 0.4499999999999975
        },
        {
          "name": "F#5",
          "midi": 78,
          "time": 13.059374999999998,
          "velocity": 0.4251968503937008,
          "duration": 0.4499999999999993
        },
        {
          "name": "A#4",
          "midi": 70,
          "time": 13.194531249999997,
          "velocity": 0.33070866141732286,
          "duration": 0.44921875
        },
        {
          "name": "B4",
          "midi": 71,
          "time": 13.350781249999997,
          "velocity": 0.3937007874015748,
          "duration": 0.44921875
        },
        {
          "name": "F3",
          "midi": 53,
          "time": 13.489843749999997,
          "velocity": 0.28346456692913385,
          "duration": 0.44921875
        },
        {
          "name": "B3",
          "midi": 59,
          "time": 13.492187499999996,
          "velocity": 0.41732283464566927,
          "duration": 0.44921875
        },
        {
          "name": "G#3",
          "midi": 56,
          "time": 13.492968749999996,
          "velocity": 0.3858267716535433,
          "duration": 0.44921875
        },
        {
          "name": "E5",
          "midi": 76,
          "time": 13.498437499999996,
          "velocity": 0.5118110236220472,
          "duration": 0.44843749999999893
        },
        {
          "name": "G#4",
          "midi": 68,
          "time": 13.642187499999997,
          "velocity": 0.36220472440944884,
          "duration": 0.44843749999999893
        },
        {
          "name": "B4",
          "midi": 71,
          "time": 13.800781249999996,
          "velocity": 0.3543307086614173,
          "duration": 0.44843749999999893
        },
        {
          "name": "D5",
          "midi": 74,
          "time": 13.944531249999995,
          "velocity": 0.4881889763779528,
          "duration": 0.44921875
        },
        {
          "name": "G#4",
          "midi": 68,
          "time": 14.096874999999995,
          "velocity": 0.4330708661417323,
          "duration": 0.4499999999999993
        },
        {
          "name": "D5",
          "midi": 74,
          "time": 14.245312499999995,
          "velocity": 0.4645669291338583,
          "duration": 0.4499999999999993
        },
        {
          "name": "F#3",
          "midi": 54,
          "time": 14.400781249999996,
          "velocity": 0.3937007874015748,
          "duration": 0.4492187499999982
        },
        {
          "name": "F#4",
          "midi": 66,
          "time": 14.403124999999996,
          "velocity": 0.48031496062992124,
          "duration": 0.4492187499999982
        },
        {
          "name": "A#3",
          "midi": 58,
          "time": 14.403124999999996,
          "velocity": 0.4094488188976378,
          "duration": 0.4492187499999982
        },
        {
          "name": "C#4",
          "midi": 61,
          "time": 14.405468749999995,
          "velocity": 0.5354330708661418,
          "duration": 0.4492187499999982
        },
        {
          "name": "C#5",
          "midi": 73,
          "time": 14.538281249999995,
          "velocity": 0.4645669291338583,
          "duration": 0.4492187499999982
        },
        {
          "name": "C#5",
          "midi": 73,
          "time": 14.681249999999995,
          "velocity": 0.3543307086614173,
          "duration": 0.44843749999999893
        },
        {
          "name": "C#6",
          "midi": 85,
          "time": 14.844531249999994,
          "velocity": 0.36220472440944884,
          "duration": 0.4492187499999982
        },
        {
          "name": "C#6",
          "midi": 85,
          "time": 15.003124999999994,
          "velocity": 0.4881889763779528,
          "duration": 0.4499999999999975
        },
        {
          "name": "F#6",
          "midi": 90,
          "time": 15.134374999999993,
          "velocity": 0.4409448818897638,
          "duration": 0.4499999999999975
        },
        {
          "name": "C#6",
          "midi": 85,
          "time": 15.281249999999993,
          "velocity": 0.5433070866141733,
          "duration": 0.4499999999999975
        },
        {
          "name": "F#2",
          "midi": 42,
          "time": 15.284374999999994,
          "velocity": 0.2755905511811024,
          "duration": 0.4499999999999975
        },
        {
          "name": "C#3",
          "midi": 49,
          "time": 15.292968749999993,
          "velocity": 0.36220472440944884,
          "duration": 0.4499999999999975
        },
        {
          "name": "F#3",
          "midi": 54,
          "time": 15.302343749999991,
          "velocity": 0.5196850393700787,
          "duration": 0.4499999999999993
        },
        {
          "name": "B4",
          "midi": 71,
          "time": 15.74453124999999,
          "velocity": 0.4330708661417323,
          "duration": 0.45000000000000284
        },
        {
          "name": "A#4",
          "midi": 70,
          "time": 15.898437499999991,
          "velocity": 0.33858267716535434,
          "duration": 0.44921875000000533
        },
        {
          "name": "B4",
          "midi": 71,
          "time": 16.035937499999992,
          "velocity": 0.3937007874015748,
          "duration": 0.44921875000000355
        },
        {
          "name": "B4",
          "midi": 71,
          "time": 16.194531249999994,
          "velocity": 0.5275590551181102,
          "duration": 0.44921875000000355
        },
        {
          "name": "B2",
          "midi": 47,
          "time": 16.194531249999994,
          "velocity": 0.5118110236220472,
          "duration": 0.44921875000000355
        },
        {
          "name": "F#3",
          "midi": 54,
          "time": 16.333593749999995,
          "velocity": 0.3858267716535433,
          "duration": 0.44921875000000355
        },
        {
          "name": "B3",
          "midi": 59,
          "time": 16.486718749999994,
          "velocity": 0.3700787401574803,
          "duration": 0.4492187500000071
        },
        {
          "name": "C#4",
          "midi": 61,
          "time": 16.641406249999996,
          "velocity": 0.41732283464566927,
          "duration": 0.4492187500000071
        },
        {
          "name": "D4",
          "midi": 62,
          "time": 16.79296875,
          "velocity": 0.3228346456692913,
          "duration": 0.45000000000000284
        },
        {
          "name": "D5",
          "midi": 74,
          "time": 16.79296875,
          "velocity": 0.4645669291338583,
          "duration": 0.45000000000000284
        },
        {
          "name": "C#4",
          "midi": 61,
          "time": 16.94140625,
          "velocity": 0.41732283464566927,
          "duration": 0.45000000000000284
        },
        {
          "name": "C#5",
          "midi": 73,
          "time": 16.94453125,
          "velocity": 0.41732283464566927,
          "duration": 0.45000000000000284
        },
        {
          "name": "B2",
          "midi": 47,
          "time": 17.087500000000002,
          "velocity": 0.4094488188976378,
          "duration": 0.45000000000000284
        },
        {
          "name": "B4",
          "midi": 71,
          "time": 17.099218750000002,
          "velocity": 0.3779527559055118,
          "duration": 0.44921875
        },
        {
          "name": "F#3",
          "midi": 54,
          "time": 17.2328125,
          "velocity": 0.4251968503937008,
          "duration": 0.44921875
        },
        {
          "name": "B3",
          "midi": 59,
          "time": 17.389843750000004,
          "velocity": 0.3779527559055118,
          "duration": 0.44921875
        },
        {
          "name": "C#4",
          "midi": 61,
          "time": 17.542968750000004,
          "velocity": 0.3779527559055118,
          "duration": 0.44921875000000355
        },
        {
          "name": "D4",
          "midi": 62,
          "time": 17.692187500000003,
          "velocity": 0.31496062992125984,
          "duration": 0.4500000000000064
        },
        {
          "name": "E5",
          "midi": 76,
          "time": 17.695312500000004,
          "velocity": 0.3937007874015748,
          "duration": 0.4500000000000064
        },
        {
          "name": "E4",
          "midi": 64,
          "time": 17.850781250000004,
          "velocity": 0.31496062992125984,
          "duration": 0.4500000000000064
        },
        {
          "name": "B4",
          "midi": 71,
          "time": 17.985937500000006,
          "velocity": 0.4094488188976378,
          "duration": 0.45000000000000284
        },
        {
          "name": "D#2",
          "midi": 39,
          "time": 17.995312500000008,
          "velocity": 0.4015748031496063,
          "duration": 0.45078125000000213
        },
        {
          "name": "F#5",
          "midi": 78,
          "time": 18.000000000000007,
          "velocity": 0.5905511811023622,
          "duration": 0.45078125000000213
        },
        {
          "name": "B2",
          "midi": 47,
          "time": 18.132031250000008,
          "velocity": 0.30708661417322836,
          "duration": 0.45078125000000213
        },
        {
          "name": "F#3",
          "midi": 54,
          "time": 18.27890625000001,
          "velocity": 0.3543307086614173,
          "duration": 0.4499999999999993
        },
        {
          "name": "B5",
          "midi": 83,
          "time": 18.43125000000001,
          "velocity": 0.4566929133858268,
          "duration": 0.4507812499999986
        },
        {
          "name": "F#5",
          "midi": 78,
          "time": 18.43125000000001,
          "velocity": 0.3937007874015748,
          "duration": 0.4507812499999986
        },
        {
          "name": "B3",
          "midi": 59,
          "time": 18.43203125000001,
          "velocity": 0.4094488188976378,
          "duration": 0.4507812499999986
        },
        {
          "name": "F#4",
          "midi": 66,
          "time": 18.57890625000001,
          "velocity": 0.29133858267716534,
          "duration": 0.44999999999999574
        },
        {
          "name": "B3",
          "midi": 59,
          "time": 18.74375000000001,
          "velocity": 0.3228346456692913,
          "duration": 0.44999999999999574
        },
        {
          "name": "B3",
          "midi": 59,
          "time": 18.889843750000008,
          "velocity": 0.4330708661417323,
          "duration": 0.44999999999999574
        },
        {
          "name": "F#3",
          "midi": 54,
          "time": 18.89609375000001,
          "velocity": 0.29133858267716534,
          "duration": 0.44999999999999574
        },
        {
          "name": "B4",
          "midi": 71,
          "time": 18.897656250000008,
          "velocity": 0.3228346456692913,
          "duration": 0.44999999999999574
        },
        {
          "name": "F#5",
          "midi": 78,
          "time": 18.899218750000006,
          "velocity": 0.48031496062992124,
          "duration": 0.44999999999999574
        },
        {
          "name": "F#5",
          "midi": 78,
          "time": 19.4828125,
          "velocity": 0.4409448818897638,
          "duration": 0.44921875
        },
        {
          "name": "G5",
          "midi": 79,
          "time": 19.634375000000002,
          "velocity": 0.4566929133858268,
          "duration": 0.44921875
        },
        {
          "name": "E5",
          "midi": 76,
          "time": 19.796875000000004,
          "velocity": 0.4645669291338583,
          "duration": 0.44921874999999645
        },
        {
          "name": "E3",
          "midi": 52,
          "time": 19.797656250000003,
          "velocity": 0.3700787401574803,
          "duration": 0.44921874999999645
        },
        {
          "name": "B4",
          "midi": 71,
          "time": 19.801562500000003,
          "velocity": 0.2992125984251969,
          "duration": 0.44921874999999645
        },
        {
          "name": "B3",
          "midi": 59,
          "time": 19.94453125,
          "velocity": 0.3543307086614173,
          "duration": 0.44921875
        },
        {
          "name": "E4",
          "midi": 64,
          "time": 20.08828125,
          "velocity": 0.3937007874015748,
          "duration": 0.44921875
        },
        {
          "name": "D3",
          "midi": 50,
          "time": 20.22890625,
          "velocity": 0.4015748031496063,
          "duration": 0.45000000000000284
        },
        {
          "name": "C#5",
          "midi": 73,
          "time": 20.246875,
          "velocity": 0.3858267716535433,
          "duration": 0.45000000000000284
        },
        {
          "name": "C#4",
          "midi": 61,
          "time": 20.3828125,
          "velocity": 0.4094488188976378,
          "duration": 0.45078125000000213
        },
        {
          "name": "B4",
          "midi": 71,
          "time": 20.400000000000002,
          "velocity": 0.44881889763779526,
          "duration": 0.45078125000000213
        },
        {
          "name": "D4",
          "midi": 62,
          "time": 20.544531250000002,
          "velocity": 0.4015748031496063,
          "duration": 0.45078125000000213
        },
        {
          "name": "C#5",
          "midi": 73,
          "time": 20.550781250000004,
          "velocity": 0.3700787401574803,
          "duration": 0.45078125000000213
        },
        {
          "name": "F#4",
          "midi": 66,
          "time": 20.687500000000004,
          "velocity": 0.3464566929133858,
          "duration": 0.45078125000000213
        },
        {
          "name": "A#4",
          "midi": 70,
          "time": 20.688281250000003,
          "velocity": 0.4645669291338583,
          "duration": 0.45078125000000213
        },
        {
          "name": "C#3",
          "midi": 49,
          "time": 20.691406250000004,
          "velocity": 0.3779527559055118,
          "duration": 0.45078125000000213
        },
        {
          "name": "F#3",
          "midi": 54,
          "time": 20.847656250000004,
          "velocity": 0.33070866141732286,
          "duration": 0.4507812499999986
        },
        {
          "name": "A#3",
          "midi": 58,
          "time": 20.986718750000005,
          "velocity": 0.2992125984251969,
          "duration": 0.4507812499999986
        },
        {
          "name": "F#2",
          "midi": 42,
          "time": 21.135937500000004,
          "velocity": 0.2677165354330709,
          "duration": 0.4499999999999993
        },
        {
          "name": "G5",
          "midi": 79,
          "time": 21.283593750000005,
          "velocity": 0.3464566929133858,
          "duration": 0.4507812499999986
        },
        {
          "name": "C#5",
          "midi": 73,
          "time": 21.292968750000004,
          "velocity": 0.3464566929133858,
          "duration": 0.45078125000000213
        },
        {
          "name": "B2",
          "midi": 47,
          "time": 21.588281250000005,
          "velocity": 0.36220472440944884,
          "duration": 0.45078125000000213
        },
        {
          "name": "B4",
          "midi": 71,
          "time": 21.593750000000004,
          "velocity": 0.4094488188976378,
          "duration": 0.4507812500000057
        },
        {
          "name": "F#3",
          "midi": 54,
          "time": 21.740625000000005,
          "velocity": 0.31496062992125984,
          "duration": 0.45078125000000213
        },
        {
          "name": "B3",
          "midi": 59,
          "time": 21.899218750000006,
          "velocity": 0.4094488188976378,
          "duration": 0.4499999999999993
        },
        {
          "name": "C#4",
          "midi": 61,
          "time": 22.04140625000001,
          "velocity": 0.3464566929133858,
          "duration": 0.44999999999999574
        },
        {
          "name": "D4",
          "midi": 62,
          "time": 22.18984375000001,
          "velocity": 0.33070866141732286,
          "duration": 0.44921874999999645
        },
        {
          "name": "E4",
          "midi": 64,
          "time": 22.350000000000005,
          "velocity": 0.3543307086614173,
          "duration": 0.44921875
        },
        {
          "name": "B1",
          "midi": 35,
          "time": 22.489843750000006,
          "velocity": 0.36220472440944884,
          "duration": 0.44921875
        },
        {
          "name": "F#4",
          "midi": 66,
          "time": 22.492187500000004,
          "velocity": 0.3779527559055118,
          "duration": 0.44921875000000355
        },
        {
          "name": "B2",
          "midi": 47,
          "time": 22.506250000000005,
          "velocity": 0.4566929133858268,
          "duration": 0.4484375000000007
        },
        {
          "name": "B4",
          "midi": 71,
          "time": 22.942187500000006,
          "velocity": 0.44881889763779526,
          "duration": 0.4499999999999993
        },
        {
          "name": "B3",
          "midi": 59,
          "time": 22.942968750000006,
          "velocity": 0.28346456692913385,
          "duration": 0.4499999999999993
        },
        {
          "name": "C#4",
          "midi": 61,
          "time": 23.089843750000007,
          "velocity": 0.33858267716535434,
          "duration": 0.4499999999999993
        },
        {
          "name": "C#5",
          "midi": 73,
          "time": 23.091406250000006,
          "velocity": 0.3543307086614173,
          "duration": 0.4499999999999993
        },
        {
          "name": "D4",
          "midi": 62,
          "time": 23.234375000000007,
          "velocity": 0.33070866141732286,
          "duration": 0.4499999999999993
        },
        {
          "name": "D5",
          "midi": 74,
          "time": 23.239843750000006,
          "velocity": 0.2992125984251969,
          "duration": 0.4499999999999993
        },
        {
          "name": "E5",
          "midi": 76,
          "time": 23.382031250000004,
          "velocity": 0.4566929133858268,
          "duration": 0.4499999999999993
        },
        {
          "name": "B3",
          "midi": 59,
          "time": 23.385937500000004,
          "velocity": 0.4409448818897638,
          "duration": 0.44921875
        },
        {
          "name": "G3",
          "midi": 55,
          "time": 23.394531250000004,
          "velocity": 0.33858267716535434,
          "duration": 0.44921875
        },
        {
          "name": "E4",
          "midi": 64,
          "time": 23.396875000000005,
          "velocity": 0.4094488188976378,
          "duration": 0.44921875
        },
        {
          "name": "C#5",
          "midi": 73,
          "time": 23.832031250000004,
          "velocity": 0.3858267716535433,
          "duration": 0.44921875
        },
        {
          "name": "B4",
          "midi": 71,
          "time": 23.987500000000004,
          "velocity": 0.47244094488188976,
          "duration": 0.4499999999999993
        },
        {
          "name": "C#5",
          "midi": 73,
          "time": 24.135937500000004,
          "velocity": 0.33070866141732286,
          "duration": 0.4499999999999993
        },
        {
          "name": "A#3",
          "midi": 58,
          "time": 24.285937500000003,
          "velocity": 0.3543307086614173,
          "duration": 0.45000000000000284
        },
        {
          "name": "D4",
          "midi": 62,
          "time": 24.289843750000003,
          "velocity": 0.4881889763779528,
          "duration": 0.45000000000000284
        },
        {
          "name": "F#3",
          "midi": 54,
          "time": 24.296875000000004,
          "velocity": 0.30708661417322836,
          "duration": 0.45000000000000284
        },
        {
          "name": "A#4",
          "midi": 70,
          "time": 24.297656250000003,
          "velocity": 0.3779527559055118,
          "duration": 0.45000000000000284
        },
        {
          "name": "A#3",
          "midi": 58,
          "time": 24.726562500000004,
          "velocity": 0.3228346456692913,
          "duration": 0.45000000000000284
        },
        {
          "name": "F#3",
          "midi": 54,
          "time": 24.732812500000005,
          "velocity": 0.3543307086614173,
          "duration": 0.45000000000000284
        },
        {
          "name": "C#4",
          "midi": 61,
          "time": 24.733593750000004,
          "velocity": 0.48031496062992124,
          "duration": 0.45000000000000284
        },
        {
          "name": "F#4",
          "midi": 66,
          "time": 24.735937500000006,
          "velocity": 0.3700787401574803,
          "duration": 0.45000000000000284
        },
        {
          "name": "B3",
          "midi": 59,
          "time": 25.180468750000006,
          "velocity": 0.3543307086614173,
          "duration": 0.45000000000000284
        },
        {
          "name": "F#5",
          "midi": 78,
          "time": 25.191406250000007,
          "velocity": 0.44881889763779526,
          "duration": 0.45078125000000213
        },
        {
          "name": "D4",
          "midi": 62,
          "time": 25.350781250000008,
          "velocity": 0.2677165354330709,
          "duration": 0.45078125000000213
        },
        {
          "name": "F#4",
          "midi": 66,
          "time": 25.47500000000001,
          "velocity": 0.2755905511811024,
          "duration": 0.45078125000000213
        },
        {
          "name": "A3",
          "midi": 57,
          "time": 25.63359375000001,
          "velocity": 0.25984251968503935,
          "duration": 0.4499999999999993
        },
        {
          "name": "B4",
          "midi": 71,
          "time": 25.64218750000001,
          "velocity": 0.3858267716535433,
          "duration": 0.4499999999999993
        },
        {
          "name": "C#4",
          "midi": 61,
          "time": 25.79062500000001,
          "velocity": 0.2992125984251969,
          "duration": 0.4499999999999993
        },
        {
          "name": "F#4",
          "midi": 66,
          "time": 25.94218750000001,
          "velocity": 0.3700787401574803,
          "duration": 0.4499999999999993
        },
        {
          "name": "B4",
          "midi": 71,
          "time": 25.94296875000001,
          "velocity": 0.2755905511811024,
          "duration": 0.4499999999999993
        },
        {
          "name": "A#4",
          "midi": 70,
          "time": 26.00781250000001,
          "velocity": 0.4645669291338583,
          "duration": 0.44999999999999574
        },
        {
          "name": "G3",
          "midi": 55,
          "time": 26.08437500000001,
          "velocity": 0.4015748031496063,
          "duration": 0.4499999999999993
        },
        {
          "name": "B4",
          "midi": 71,
          "time": 26.09843750000001,
          "velocity": 0.4094488188976378,
          "duration": 0.44921874999999645
        },
        {
          "name": "F#4",
          "midi": 66,
          "time": 26.245312500000008,
          "velocity": 0.36220472440944884,
          "duration": 0.44921874999999645
        },
        {
          "name": "D4",
          "midi": 62,
          "time": 26.38515625000001,
          "velocity": 0.3228346456692913,
          "duration": 0.44843749999999716
        },
        {
          "name": "C#5",
          "midi": 73,
          "time": 26.393750000000008,
          "velocity": 0.3858267716535433,
          "duration": 0.44843749999999716
        },
        {
          "name": "F#4",
          "midi": 66,
          "time": 26.542187500000008,
          "velocity": 0.2440944881889764,
          "duration": 0.44843749999999716
        },
        {
          "name": "F#3",
          "midi": 54,
          "time": 26.542968750000007,
          "velocity": 0.33070866141732286,
          "duration": 0.44843749999999716
        },
        {
          "name": "D4",
          "midi": 62,
          "time": 26.689062500000006,
          "velocity": 0.33858267716535434,
          "duration": 0.44921874999999645
        },
        {
          "name": "D5",
          "midi": 74,
          "time": 26.696875000000006,
          "velocity": 0.48031496062992124,
          "duration": 0.44921874999999645
        },
        {
          "name": "F#4",
          "midi": 66,
          "time": 26.839062500000004,
          "velocity": 0.28346456692913385,
          "duration": 0.44921874999999645
        },
        {
          "name": "C#4",
          "midi": 61,
          "time": 26.981250000000006,
          "velocity": 0.3858267716535433,
          "duration": 0.4492187499999929
        },
        {
          "name": "C#5",
          "midi": 73,
          "time": 26.982812500000005,
          "velocity": 0.49606299212598426,
          "duration": 0.4492187499999929
        },
        {
          "name": "F3",
          "midi": 53,
          "time": 26.985937500000006,
          "velocity": 0.3543307086614173,
          "duration": 0.4492187499999929
        },
        {
          "name": "G#3",
          "midi": 56,
          "time": 26.996093750000004,
          "velocity": 0.4015748031496063,
          "duration": 0.44921874999999645
        },
        {
          "name": "B4",
          "midi": 71,
          "time": 27.148437500000004,
          "velocity": 0.3779527559055118,
          "duration": 0.44999999999999574
        },
        {
          "name": "C#5",
          "midi": 73,
          "time": 27.286718750000002,
          "velocity": 0.3858267716535433,
          "duration": 0.44999999999999574
        },
        {
          "name": "F5",
          "midi": 77,
          "time": 27.4375,
          "velocity": 0.47244094488188976,
          "duration": 0.4499999999999993
        },
        {
          "name": "C#5",
          "midi": 73,
          "time": 27.58515625,
          "velocity": 0.4015748031496063,
          "duration": 0.44921875
        },
        {
          "name": "F5",
          "midi": 77,
          "time": 27.7390625,
          "velocity": 0.2755905511811024,
          "duration": 0.44921875
        },
        {
          "name": "F4",
          "midi": 65,
          "time": 27.88046875,
          "velocity": 0.44881889763779526,
          "duration": 0.4499999999999993
        },
        {
          "name": "G#5",
          "midi": 80,
          "time": 27.88359375,
          "velocity": 0.2992125984251969,
          "duration": 0.4499999999999993
        },
        {
          "name": "C#4",
          "midi": 61,
          "time": 27.88984375,
          "velocity": 0.3228346456692913,
          "duration": 0.44999999999999574
        },
        {
          "name": "G#3",
          "midi": 56,
          "time": 27.89140625,
          "velocity": 0.3464566929133858,
          "duration": 0.44999999999999574
        },
        {
          "name": "F3",
          "midi": 53,
          "time": 28.3296875,
          "velocity": 0.3937007874015748,
          "duration": 0.4492187499999929
        },
        {
          "name": "G#2",
          "midi": 44,
          "time": 28.335156249999997,
          "velocity": 0.3228346456692913,
          "duration": 0.4492187499999929
        },
        {
          "name": "C#6",
          "midi": 85,
          "time": 28.339843749999996,
          "velocity": 0.3937007874015748,
          "duration": 0.44921874999999645
        },
        {
          "name": "C#3",
          "midi": 49,
          "time": 28.346874999999994,
          "velocity": 0.3228346456692913,
          "duration": 0.4499999999999993
        },
        {
          "name": "B5",
          "midi": 83,
          "time": 28.650781249999994,
          "velocity": 0.3464566929133858,
          "duration": 0.4499999999999993
        },
        {
          "name": "C#6",
          "midi": 85,
          "time": 28.710937499999993,
          "velocity": 0.4015748031496063,
          "duration": 0.4499999999999993
        },
        {
          "name": "C#3",
          "midi": 49,
          "time": 28.778124999999992,
          "velocity": 0.29133858267716534,
          "duration": 0.4499999999999993
        },
        {
          "name": "F#3",
          "midi": 54,
          "time": 28.78281249999999,
          "velocity": 0.3228346456692913,
          "duration": 0.4499999999999993
        },
        {
          "name": "B3",
          "midi": 59,
          "time": 28.78671874999999,
          "velocity": 0.33858267716535434,
          "duration": 0.4499999999999993
        },
        {
          "name": "B5",
          "midi": 83,
          "time": 28.792968749999993,
          "velocity": 0.4409448818897638,
          "duration": 0.44921874999999645
        },
        {
          "name": "C#6",
          "midi": 85,
          "time": 29.54218749999999,
          "velocity": 0.4251968503937008,
          "duration": 0.44999999999999574
        },
        {
          "name": "B5",
          "midi": 83,
          "time": 29.60859374999999,
          "velocity": 0.4094488188976378,
          "duration": 0.44999999999999574
        },
        {
          "name": "F#3",
          "midi": 54,
          "time": 29.68359374999999,
          "velocity": 0.29133858267716534,
          "duration": 0.44999999999999574
        },
        {
          "name": "A#5",
          "midi": 82,
          "time": 29.69140624999999,
          "velocity": 0.44881889763779526,
          "duration": 0.44999999999999574
        },
        {
          "name": "A#3",
          "midi": 58,
          "time": 29.696874999999988,
          "velocity": 0.2992125984251969,
          "duration": 0.44999999999999574
        },
        {
          "name": "C#3",
          "midi": 49,
          "time": 29.698437499999986,
          "velocity": 0.2992125984251969,
          "duration": 0.44999999999999574
        },
        {
          "name": "A#4",
          "midi": 70,
          "time": 30.132031249999986,
          "velocity": 0.4645669291338583,
          "duration": 0.4499999999999922
        },
        {
          "name": "F#5",
          "midi": 78,
          "time": 30.142187499999984,
          "velocity": 0.5354330708661418,
          "duration": 0.44999999999999574
        },
        {
          "name": "B4",
          "midi": 71,
          "time": 30.28281249999998,
          "velocity": 0.2677165354330709,
          "duration": 0.4499999999999993
        },
        {
          "name": "G#5",
          "midi": 80,
          "time": 30.28437499999998,
          "velocity": 0.36220472440944884,
          "duration": 0.4499999999999993
        },
        {
          "name": "C#5",
          "midi": 73,
          "time": 30.42499999999998,
          "velocity": 0.33070866141732286,
          "duration": 0.4499999999999993
        },
        {
          "name": "A#5",
          "midi": 82,
          "time": 30.43593749999998,
          "velocity": 0.4645669291338583,
          "duration": 0.4499999999999993
        },
        {
          "name": "B2",
          "midi": 47,
          "time": 30.58124999999998,
          "velocity": 0.3937007874015748,
          "duration": 0.4499999999999993
        },
        {
          "name": "D5",
          "midi": 74,
          "time": 30.59218749999998,
          "velocity": 0.4330708661417323,
          "duration": 0.4499999999999993
        },
        {
          "name": "B5",
          "midi": 83,
          "time": 30.59453124999998,
          "velocity": 0.33070866141732286,
          "duration": 0.4499999999999993
        },
        {
          "name": "F#3",
          "midi": 54,
          "time": 30.73124999999998,
          "velocity": 0.47244094488188976,
          "duration": 0.44921875
        },
        {
          "name": "B3",
          "midi": 59,
          "time": 30.887499999999978,
          "velocity": 0.33070866141732286,
          "duration": 0.44921875000000355
        },
        {
          "name": "C#4",
          "midi": 61,
          "time": 31.04453124999998,
          "velocity": 0.29133858267716534,
          "duration": 0.4499999999999993
        },
        {
          "name": "D6",
          "midi": 86,
          "time": 31.17734374999998,
          "velocity": 0.44881889763779526,
          "duration": 0.4507812499999986
        },
        {
          "name": "D4",
          "midi": 62,
          "time": 31.182812499999983,
          "velocity": 0.3779527559055118,
          "duration": 0.45156249999999787
        },
        {
          "name": "F#5",
          "midi": 78,
          "time": 31.195312499999982,
          "velocity": 0.4645669291338583,
          "duration": 0.45156249999999787
        },
        {
          "name": "C#4",
          "midi": 61,
          "time": 31.328124999999982,
          "velocity": 0.29133858267716534,
          "duration": 0.45156249999999787
        },
        {
          "name": "C#6",
          "midi": 85,
          "time": 31.32890624999998,
          "velocity": 0.4881889763779528,
          "duration": 0.45156249999999787
        },
        {
          "name": "E5",
          "midi": 76,
          "time": 31.33437499999998,
          "velocity": 0.33070866141732286,
          "duration": 0.45156249999999787
        },
        {
          "name": "B2",
          "midi": 47,
          "time": 31.47890624999998,
          "velocity": 0.36220472440944884,
          "duration": 0.4507812499999986
        },
        {
          "name": "B5",
          "midi": 83,
          "time": 31.49062499999998,
          "velocity": 0.44881889763779526,
          "duration": 0.4507812499999986
        },
        {
          "name": "D5",
          "midi": 74,
          "time": 31.49374999999998,
          "velocity": 0.4015748031496063,
          "duration": 0.4507812499999986
        },
        {
          "name": "F#3",
          "midi": 54,
          "time": 31.64609374999998,
          "velocity": 0.2992125984251969,
          "duration": 0.4499999999999993
        },
        {
          "name": "B3",
          "midi": 59,
          "time": 31.782031249999978,
          "velocity": 0.4251968503937008,
          "duration": 0.4499999999999993
        },
        {
          "name": "C#4",
          "midi": 61,
          "time": 31.939062499999977,
          "velocity": 0.3700787401574803,
          "duration": 0.45000000000000284
        },
        {
          "name": "D4",
          "midi": 62,
          "time": 32.08671874999998,
          "velocity": 0.3858267716535433,
          "duration": 0.44921875
        },
        {
          "name": "G5",
          "midi": 79,
          "time": 32.08906249999998,
          "velocity": 0.3543307086614173,
          "duration": 0.44921875
        },
        {
          "name": "E6",
          "midi": 88,
          "time": 32.09218749999998,
          "velocity": 0.4251968503937008,
          "duration": 0.44921875
        },
        {
          "name": "E4",
          "midi": 64,
          "time": 32.24843749999998,
          "velocity": 0.30708661417322836,
          "duration": 0.44921875
        },
        {
          "name": "A5",
          "midi": 81,
          "time": 32.38203124999998,
          "velocity": 0.33858267716535434,
          "duration": 0.4492187499999929
        },
        {
          "name": "D#3",
          "midi": 51,
          "time": 32.39609374999998,
          "velocity": 0.3858267716535433,
          "duration": 0.4492187500000071
        },
        {
          "name": "F#6",
          "midi": 90,
          "time": 32.39687499999998,
          "velocity": 0.4251968503937008,
          "duration": 0.4492187500000071
        },
        {
          "name": "A3",
          "midi": 57,
          "time": 32.53828124999998,
          "velocity": 0.4251968503937008,
          "duration": 0.4492187500000071
        },
        {
          "name": "D#4",
          "midi": 63,
          "time": 32.67578124999998,
          "velocity": 0.3858267716535433,
          "duration": 0.4492187500000142
        },
        {
          "name": "A6",
          "midi": 93,
          "time": 32.82968749999998,
          "velocity": 0.3858267716535433,
          "duration": 0.4484375000000185
        },
        {
          "name": "F#4",
          "midi": 66,
          "time": 32.83593749999998,
          "velocity": 0.3779527559055118,
          "duration": 0.4484375000000185
        },
        {
          "name": "C#6",
          "midi": 85,
          "time": 32.84453124999998,
          "velocity": 0.3464566929133858,
          "duration": 0.4484375000000185
        },
        {
          "name": "D#5",
          "midi": 75,
          "time": 32.99374999999999,
          "velocity": 0.29133858267716534,
          "duration": 0.44843750000001137
        },
        {
          "name": "F#4",
          "midi": 66,
          "time": 33.142968749999994,
          "velocity": 0.3464566929133858,
          "duration": 0.44843750000001137
        },
        {
          "name": "D#4",
          "midi": 63,
          "time": 33.27343749999999,
          "velocity": 0.47244094488188976,
          "duration": 0.44843750000001137
        },
        {
          "name": "A5",
          "midi": 81,
          "time": 33.284375,
          "velocity": 0.28346456692913385,
          "duration": 0.4492187500000071
        },
        {
          "name": "F#6",
          "midi": 90,
          "time": 33.29296875,
          "velocity": 0.3937007874015748,
          "duration": 0.44921875
        },
        {
          "name": "G4",
          "midi": 67,
          "time": 33.73046875000001,
          "velocity": 0.28346456692913385,
          "duration": 0.4507812499999986
        },
        {
          "name": "E6",
          "midi": 88,
          "time": 33.73515625,
          "velocity": 0.3700787401574803,
          "duration": 0.4507812500000057
        },
        {
          "name": "F#6",
          "midi": 90,
          "time": 33.88125,
          "velocity": 0.5590551181102362,
          "duration": 0.4515625000000085
        },
        {
          "name": "F#4",
          "midi": 66,
          "time": 33.88359375,
          "velocity": 0.33070866141732286,
          "duration": 0.4515625000000085
        },
        {
          "name": "G6",
          "midi": 91,
          "time": 34.0375,
          "velocity": 0.3779527559055118,
          "duration": 0.4515625000000085
        },
        {
          "name": "D#4",
          "midi": 63,
          "time": 34.038281250000004,
          "velocity": 0.3464566929133858,
          "duration": 0.4515625000000085
        },
        {
          "name": "E6",
          "midi": 88,
          "time": 34.185156250000006,
          "velocity": 0.30708661417322836,
          "duration": 0.4515625000000085
        },
        {
          "name": "G6",
          "midi": 91,
          "time": 34.18984375000001,
          "velocity": 0.44881889763779526,
          "duration": 0.4515625000000085
        },
        {
          "name": "E4",
          "midi": 64,
          "time": 34.19843750000001,
          "velocity": 0.4251968503937008,
          "duration": 0.4515625000000085
        },
        {
          "name": "B4",
          "midi": 71,
          "time": 34.34218750000001,
          "velocity": 0.33858267716535434,
          "duration": 0.45000000000001705
        },
        {
          "name": "E5",
          "midi": 76,
          "time": 34.48750000000001,
          "velocity": 0.31496062992125984,
          "duration": 0.45000000000000995
        },
        {
          "name": "D4",
          "midi": 62,
          "time": 34.62265625000001,
          "velocity": 0.4094488188976378,
          "duration": 0.4492187500000071
        },
        {
          "name": "C#6",
          "midi": 85,
          "time": 34.64765625000002,
          "velocity": 0.3858267716535433,
          "duration": 0.44843750000000426
        },
        {
          "name": "B4",
          "midi": 71,
          "time": 34.77578125000002,
          "velocity": 0.3858267716535433,
          "duration": 0.44843749999999716
        },
        {
          "name": "B5",
          "midi": 83,
          "time": 34.77968750000002,
          "velocity": 0.4015748031496063,
          "duration": 0.44843749999999716
        },
        {
          "name": "C#6",
          "midi": 85,
          "time": 34.925000000000026,
          "velocity": 0.4094488188976378,
          "duration": 0.44843749999999005
        },
        {
          "name": "C#5",
          "midi": 73,
          "time": 34.926562500000024,
          "velocity": 0.3700787401574803,
          "duration": 0.44843749999999005
        },
        {
          "name": "C#4",
          "midi": 61,
          "time": 35.07968750000002,
          "velocity": 0.33858267716535434,
          "duration": 0.4492187499999929
        },
        {
          "name": "F#5",
          "midi": 78,
          "time": 35.08203125000002,
          "velocity": 0.3543307086614173,
          "duration": 0.4492187499999929
        },
        {
          "name": "A#5",
          "midi": 82,
          "time": 35.08984375000002,
          "velocity": 0.48031496062992124,
          "duration": 0.4492187499999929
        },
        {
          "name": "A#4",
          "midi": 70,
          "time": 35.23515625000002,
          "velocity": 0.25196850393700787,
          "duration": 0.44999999999999574
        },
        {
          "name": "C#5",
          "midi": 73,
          "time": 35.386718750000014,
          "velocity": 0.29133858267716534,
          "duration": 0.44999999999999574
        },
        {
          "name": "A#3",
          "midi": 58,
          "time": 35.52656250000001,
          "velocity": 0.33858267716535434,
          "duration": 0.45000000000000284
        },
        {
          "name": "G6",
          "midi": 91,
          "time": 35.67734375000001,
          "velocity": 0.49606299212598426,
          "duration": 0.4507812499999986
        },
        {
          "name": "F#3",
          "midi": 54,
          "time": 35.68828125000001,
          "velocity": 0.3464566929133858,
          "duration": 0.4507812499999986
        },
        {
          "name": "C#6",
          "midi": 85,
          "time": 35.69687500000001,
          "velocity": 0.33858267716535434,
          "duration": 0.4507812499999986
        },
        {
          "name": "C#3",
          "midi": 49,
          "time": 35.84140625000001,
          "velocity": 0.3858267716535433,
          "duration": 0.44999999999999574
        },
        {
          "name": "B5",
          "midi": 83,
          "time": 35.98593750000001,
          "velocity": 0.4251968503937008,
          "duration": 0.4492187499999929
        },
        {
          "name": "B2",
          "midi": 47,
          "time": 35.98750000000001,
          "velocity": 0.4015748031496063,
          "duration": 0.4492187499999929
        },
        {
          "name": "F#6",
          "midi": 90,
          "time": 35.99375000000001,
          "velocity": 0.47244094488188976,
          "duration": 0.4492187499999929
        },
        {
          "name": "F#3",
          "midi": 54,
          "time": 36.12968750000001,
          "velocity": 0.4409448818897638,
          "duration": 0.44843749999999716
        },
        {
          "name": "B3",
          "midi": 59,
          "time": 36.29140625000001,
          "velocity": 0.3779527559055118,
          "duration": 0.44921875
        },
        {
          "name": "C#6",
          "midi": 85,
          "time": 36.42265625000001,
          "velocity": 0.4251968503937008,
          "duration": 0.44921875
        },
        {
          "name": "C#4",
          "midi": 61,
          "time": 36.42968750000001,
          "velocity": 0.4251968503937008,
          "duration": 0.45000000000000284
        },
        {
          "name": "F#5",
          "midi": 78,
          "time": 36.4421875,
          "velocity": 0.4015748031496063,
          "duration": 0.45000000000000284
        },
        {
          "name": "D4",
          "midi": 62,
          "time": 36.57890625000001,
          "velocity": 0.31496062992125984,
          "duration": 0.4507812499999986
        },
        {
          "name": "E4",
          "midi": 64,
          "time": 36.73671875000001,
          "velocity": 0.33070866141732286,
          "duration": 0.4507812499999986
        },
        {
          "name": "B5",
          "midi": 83,
          "time": 36.87890625000001,
          "velocity": 0.4330708661417323,
          "duration": 0.4507812499999986
        },
        {
          "name": "F#5",
          "midi": 78,
          "time": 36.87968750000001,
          "velocity": 0.41732283464566927,
          "duration": 0.4507812499999986
        },
        {
          "name": "F#4",
          "midi": 66,
          "time": 36.88515625000001,
          "velocity": 0.3700787401574803,
          "duration": 0.4507812499999986
        },
        {
          "name": "F#5",
          "midi": 78,
          "time": 37.32812500000001,
          "velocity": 0.3228346456692913,
          "duration": 0.45000000000000284
        },
        {
          "name": "F#4",
          "midi": 66,
          "time": 37.333593750000006,
          "velocity": 0.33070866141732286,
          "duration": 0.45000000000000995
        },
        {
          "name": "B4",
          "midi": 71,
          "time": 37.34218750000001,
          "velocity": 0.3464566929133858,
          "duration": 0.45000000000000995
        },
        {
          "name": "C#5",
          "midi": 73,
          "time": 37.47500000000001,
          "velocity": 0.3543307086614173,
          "duration": 0.45000000000000995
        },
        {
          "name": "E4",
          "midi": 64,
          "time": 37.47890625000001,
          "velocity": 0.2755905511811024,
          "duration": 0.45000000000000995
        },
        {
          "name": "D4",
          "midi": 62,
          "time": 37.63515625000001,
          "velocity": 0.2755905511811024,
          "duration": 0.45000000000000995
        },
        {
          "name": "D5",
          "midi": 74,
          "time": 37.63515625000001,
          "velocity": 0.3464566929133858,
          "duration": 0.45000000000000995
        },
        {
          "name": "E5",
          "midi": 76,
          "time": 37.78203125000001,
          "velocity": 0.5039370078740157,
          "duration": 0.45000000000000995
        },
        {
          "name": "E4",
          "midi": 64,
          "time": 37.78281250000001,
          "velocity": 0.3779527559055118,
          "duration": 0.45000000000000995
        },
        {
          "name": "B3",
          "midi": 59,
          "time": 37.78671875000001,
          "velocity": 0.3543307086614173,
          "duration": 0.45000000000000995
        },
        {
          "name": "G3",
          "midi": 55,
          "time": 37.787500000000016,
          "velocity": 0.33070866141732286,
          "duration": 0.45000000000000995
        },
        {
          "name": "C#5",
          "midi": 73,
          "time": 38.24375000000003,
          "velocity": 0.2992125984251969,
          "duration": 0.44999999999998863
        },
        {
          "name": "B4",
          "midi": 71,
          "time": 38.389843750000026,
          "velocity": 0.3543307086614173,
          "duration": 0.44999999999998863
        },
        {
          "name": "C#5",
          "midi": 73,
          "time": 38.53359375000002,
          "velocity": 0.4251968503937008,
          "duration": 0.44999999999998863
        },
        {
          "name": "D5",
          "midi": 74,
          "time": 38.675000000000026,
          "velocity": 0.3937007874015748,
          "duration": 0.4499999999999815
        },
        {
          "name": "F#3",
          "midi": 54,
          "time": 38.68203125000002,
          "velocity": 0.4015748031496063,
          "duration": 0.44999999999998863
        },
        {
          "name": "D4",
          "midi": 62,
          "time": 38.68515625000002,
          "velocity": 0.41732283464566927,
          "duration": 0.44999999999998863
        },
        {
          "name": "A#3",
          "midi": 58,
          "time": 38.68671875000002,
          "velocity": 0.31496062992125984,
          "duration": 0.44999999999998863
        },
        {
          "name": "A#3",
          "midi": 58,
          "time": 39.12343750000001,
          "velocity": 0.33070866141732286,
          "duration": 0.44999999999999574
        },
        {
          "name": "F#3",
          "midi": 54,
          "time": 39.12578125000001,
          "velocity": 0.36220472440944884,
          "duration": 0.44999999999999574
        },
        {
          "name": "C#4",
          "midi": 61,
          "time": 39.13125000000001,
          "velocity": 0.3858267716535433,
          "duration": 0.44999999999999574
        },
        {
          "name": "F#4",
          "midi": 66,
          "time": 39.143750000000004,
          "velocity": 0.4645669291338583,
          "duration": 0.45000000000000284
        },
        {
          "name": "F#5",
          "midi": 78,
          "time": 39.587500000000006,
          "velocity": 0.5196850393700787,
          "duration": 0.44921875
        },
        {
          "name": "B3",
          "midi": 59,
          "time": 39.587500000000006,
          "velocity": 0.3779527559055118,
          "duration": 0.44921875
        },
        {
          "name": "D4",
          "midi": 62,
          "time": 39.73437500000001,
          "velocity": 0.3543307086614173,
          "duration": 0.44921875
        },
        {
          "name": "F#4",
          "midi": 66,
          "time": 39.88671875000001,
          "velocity": 0.3464566929133858,
          "duration": 0.45000000000000995
        },
        {
          "name": "A3",
          "midi": 57,
          "time": 40.021093750000006,
          "velocity": 0.31496062992125984,
          "duration": 0.45000000000000995
        },
        {
          "name": "B4",
          "midi": 71,
          "time": 40.046093750000004,
          "velocity": 0.3543307086614173,
          "duration": 0.45000000000000995
        },
        {
          "name": "C#5",
          "midi": 73,
          "time": 40.18828125000001,
          "velocity": 0.31496062992125984,
          "duration": 0.45000000000000284
        },
        {
          "name": "C#4",
          "midi": 61,
          "time": 40.19687500000001,
          "velocity": 0.29133858267716534,
          "duration": 0.45000000000000284
        },
        {
          "name": "B4",
          "midi": 71,
          "time": 40.334375000000016,
          "velocity": 0.3937007874015748,
          "duration": 0.45000000000000284
        },
        {
          "name": "F#4",
          "midi": 66,
          "time": 40.33671875000002,
          "velocity": 0.33070866141732286,
          "duration": 0.45000000000000284
        },
        {
          "name": "A#4",
          "midi": 70,
          "time": 40.41093750000002,
          "velocity": 0.3700787401574803,
          "duration": 0.45000000000000284
        },
        {
          "name": "B4",
          "midi": 71,
          "time": 40.47578125000002,
          "velocity": 0.4409448818897638,
          "duration": 0.4507812499999986
        },
        {
          "name": "G3",
          "midi": 55,
          "time": 40.478906250000016,
          "velocity": 0.25196850393700787,
          "duration": 0.4507812499999986
        },
        {
          "name": "F#4",
          "midi": 66,
          "time": 40.631250000000016,
          "velocity": 0.33858267716535434,
          "duration": 0.4507812499999986
        },
        {
          "name": "C#5",
          "midi": 73,
          "time": 40.78593750000002,
          "velocity": 0.36220472440944884,
          "duration": 0.4515624999999943
        },
        {
          "name": "D4",
          "midi": 62,
          "time": 40.79687500000002,
          "velocity": 0.33070866141732286,
          "duration": 0.45234374999999005
        },
        {
          "name": "F#3",
          "midi": 54,
          "time": 40.93828125000002,
          "velocity": 0.3858267716535433,
          "duration": 0.4515624999999943
        },
        {
          "name": "D5",
          "midi": 74,
          "time": 41.08906250000001,
          "velocity": 0.3700787401574803,
          "duration": 0.4515625000000014
        },
        {
          "name": "D4",
          "midi": 62,
          "time": 41.09140625000001,
          "velocity": 0.31496062992125984,
          "duration": 0.4515625000000014
        },
        {
          "name": "F#4",
          "midi": 66,
          "time": 41.246093750000014,
          "velocity": 0.33070866141732286,
          "duration": 0.4515625000000014
        },
        {
          "name": "E3",
          "midi": 52,
          "time": 41.386718750000014,
          "velocity": 0.30708661417322836,
          "duration": 0.4507812499999986
        },
        {
          "name": "B4",
          "midi": 71,
          "time": 41.390625000000014,
          "velocity": 0.5118110236220472,
          "duration": 0.44999999999999574
        },
        {
          "name": "E5",
          "midi": 76,
          "time": 41.392968750000016,
          "velocity": 0.44881889763779526,
          "duration": 0.4507812499999915
        },
        {
          "name": "G3",
          "midi": 55,
          "time": 41.54765625000002,
          "velocity": 0.4015748031496063,
          "duration": 0.4507812499999915
        },
        {
          "name": "C#4",
          "midi": 61,
          "time": 41.682031250000016,
          "velocity": 0.33858267716535434,
          "duration": 0.4507812499999915
        },
        {
          "name": "E3",
          "midi": 52,
          "time": 41.82968750000001,
          "velocity": 0.41732283464566927,
          "duration": 0.4507812499999915
        },
        {
          "name": "B4",
          "midi": 71,
          "time": 41.835937500000014,
          "velocity": 0.4881889763779528,
          "duration": 0.4507812499999986
        },
        {
          "name": "G4",
          "midi": 67,
          "time": 41.84218750000001,
          "velocity": 0.36220472440944884,
          "duration": 0.4515625000000014
        },
        {
          "name": "G3",
          "midi": 55,
          "time": 41.99218750000001,
          "velocity": 0.31496062992125984,
          "duration": 0.4507812500000057
        },
        {
          "name": "B3",
          "midi": 59,
          "time": 42.15234375000001,
          "velocity": 0.2992125984251969,
          "duration": 0.45000000000000995
        },
        {
          "name": "F#4",
          "midi": 66,
          "time": 42.28125000000001,
          "velocity": 0.3464566929133858,
          "duration": 0.45000000000000995
        },
        {
          "name": "F#3",
          "midi": 54,
          "time": 42.28203125000001,
          "velocity": 0.4015748031496063,
          "duration": 0.45000000000000995
        },
        {
          "name": "A#4",
          "midi": 70,
          "time": 42.30000000000001,
          "velocity": 0.44881889763779526,
          "duration": 0.4492187500000071
        },
        {
          "name": "A#3",
          "midi": 58,
          "time": 42.437500000000014,
          "velocity": 0.25196850393700787,
          "duration": 0.44921875
        },
        {
          "name": "D4",
          "midi": 62,
          "time": 42.580468750000016,
          "velocity": 0.36220472440944884,
          "duration": 0.44921875
        },
        {
          "name": "F#3",
          "midi": 54,
          "time": 42.74218750000002,
          "velocity": 0.48031496062992124,
          "duration": 0.44999999999999574
        },
        {
          "name": "C#4",
          "midi": 61,
          "time": 42.881250000000016,
          "velocity": 0.3543307086614173,
          "duration": 0.45000000000000284
        },
        {
          "name": "F#4",
          "midi": 66,
          "time": 42.88750000000002,
          "velocity": 0.3228346456692913,
          "duration": 0.45000000000000284
        },
        {
          "name": "A#4",
          "midi": 70,
          "time": 42.889062500000016,
          "velocity": 0.3937007874015748,
          "duration": 0.45000000000000284
        },
        {
          "name": "B4",
          "midi": 71,
          "time": 43.187500000000014,
          "velocity": 0.4645669291338583,
          "duration": 0.45000000000000284
        },
        {
          "name": "F#4",
          "midi": 66,
          "time": 43.187500000000014,
          "velocity": 0.3464566929133858,
          "duration": 0.45000000000000284
        },
        {
          "name": "B2",
          "midi": 47,
          "time": 43.19609375000002,
          "velocity": 0.3464566929133858,
          "duration": 0.45000000000000284
        },
        {
          "name": "E3",
          "midi": 52,
          "time": 43.34062500000002,
          "velocity": 0.41732283464566927,
          "duration": 0.45000000000000284
        },
        {
          "name": "F#3",
          "midi": 54,
          "time": 43.496093750000014,
          "velocity": 0.3464566929133858,
          "duration": 0.4507812500000057
        },
        {
          "name": "B3",
          "midi": 59,
          "time": 43.63750000000002,
          "velocity": 0.3858267716535433,
          "duration": 0.4507812499999986
        },
        {
          "name": "E4",
          "midi": 64,
          "time": 43.77734375000002,
          "velocity": 0.4251968503937008,
          "duration": 0.4507812499999915
        },
        {
          "name": "E3",
          "midi": 52,
          "time": 43.79843750000002,
          "velocity": 0.3858267716535433,
          "duration": 0.4507812499999915
        },
        {
          "name": "F#4",
          "midi": 66,
          "time": 43.93984375000002,
          "velocity": 0.4645669291338583,
          "duration": 0.4507812499999915
        },
        {
          "name": "B3",
          "midi": 59,
          "time": 43.94843750000002,
          "velocity": 0.44881889763779526,
          "duration": 0.4507812499999986
        },
        {
          "name": "B4",
          "midi": 71,
          "time": 44.076562500000016,
          "velocity": 0.4566929133858268,
          "duration": 0.4507812499999986
        },
        {
          "name": "D#4",
          "midi": 63,
          "time": 44.08515625000002,
          "velocity": 0.3779527559055118,
          "duration": 0.4507812499999986
        },
        {
          "name": "B1",
          "midi": 35,
          "time": 44.089843750000014,
          "velocity": 0.2992125984251969,
          "duration": 0.4507812500000057
        },
        {
          "name": "B2",
          "midi": 47,
          "time": 44.10078125000001,
          "velocity": 0.4566929133858268,
          "duration": 0.4507812500000057
        },
        {
          "name": "B1",
          "midi": 35,
          "time": 44.97968750000002,
          "velocity": 0.33858267716535434,
          "duration": 0.45000000000000284
        },
        {
          "name": "B3",
          "midi": 59,
          "time": 44.98437500000002,
          "velocity": 0.4094488188976378,
          "duration": 0.45000000000000284
        },
        {
          "name": "B2",
          "midi": 47,
          "time": 44.98750000000002,
          "velocity": 0.23622047244094488,
          "duration": 0.45000000000000284
        },
        {
          "name": "B3",
          "midi": 59,
          "time": 45.13437500000002,
          "velocity": 0.3779527559055118,
          "duration": 0.45000000000000284
        },
        {
          "name": "F#4",
          "midi": 66,
          "time": 45.29843750000002,
          "velocity": 0.3700787401574803,
          "duration": 0.4492187500000071
        },
        {
          "name": "B4",
          "midi": 71,
          "time": 45.438281250000024,
          "velocity": 0.31496062992125984,
          "duration": 0.4492187500000071
        },
        {
          "name": "B4",
          "midi": 71,
          "time": 45.590625000000024,
          "velocity": 0.3464566929133858,
          "duration": 0.4492187500000071
        },
        {
          "name": "C#5",
          "midi": 73,
          "time": 45.73203125000003,
          "velocity": 0.33070866141732286,
          "duration": 0.4492187500000071
        },
        {
          "name": "B2",
          "midi": 47,
          "time": 45.88671875000003,
          "velocity": 0.25984251968503935,
          "duration": 0.45000000000000284
        },
        {
          "name": "D5",
          "midi": 74,
          "time": 45.89687500000003,
          "velocity": 0.30708661417322836,
          "duration": 0.4507812499999986
        },
        {
          "name": "B1",
          "midi": 35,
          "time": 45.89687500000003,
          "velocity": 0.2283464566929134,
          "duration": 0.4507812499999986
        },
        {
          "name": "E5",
          "midi": 76,
          "time": 46.329687500000034,
          "velocity": 0.4094488188976378,
          "duration": 0.4507812499999986
        },
        {
          "name": "B4",
          "midi": 71,
          "time": 46.49062500000003,
          "velocity": 0.33858267716535434,
          "duration": 0.45000000000000284
        },
        {
          "name": "F#4",
          "midi": 66,
          "time": 46.63906250000003,
          "velocity": 0.3464566929133858,
          "duration": 0.45000000000000284
        },
        {
          "name": "D#3",
          "midi": 51,
          "time": 46.78750000000003,
          "velocity": 0.30708661417322836,
          "duration": 0.44921875
        },
        {
          "name": "D#2",
          "midi": 39,
          "time": 46.79375000000003,
          "velocity": 0.29133858267716534,
          "duration": 0.44921875
        },
        {
          "name": "F#4",
          "midi": 66,
          "time": 46.80000000000003,
          "velocity": 0.3858267716535433,
          "duration": 0.44921875
        },
        {
          "name": "B4",
          "midi": 71,
          "time": 46.941406250000036,
          "velocity": 0.2992125984251969,
          "duration": 0.4492187499999929
        },
        {
          "name": "B4",
          "midi": 71,
          "time": 47.08906250000003,
          "velocity": 0.3228346456692913,
          "duration": 0.44843749999999005
        },
        {
          "name": "F#5",
          "midi": 78,
          "time": 47.23750000000003,
          "velocity": 0.4409448818897638,
          "duration": 0.4492187499999858
        },
        {
          "name": "F#5",
          "midi": 78,
          "time": 47.38359375000003,
          "velocity": 0.3779527559055118,
          "duration": 0.4492187499999929
        },
        {
          "name": "B5",
          "midi": 83,
          "time": 47.534375000000026,
          "velocity": 0.3779527559055118,
          "duration": 0.44999999999999574
        },
        {
          "name": "D#2",
          "midi": 39,
          "time": 47.68359375000002,
          "velocity": 0.2755905511811024,
          "duration": 0.45000000000000284
        },
        {
          "name": "D#3",
          "midi": 51,
          "time": 47.68515625000002,
          "velocity": 0.3779527559055118,
          "duration": 0.45000000000000284
        },
        {
          "name": "F#5",
          "midi": 78,
          "time": 47.69531250000002,
          "velocity": 0.4566929133858268,
          "duration": 0.45000000000000284
        },
        {
          "name": "F#5",
          "midi": 78,
          "time": 48.143750000000026,
          "velocity": 0.36220472440944884,
          "duration": 0.45000000000000284
        },
        {
          "name": "E5",
          "midi": 76,
          "time": 48.289843750000024,
          "velocity": 0.36220472440944884,
          "duration": 0.45000000000000284
        },
        {
          "name": "F#5",
          "midi": 78,
          "time": 48.446093750000024,
          "velocity": 0.2755905511811024,
          "duration": 0.45000000000000284
        },
        {
          "name": "E2",
          "midi": 40,
          "time": 48.577343750000026,
          "velocity": 0.3228346456692913,
          "duration": 0.45000000000000284
        },
        {
          "name": "E3",
          "midi": 52,
          "time": 48.58984375000003,
          "velocity": 0.29133858267716534,
          "duration": 0.45000000000000284
        },
        {
          "name": "G4",
          "midi": 67,
          "time": 48.59062500000003,
          "velocity": 0.2677165354330709,
          "duration": 0.45000000000000284
        },
        {
          "name": "E5",
          "midi": 76,
          "time": 48.73828125000003,
          "velocity": 0.31496062992125984,
          "duration": 0.45000000000000995
        },
        {
          "name": "E5",
          "midi": 76,
          "time": 48.89296875000003,
          "velocity": 0.48031496062992124,
          "duration": 0.45000000000000995
        },
        {
          "name": "B5",
          "midi": 83,
          "time": 49.042968750000036,
          "velocity": 0.48031496062992124,
          "duration": 0.4507812500000057
        },
        {
          "name": "B5",
          "midi": 83,
          "time": 49.18593750000004,
          "velocity": 0.4409448818897638,
          "duration": 0.4507812500000057
        },
        {
          "name": "D6",
          "midi": 86,
          "time": 49.33906250000004,
          "velocity": 0.5118110236220472,
          "duration": 0.4507812500000057
        },
        {
          "name": "C#2",
          "midi": 37,
          "time": 49.47890625000004,
          "velocity": 0.2677165354330709,
          "duration": 0.45000000000000995
        },
        {
          "name": "A4",
          "midi": 69,
          "time": 49.49140625000004,
          "velocity": 0.3858267716535433,
          "duration": 0.45000000000000995
        },
        {
          "name": "C#3",
          "midi": 49,
          "time": 49.49375000000004,
          "velocity": 0.33070866141732286,
          "duration": 0.45000000000000995
        },
        {
          "name": "E5",
          "midi": 76,
          "time": 49.63437500000004,
          "velocity": 0.31496062992125984,
          "duration": 0.4492187500000142
        },
        {
          "name": "E5",
          "midi": 76,
          "time": 49.78515625000004,
          "velocity": 0.3700787401574803,
          "duration": 0.4492187500000142
        },
        {
          "name": "A5",
          "midi": 81,
          "time": 49.948437500000054,
          "velocity": 0.4409448818897638,
          "duration": 0.45000000000000995
        },
        {
          "name": "A5",
          "midi": 81,
          "time": 50.083593750000055,
          "velocity": 0.3779527559055118,
          "duration": 0.45000000000000284
        },
        {
          "name": "C#6",
          "midi": 85,
          "time": 50.23906250000006,
          "velocity": 0.4251968503937008,
          "duration": 0.44999999999999574
        },
        {
          "name": "D2",
          "midi": 38,
          "time": 50.38203125000006,
          "velocity": 0.25984251968503935,
          "duration": 0.44999999999999574
        },
        {
          "name": "F#4",
          "midi": 66,
          "time": 50.38437500000006,
          "velocity": 0.4251968503937008,
          "duration": 0.44999999999999574
        },
        {
          "name": "D3",
          "midi": 50,
          "time": 50.39218750000006,
          "velocity": 0.25984251968503935,
          "duration": 0.44999999999999574
        },
        {
          "name": "D5",
          "midi": 74,
          "time": 50.53046875000006,
          "velocity": 0.2755905511811024,
          "duration": 0.44999999999999574
        },
        {
          "name": "A5",
          "midi": 81,
          "time": 50.68359375000006,
          "velocity": 0.4015748031496063,
          "duration": 0.45000000000000284
        },
        {
          "name": "G5",
          "midi": 79,
          "time": 50.85000000000006,
          "velocity": 0.4645669291338583,
          "duration": 0.4492187500000071
        },
        {
          "name": "F#5",
          "midi": 78,
          "time": 50.99453125000006,
          "velocity": 0.4094488188976378,
          "duration": 0.45000000000000995
        },
        {
          "name": "E5",
          "midi": 76,
          "time": 51.13437500000006,
          "velocity": 0.36220472440944884,
          "duration": 0.45000000000000284
        },
        {
          "name": "D5",
          "midi": 74,
          "time": 51.273437500000064,
          "velocity": 0.3228346456692913,
          "duration": 0.45000000000000284
        },
        {
          "name": "D5",
          "midi": 74,
          "time": 51.728906250000065,
          "velocity": 0.3937007874015748,
          "duration": 0.45000000000000284
        },
        {
          "name": "E5",
          "midi": 76,
          "time": 52.18515625000007,
          "velocity": 0.47244094488188976,
          "duration": 0.45000000000000284
        },
        {
          "name": "C#3",
          "midi": 49,
          "time": 52.18671875000007,
          "velocity": 0.4015748031496063,
          "duration": 0.45000000000000284
        },
        {
          "name": "F#3",
          "midi": 54,
          "time": 52.33203125000007,
          "velocity": 0.29133858267716534,
          "duration": 0.44921875
        },
        {
          "name": "C#4",
          "midi": 61,
          "time": 52.49843750000007,
          "velocity": 0.29133858267716534,
          "duration": 0.44921875
        },
        {
          "name": "E5",
          "midi": 76,
          "time": 52.63671875000007,
          "velocity": 0.5118110236220472,
          "duration": 0.4492187500000071
        },
        {
          "name": "F#2",
          "midi": 42,
          "time": 52.63671875000007,
          "velocity": 0.2677165354330709,
          "duration": 0.4492187500000071
        },
        {
          "name": "D5",
          "midi": 74,
          "time": 52.77656250000007,
          "velocity": 0.4015748031496063,
          "duration": 0.4492187500000071
        },
        {
          "name": "C#3",
          "midi": 49,
          "time": 52.78906250000007,
          "velocity": 0.2440944881889764,
          "duration": 0.4492187500000071
        },
        {
          "name": "F#3",
          "midi": 54,
          "time": 52.93203125000007,
          "velocity": 0.31496062992125984,
          "duration": 0.4492187500000071
        },
        {
          "name": "C#5",
          "midi": 73,
          "time": 52.93203125000007,
          "velocity": 0.4015748031496063,
          "duration": 0.4492187500000071
        },
        {
          "name": "D5",
          "midi": 74,
          "time": 52.969531250000074,
          "velocity": 0.3464566929133858,
          "duration": 0.44843750000000426
        },
        {
          "name": "C#5",
          "midi": 73,
          "time": 53.010937500000075,
          "velocity": 0.3228346456692913,
          "duration": 0.44843750000000426
        },
        {
          "name": "A#4",
          "midi": 70,
          "time": 53.081250000000075,
          "velocity": 0.44881889763779526,
          "duration": 0.44843750000000426
        },
        {
          "name": "C#3",
          "midi": 49,
          "time": 53.08984375000008,
          "velocity": 0.33070866141732286,
          "duration": 0.44843750000000426
        },
        {
          "name": "A#3",
          "midi": 58,
          "time": 53.23203125000008,
          "velocity": 0.4251968503937008,
          "duration": 0.4492187500000071
        },
        {
          "name": "F#3",
          "midi": 54,
          "time": 53.38906250000008,
          "velocity": 0.4015748031496063,
          "duration": 0.4492187500000071
        },
        {
          "name": "F#2",
          "midi": 42,
          "time": 53.53203125000008,
          "velocity": 0.47244094488188976,
          "duration": 0.45000000000000995
        },
        {
          "name": "F#4",
          "midi": 66,
          "time": 53.536718750000084,
          "velocity": 0.36220472440944884,
          "duration": 0.45000000000000995
        },
        {
          "name": "B2",
          "midi": 47,
          "time": 53.97343750000009,
          "velocity": 0.33070866141732286,
          "duration": 0.45000000000000284
        },
        {
          "name": "F#5",
          "midi": 78,
          "time": 53.99375000000009,
          "velocity": 0.4015748031496063,
          "duration": 0.45000000000000284
        },
        {
          "name": "F#3",
          "midi": 54,
          "time": 54.12187500000009,
          "velocity": 0.4015748031496063,
          "duration": 0.45000000000000284
        },
        {
          "name": "B3",
          "midi": 59,
          "time": 54.28984375000009,
          "velocity": 0.2677165354330709,
          "duration": 0.44921875
        },
        {
          "name": "F#2",
          "midi": 42,
          "time": 54.428125000000094,
          "velocity": 0.4566929133858268,
          "duration": 0.4492187499999929
        },
        {
          "name": "B4",
          "midi": 71,
          "time": 54.438281250000095,
          "velocity": 0.5118110236220472,
          "duration": 0.4492187499999929
        },
        {
          "name": "F#3",
          "midi": 54,
          "time": 54.57578125000009,
          "velocity": 0.3464566929133858,
          "duration": 0.44921875
        },
        {
          "name": "F#4",
          "midi": 66,
          "time": 54.72734375000009,
          "velocity": 0.2992125984251969,
          "duration": 0.44921875
        },
        {
          "name": "B3",
          "midi": 59,
          "time": 54.73203125000009,
          "velocity": 0.3464566929133858,
          "duration": 0.45000000000000284
        },
        {
          "name": "B2",
          "midi": 47,
          "time": 54.88906250000009,
          "velocity": 0.3228346456692913,
          "duration": 0.45000000000000284
        },
        {
          "name": "B4",
          "midi": 71,
          "time": 54.89531250000009,
          "velocity": 0.3779527559055118,
          "duration": 0.45000000000000284
        },
        {
          "name": "F#4",
          "midi": 66,
          "time": 55.03046875000009,
          "velocity": 0.4251968503937008,
          "duration": 0.45000000000000284
        },
        {
          "name": "C#5",
          "midi": 73,
          "time": 55.18125000000009,
          "velocity": 0.29133858267716534,
          "duration": 0.45000000000000284
        },
        {
          "name": "B3",
          "midi": 59,
          "time": 55.32187500000009,
          "velocity": 0.29133858267716534,
          "duration": 0.45000000000000284
        },
        {
          "name": "F#4",
          "midi": 66,
          "time": 55.33125000000009,
          "velocity": 0.33070866141732286,
          "duration": 0.45000000000000995
        },
        {
          "name": "D4",
          "midi": 62,
          "time": 55.33671875000009,
          "velocity": 0.29133858267716534,
          "duration": 0.45000000000000995
        },
        {
          "name": "D5",
          "midi": 74,
          "time": 55.486718750000094,
          "velocity": 0.4645669291338583,
          "duration": 0.4492187500000071
        },
        {
          "name": "F#4",
          "midi": 66,
          "time": 55.625781250000095,
          "velocity": 0.25196850393700787,
          "duration": 0.4492187500000071
        },
        {
          "name": "E3",
          "midi": 52,
          "time": 55.7765625000001,
          "velocity": 0.3228346456692913,
          "duration": 0.4492187500000071
        },
        {
          "name": "E5",
          "midi": 76,
          "time": 55.7890625000001,
          "velocity": 0.4251968503937008,
          "duration": 0.45000000000000995
        },
        {
          "name": "E5",
          "midi": 76,
          "time": 56.225781250000104,
          "velocity": 0.4330708661417323,
          "duration": 0.45000000000000284
        },
        {
          "name": "A#3",
          "midi": 58,
          "time": 56.22656250000011,
          "velocity": 0.2440944881889764,
          "duration": 0.45000000000000284
        },
        {
          "name": "C#4",
          "midi": 61,
          "time": 56.23281250000011,
          "velocity": 0.3543307086614173,
          "duration": 0.44999999999999574
        },
        {
          "name": "D5",
          "midi": 74,
          "time": 56.38515625000011,
          "velocity": 0.30708661417322836,
          "duration": 0.44999999999999574
        },
        {
          "name": "C#5",
          "midi": 73,
          "time": 56.53984375000011,
          "velocity": 0.3937007874015748,
          "duration": 0.44999999999999574
        },
        {
          "name": "A#4",
          "midi": 70,
          "time": 56.66875000000011,
          "velocity": 0.3464566929133858,
          "duration": 0.44999999999999574
        },
        {
          "name": "A#2",
          "midi": 46,
          "time": 56.67968750000011,
          "velocity": 0.4409448818897638,
          "duration": 0.44999999999999574
        },
        {
          "name": "A#3",
          "midi": 58,
          "time": 57.134375000000105,
          "velocity": 0.33070866141732286,
          "duration": 0.44921875
        },
        {
          "name": "F#4",
          "midi": 66,
          "time": 57.13515625000011,
          "velocity": 0.31496062992125984,
          "duration": 0.44921875
        },
        {
          "name": "F#3",
          "midi": 54,
          "time": 57.13671875000011,
          "velocity": 0.3464566929133858,
          "duration": 0.44921875
        },
        {
          "name": "B2",
          "midi": 47,
          "time": 57.581250000000104,
          "velocity": 0.4094488188976378,
          "duration": 0.45000000000000284
        },
        {
          "name": "B4",
          "midi": 71,
          "time": 57.591406250000105,
          "velocity": 0.3228346456692913,
          "duration": 0.4507812499999986
        },
        {
          "name": "E3",
          "midi": 52,
          "time": 57.73281250000011,
          "velocity": 0.3937007874015748,
          "duration": 0.4507812499999986
        },
        {
          "name": "F#3",
          "midi": 54,
          "time": 57.88515625000011,
          "velocity": 0.29133858267716534,
          "duration": 0.45000000000000284
        },
        {
          "name": "B2",
          "midi": 47,
          "time": 58.03906250000011,
          "velocity": 0.33858267716535434,
          "duration": 0.45000000000000284
        },
        {
          "name": "D3",
          "midi": 50,
          "time": 58.178906250000104,
          "velocity": 0.41732283464566927,
          "duration": 0.4492187500000071
        },
        {
          "name": "F#3",
          "midi": 54,
          "time": 58.32656250000011,
          "velocity": 0.2755905511811024,
          "duration": 0.44921875
        },
        {
          "name": "B2",
          "midi": 47,
          "time": 58.47500000000011,
          "velocity": 0.28346456692913385,
          "duration": 0.44921875
        },
        {
          "name": "B3",
          "midi": 59,
          "time": 58.76796875000011,
          "velocity": 0.2755905511811024,
          "duration": 0.45000000000000284
        },
        {
          "name": "B5",
          "midi": 83,
          "time": 58.92421875000011,
          "velocity": 0.5118110236220472,
          "duration": 0.44921875
        },
        {
          "name": "C#4",
          "midi": 61,
          "time": 58.92890625000011,
          "velocity": 0.36220472440944884,
          "duration": 0.44921875
        },
        {
          "name": "D4",
          "midi": 62,
          "time": 59.07187500000011,
          "velocity": 0.3700787401574803,
          "duration": 0.44921875
        },
        {
          "name": "A5",
          "midi": 81,
          "time": 59.07343750000011,
          "velocity": 0.4330708661417323,
          "duration": 0.44921875
        },
        {
          "name": "F#5",
          "midi": 78,
          "time": 59.21796875000011,
          "velocity": 0.3858267716535433,
          "duration": 0.45000000000000284
        },
        {
          "name": "F#4",
          "midi": 66,
          "time": 59.22500000000011,
          "velocity": 0.30708661417322836,
          "duration": 0.45000000000000284
        },
        {
          "name": "E4",
          "midi": 64,
          "time": 59.36796875000011,
          "velocity": 0.41732283464566927,
          "duration": 0.45000000000000284
        },
        {
          "name": "G5",
          "midi": 79,
          "time": 59.382812500000114,
          "velocity": 0.4015748031496063,
          "duration": 0.45000000000000284
        },
        {
          "name": "G4",
          "midi": 67,
          "time": 59.531250000000114,
          "velocity": 0.2677165354330709,
          "duration": 0.44921875
        },
        {
          "name": "B4",
          "midi": 71,
          "time": 59.68125000000011,
          "velocity": 0.2283464566929134,
          "duration": 0.4476562500000014
        },
        {
          "name": "F#5",
          "midi": 78,
          "time": 59.820312500000114,
          "velocity": 0.3700787401574803,
          "duration": 0.44843749999999716
        },
        {
          "name": "D4",
          "midi": 62,
          "time": 59.826562500000115,
          "velocity": 0.3700787401574803,
          "duration": 0.44843749999999716
        },
        {
          "name": "G5",
          "midi": 79,
          "time": 59.982812500000115,
          "velocity": 0.4330708661417323,
          "duration": 0.4492187499999929
        },
        {
          "name": "G4",
          "midi": 67,
          "time": 59.988281250000114,
          "velocity": 0.3858267716535433,
          "duration": 0.4492187499999929
        },
        {
          "name": "B5",
          "midi": 83,
          "time": 60.12187500000012,
          "velocity": 0.3464566929133858,
          "duration": 0.4492187499999929
        },
        {
          "name": "B4",
          "midi": 71,
          "time": 60.128906250000114,
          "velocity": 0.31496062992125984,
          "duration": 0.4492187499999929
        },
        {
          "name": "C#6",
          "midi": 85,
          "time": 60.27500000000011,
          "velocity": 0.49606299212598426,
          "duration": 0.4492187499999929
        },
        {
          "name": "C#4",
          "midi": 61,
          "time": 60.28203125000011,
          "velocity": 0.3779527559055118,
          "duration": 0.44921875
        },
        {
          "name": "E4",
          "midi": 64,
          "time": 60.42812500000011,
          "velocity": 0.25196850393700787,
          "duration": 0.45000000000000284
        },
        {
          "name": "A4",
          "midi": 69,
          "time": 60.579687500000105,
          "velocity": 0.3464566929133858,
          "duration": 0.4507812500000057
        },
        {
          "name": "A5",
          "midi": 81,
          "time": 60.72890625000011,
          "velocity": 0.4015748031496063,
          "duration": 0.4507812500000057
        },
        {
          "name": "A3",
          "midi": 57,
          "time": 60.73281250000011,
          "velocity": 0.4251968503937008,
          "duration": 0.4507812500000057
        },
        {
          "name": "C#4",
          "midi": 61,
          "time": 60.87421875000011,
          "velocity": 0.3858267716535433,
          "duration": 0.4507812500000057
        },
        {
          "name": "E4",
          "midi": 64,
          "time": 61.02187500000011,
          "velocity": 0.23622047244094488,
          "duration": 0.4507812500000057
        },
        {
          "name": "F#5",
          "midi": 78,
          "time": 61.17343750000011,
          "velocity": 0.4015748031496063,
          "duration": 0.4507812499999986
        },
        {
          "name": "D4",
          "midi": 62,
          "time": 61.178125000000115,
          "velocity": 0.25984251968503935,
          "duration": 0.4507812499999986
        },
        {
          "name": "F#4",
          "midi": 66,
          "time": 61.33281250000012,
          "velocity": 0.31496062992125984,
          "duration": 0.45000000000000284
        },
        {
          "name": "A4",
          "midi": 69,
          "time": 61.47578125000011,
          "velocity": 0.25984251968503935,
          "duration": 0.45000000000000284
        },
        {
          "name": "C#4",
          "midi": 61,
          "time": 61.62343750000011,
          "velocity": 0.30708661417322836,
          "duration": 0.4492187500000071
        },
        {
          "name": "F#5",
          "midi": 78,
          "time": 61.62421875000011,
          "velocity": 0.3543307086614173,
          "duration": 0.45000000000000284
        },
        {
          "name": "F#4",
          "midi": 66,
          "time": 61.78203125000012,
          "velocity": 0.2992125984251969,
          "duration": 0.45000000000000284
        },
        {
          "name": "G5",
          "midi": 79,
          "time": 61.78593750000012,
          "velocity": 0.30708661417322836,
          "duration": 0.45000000000000284
        },
        {
          "name": "A5",
          "midi": 81,
          "time": 61.928125000000115,
          "velocity": 0.3937007874015748,
          "duration": 0.4492187500000071
        },
        {
          "name": "A4",
          "midi": 69,
          "time": 61.928125000000115,
          "velocity": 0.33070866141732286,
          "duration": 0.4492187500000071
        },
        {
          "name": "B3",
          "midi": 59,
          "time": 62.068750000000115,
          "velocity": 0.3937007874015748,
          "duration": 0.4492187500000071
        },
        {
          "name": "B5",
          "midi": 83,
          "time": 62.08671875000012,
          "velocity": 0.4566929133858268,
          "duration": 0.4492187500000071
        },
        {
          "name": "D4",
          "midi": 62,
          "time": 62.24062500000012,
          "velocity": 0.36220472440944884,
          "duration": 0.44921875
        },
        {
          "name": "F#4",
          "midi": 66,
          "time": 62.37343750000012,
          "velocity": 0.2755905511811024,
          "duration": 0.44921875
        },
        {
          "name": "F#5",
          "midi": 78,
          "time": 62.51796875000012,
          "velocity": 0.2677165354330709,
          "duration": 0.45000000000000284
        },
        {
          "name": "F#3",
          "midi": 54,
          "time": 62.53515625000012,
          "velocity": 0.3543307086614173,
          "duration": 0.45000000000000284
        },
        {
          "name": "B3",
          "midi": 59,
          "time": 62.67421875000012,
          "velocity": 0.25984251968503935,
          "duration": 0.45000000000000284
        },
        {
          "name": "D4",
          "midi": 62,
          "time": 62.819531250000125,
          "velocity": 0.30708661417322836,
          "duration": 0.45000000000000284
        },
        {
          "name": "G#3",
          "midi": 56,
          "time": 62.981250000000124,
          "velocity": 0.3464566929133858,
          "duration": 0.4492187500000071
        },
        {
          "name": "E5",
          "midi": 76,
          "time": 62.98437500000012,
          "velocity": 0.4094488188976378,
          "duration": 0.4492187500000142
        },
        {
          "name": "B3",
          "midi": 59,
          "time": 63.12343750000012,
          "velocity": 0.3779527559055118,
          "duration": 0.4492187500000142
        },
        {
          "name": "E4",
          "midi": 64,
          "time": 63.26953125000013,
          "velocity": 0.3464566929133858,
          "duration": 0.4492187500000071
        },
        {
          "name": "E5",
          "midi": 76,
          "time": 63.42578125000013,
          "velocity": 0.2755905511811024,
          "duration": 0.4492187500000071
        },
        {
          "name": "G#3",
          "midi": 56,
          "time": 63.43281250000013,
          "velocity": 0.30708661417322836,
          "duration": 0.4492187500000071
        },
        {
          "name": "G5",
          "midi": 79,
          "time": 63.57343750000014,
          "velocity": 0.2992125984251969,
          "duration": 0.44921875
        },
        {
          "name": "B3",
          "midi": 59,
          "time": 63.58281250000014,
          "velocity": 0.2992125984251969,
          "duration": 0.4492187500000071
        },
        {
          "name": "F#5",
          "midi": 78,
          "time": 63.721093750000136,
          "velocity": 0.3543307086614173,
          "duration": 0.4492187500000142
        },
        {
          "name": "D4",
          "midi": 62,
          "time": 63.736718750000136,
          "velocity": 0.2755905511811024,
          "duration": 0.4492187500000142
        },
        {
          "name": "A#3",
          "midi": 58,
          "time": 63.86796875000014,
          "velocity": 0.3228346456692913,
          "duration": 0.4492187500000071
        },
        {
          "name": "E5",
          "midi": 76,
          "time": 63.87578125000014,
          "velocity": 0.49606299212598426,
          "duration": 0.4492187500000071
        },
        {
          "name": "C#4",
          "midi": 61,
          "time": 64.01875000000014,
          "velocity": 0.33858267716535434,
          "duration": 0.45000000000001705
        },
        {
          "name": "F#4",
          "midi": 66,
          "time": 64.17578125000016,
          "velocity": 0.33858267716535434,
          "duration": 0.45000000000000284
        },
        {
          "name": "F#3",
          "midi": 54,
          "time": 64.32031250000014,
          "velocity": 0.2992125984251969,
          "duration": 0.4507812500000199
        },
        {
          "name": "C#5",
          "midi": 73,
          "time": 64.32656250000015,
          "velocity": 0.3464566929133858,
          "duration": 0.4507812500000199
        },
        {
          "name": "C#4",
          "midi": 61,
          "time": 64.47343750000016,
          "velocity": 0.31496062992125984,
          "duration": 0.4515625000000085
        },
        {
          "name": "F#4",
          "midi": 66,
          "time": 64.62656250000016,
          "velocity": 0.2755905511811024,
          "duration": 0.4507812500000057
        },
        {
          "name": "B3",
          "midi": 59,
          "time": 64.77031250000016,
          "velocity": 0.49606299212598426,
          "duration": 0.4507812500000057
        },
        {
          "name": "D5",
          "midi": 74,
          "time": 64.77187500000016,
          "velocity": 0.41732283464566927,
          "duration": 0.45000000000000284
        },
        {
          "name": "B2",
          "midi": 47,
          "time": 64.78515625000017,
          "velocity": 0.3464566929133858,
          "duration": 0.44921875
        },
        {
          "name": "B4",
          "midi": 71,
          "time": 64.78750000000016,
          "velocity": 0.3700787401574803,
          "duration": 0.45000000000001705
        },
        {
          "name": "F#4",
          "midi": 66,
          "time": 64.93046875000017,
          "velocity": 0.2755905511811024,
          "duration": 0.4492187500000142
        },
        {
          "name": "F#4",
          "midi": 66,
          "time": 65.07109375000017,
          "velocity": 0.2755905511811024,
          "duration": 0.4492187500000142
        },
        {
          "name": "C#4",
          "midi": 61,
          "time": 65.22500000000016,
          "velocity": 0.4251968503937008,
          "duration": 0.4492187500000284
        },
        {
          "name": "C#5",
          "midi": 73,
          "time": 65.23281250000016,
          "velocity": 0.28346456692913385,
          "duration": 0.4492187500000284
        },
        {
          "name": "E5",
          "midi": 76,
          "time": 65.23593750000018,
          "velocity": 0.3700787401574803,
          "duration": 0.4492187500000142
        },
        {
          "name": "F#4",
          "midi": 66,
          "time": 65.38671875000018,
          "velocity": 0.3543307086614173,
          "duration": 0.44921875
        },
        {
          "name": "F#4",
          "midi": 66,
          "time": 65.5218750000002,
          "velocity": 0.2992125984251969,
          "duration": 0.44999999999998863
        },
        {
          "name": "D4",
          "midi": 62,
          "time": 65.6742187500002,
          "velocity": 0.3228346456692913,
          "duration": 0.44999999999998863
        },
        {
          "name": "F#5",
          "midi": 78,
          "time": 65.6789062500002,
          "velocity": 0.49606299212598426,
          "duration": 0.44999999999998863
        },
        {
          "name": "D5",
          "midi": 74,
          "time": 65.6789062500002,
          "velocity": 0.33858267716535434,
          "duration": 0.44999999999998863
        },
        {
          "name": "F#4",
          "midi": 66,
          "time": 65.82812500000018,
          "velocity": 0.23622047244094488,
          "duration": 0.44921875
        },
        {
          "name": "F#4",
          "midi": 66,
          "time": 65.97656250000018,
          "velocity": 0.29133858267716534,
          "duration": 0.44921875
        },
        {
          "name": "B5",
          "midi": 83,
          "time": 66.11796875000019,
          "velocity": 0.3937007874015748,
          "duration": 0.44921875
        },
        {
          "name": "F#3",
          "midi": 54,
          "time": 66.13203125000018,
          "velocity": 0.3543307086614173,
          "duration": 0.45000000000000284
        },
        {
          "name": "A5",
          "midi": 81,
          "time": 66.27031250000019,
          "velocity": 0.3228346456692913,
          "duration": 0.44999999999998863
        },
        {
          "name": "E3",
          "midi": 52,
          "time": 66.27265625000018,
          "velocity": 0.4094488188976378,
          "duration": 0.44999999999998863
        },
        {
          "name": "D3",
          "midi": 50,
          "time": 66.43046875000019,
          "velocity": 0.33858267716535434,
          "duration": 0.44999999999998863
        },
        {
          "name": "F#5",
          "midi": 78,
          "time": 66.43125000000019,
          "velocity": 0.3464566929133858,
          "duration": 0.44999999999998863
        },
        {
          "name": "E3",
          "midi": 52,
          "time": 66.57734375000018,
          "velocity": 0.2992125984251969,
          "duration": 0.45000000000000284
        },
        {
          "name": "G5",
          "midi": 79,
          "time": 66.58437500000018,
          "velocity": 0.4645669291338583,
          "duration": 0.45000000000000284
        },
        {
          "name": "G3",
          "midi": 55,
          "time": 66.71718750000018,
          "velocity": 0.2283464566929134,
          "duration": 0.45000000000000284
        },
        {
          "name": "B3",
          "midi": 59,
          "time": 66.88125000000018,
          "velocity": 0.2755905511811024,
          "duration": 0.4492187500000142
        },
        {
          "name": "F#5",
          "midi": 78,
          "time": 67.02343750000018,
          "velocity": 0.4015748031496063,
          "duration": 0.4492187500000142
        },
        {
          "name": "D3",
          "midi": 50,
          "time": 67.03671875000018,
          "velocity": 0.23622047244094488,
          "duration": 0.45000000000001705
        },
        {
          "name": "G3",
          "midi": 55,
          "time": 67.17578125000018,
          "velocity": 0.33070866141732286,
          "duration": 0.4507812500000057
        },
        {
          "name": "G5",
          "midi": 79,
          "time": 67.17578125000018,
          "velocity": 0.4251968503937008,
          "duration": 0.4507812500000057
        },
        {
          "name": "B3",
          "midi": 59,
          "time": 67.32890625000019,
          "velocity": 0.3700787401574803,
          "duration": 0.4507812500000057
        },
        {
          "name": "B5",
          "midi": 83,
          "time": 67.3382812500002,
          "velocity": 0.30708661417322836,
          "duration": 0.4507812499999915
        },
        {
          "name": "C#3",
          "midi": 49,
          "time": 67.4718750000002,
          "velocity": 0.3543307086614173,
          "duration": 0.4507812499999915
        },
        {
          "name": "C#6",
          "midi": 85,
          "time": 67.4757812500002,
          "velocity": 0.2992125984251969,
          "duration": 0.4507812499999915
        },
        {
          "name": "E3",
          "midi": 52,
          "time": 67.6312500000002,
          "velocity": 0.2440944881889764,
          "duration": 0.4507812499999915
        },
        {
          "name": "A3",
          "midi": 57,
          "time": 67.78203125000019,
          "velocity": 0.3937007874015748,
          "duration": 0.4507812500000057
        },
        {
          "name": "A2",
          "midi": 45,
          "time": 67.92968750000018,
          "velocity": 0.31496062992125984,
          "duration": 0.45000000000001705
        },
        {
          "name": "A5",
          "midi": 81,
          "time": 67.93515625000019,
          "velocity": 0.2992125984251969,
          "duration": 0.45000000000001705
        },
        {
          "name": "C#3",
          "midi": 49,
          "time": 68.08203125000018,
          "velocity": 0.30708661417322836,
          "duration": 0.4507812500000199
        },
        {
          "name": "E3",
          "midi": 52,
          "time": 68.22031250000019,
          "velocity": 0.30708661417322836,
          "duration": 0.4507812500000199
        },
        {
          "name": "F#5",
          "midi": 78,
          "time": 68.3789062500002,
          "velocity": 0.3779527559055118,
          "duration": 0.45000000000000284
        },
        {
          "name": "D3",
          "midi": 50,
          "time": 68.3796875000002,
          "velocity": 0.4409448818897638,
          "duration": 0.45000000000000284
        },
        {
          "name": "F#3",
          "midi": 54,
          "time": 68.5320312500002,
          "velocity": 0.23622047244094488,
          "duration": 0.4492187500000142
        },
        {
          "name": "A3",
          "midi": 57,
          "time": 68.68593750000021,
          "velocity": 0.3228346456692913,
          "duration": 0.4492187500000142
        },
        {
          "name": "C#3",
          "midi": 49,
          "time": 68.8210937500002,
          "velocity": 0.33070866141732286,
          "duration": 0.4492187500000142
        },
        {
          "name": "F#5",
          "midi": 78,
          "time": 68.8257812500002,
          "velocity": 0.47244094488188976,
          "duration": 0.45000000000000284
        },
        {
          "name": "G5",
          "midi": 79,
          "time": 68.97500000000021,
          "velocity": 0.33070866141732286,
          "duration": 0.4507812500000057
        },
        {
          "name": "F#3",
          "midi": 54,
          "time": 68.97656250000021,
          "velocity": 0.3464566929133858,
          "duration": 0.4507812500000057
        },
        {
          "name": "A5",
          "midi": 81,
          "time": 69.12343750000022,
          "velocity": 0.41732283464566927,
          "duration": 0.4507812499999915
        },
        {
          "name": "A3",
          "midi": 57,
          "time": 69.12656250000022,
          "velocity": 0.25984251968503935,
          "duration": 0.4507812499999915
        },
        {
          "name": "B5",
          "midi": 83,
          "time": 69.27265625000021,
          "velocity": 0.33858267716535434,
          "duration": 0.45000000000000284
        },
        {
          "name": "B2",
          "midi": 47,
          "time": 69.27734375000021,
          "velocity": 0.2992125984251969,
          "duration": 0.44921875
        },
        {
          "name": "F#3",
          "midi": 54,
          "time": 69.42031250000021,
          "velocity": 0.25196850393700787,
          "duration": 0.44921875
        },
        {
          "name": "B3",
          "midi": 59,
          "time": 69.58125000000021,
          "velocity": 0.28346456692913385,
          "duration": 0.45000000000000284
        },
        {
          "name": "F#2",
          "midi": 42,
          "time": 69.72265625000021,
          "velocity": 0.2283464566929134,
          "duration": 0.45000000000000284
        },
        {
          "name": "F#5",
          "midi": 78,
          "time": 69.73750000000021,
          "velocity": 0.3543307086614173,
          "duration": 0.4507812500000199
        },
        {
          "name": "B2",
          "midi": 47,
          "time": 69.8804687500002,
          "velocity": 0.28346456692913385,
          "duration": 0.45000000000003126
        },
        {
          "name": "D3",
          "midi": 50,
          "time": 70.02578125000021,
          "velocity": 0.36220472440944884,
          "duration": 0.45000000000003126
        },
        {
          "name": "E5",
          "midi": 76,
          "time": 70.17421875000022,
          "velocity": 0.33858267716535434,
          "duration": 0.45000000000001705
        },
        {
          "name": "G#2",
          "midi": 44,
          "time": 70.17578125000023,
          "velocity": 0.3464566929133858,
          "duration": 0.45000000000001705
        },
        {
          "name": "B2",
          "midi": 47,
          "time": 70.31875000000024,
          "velocity": 0.3543307086614173,
          "duration": 0.4507812500000057
        },
        {
          "name": "E3",
          "midi": 52,
          "time": 70.47890625000024,
          "velocity": 0.30708661417322836,
          "duration": 0.4507812500000057
        },
        {
          "name": "G#2",
          "midi": 44,
          "time": 70.62421875000024,
          "velocity": 0.3779527559055118,
          "duration": 0.45000000000000284
        },
        {
          "name": "E5",
          "midi": 76,
          "time": 70.63828125000025,
          "velocity": 0.33858267716535434,
          "duration": 0.45000000000000284
        },
        {
          "name": "D5",
          "midi": 74,
          "time": 70.77187500000024,
          "velocity": 0.4015748031496063,
          "duration": 0.45000000000001705
        },
        {
          "name": "B2",
          "midi": 47,
          "time": 70.78437500000024,
          "velocity": 0.2125984251968504,
          "duration": 0.45000000000000284
        },
        {
          "name": "E3",
          "midi": 52,
          "time": 70.92109375000024,
          "velocity": 0.2283464566929134,
          "duration": 0.45000000000000284
        },
        {
          "name": "C#5",
          "midi": 73,
          "time": 70.93281250000024,
          "velocity": 0.41732283464566927,
          "duration": 0.45000000000000284
        },
        {
          "name": "A#2",
          "midi": 46,
          "time": 71.07968750000025,
          "velocity": 0.4409448818897638,
          "duration": 0.45000000000000284
        },
        {
          "name": "A#4",
          "midi": 70,
          "time": 71.08359375000025,
          "velocity": 0.3858267716535433,
          "duration": 0.4492187500000142
        },
        {
          "name": "C#3",
          "midi": 49,
          "time": 71.23203125000025,
          "velocity": 0.31496062992125984,
          "duration": 0.4492187500000142
        },
        {
          "name": "F#3",
          "midi": 54,
          "time": 71.38203125000024,
          "velocity": 0.3700787401574803,
          "duration": 0.4492187500000284
        },
        {
          "name": "F#2",
          "midi": 42,
          "time": 71.52500000000025,
          "velocity": 0.4094488188976378,
          "duration": 0.44921875
        },
        {
          "name": "F#4",
          "midi": 66,
          "time": 71.53125000000026,
          "velocity": 0.30708661417322836,
          "duration": 0.4492187499999858
        },
        {
          "name": "A#2",
          "midi": 46,
          "time": 71.67734375000026,
          "velocity": 0.3700787401574803,
          "duration": 0.4492187499999858
        },
        {
          "name": "C#3",
          "midi": 49,
          "time": 71.83828125000026,
          "velocity": 0.23622047244094488,
          "duration": 0.44999999999998863
        },
        {
          "name": "B1",
          "midi": 35,
          "time": 71.96171875000026,
          "velocity": 0.3228346456692913,
          "duration": 0.44999999999998863
        },
        {
          "name": "B2",
          "midi": 47,
          "time": 71.96406250000025,
          "velocity": 0.3937007874015748,
          "duration": 0.44999999999998863
        },
        {
          "name": "B5",
          "midi": 83,
          "time": 71.97187500000025,
          "velocity": 0.4015748031496063,
          "duration": 0.44999999999998863
        },
        {
          "name": "B4",
          "midi": 71,
          "time": 72.12734375000025,
          "velocity": 0.3228346456692913,
          "duration": 0.4507812499999915
        },
        {
          "name": "B4",
          "midi": 71,
          "time": 72.27187500000025,
          "velocity": 0.2677165354330709,
          "duration": 0.45000000000000284
        },
        {
          "name": "B4",
          "midi": 71,
          "time": 72.56562500000024,
          "velocity": 0.3937007874015748,
          "duration": 0.4492187500000142
        },
        {
          "name": "B4",
          "midi": 71,
          "time": 72.72031250000025,
          "velocity": 0.31496062992125984,
          "duration": 0.45000000000000284
        },
        {
          "name": "B4",
          "midi": 71,
          "time": 73.03281250000025,
          "velocity": 0.25984251968503935,
          "duration": 0.4507812499999915
        },
        {
          "name": "B4",
          "midi": 71,
          "time": 73.18828125000024,
          "velocity": 0.29133858267716534,
          "duration": 0.4507812499999915
        },
        {
          "name": "B4",
          "midi": 71,
          "time": 73.46562500000024,
          "velocity": 0.4566929133858268,
          "duration": 0.4507812499999915
        },
        {
          "name": "B4",
          "midi": 71,
          "time": 73.63125000000024,
          "velocity": 0.25196850393700787,
          "duration": 0.45000000000000284
        },
        {
          "name": "B2",
          "midi": 47,
          "time": 73.77187500000024,
          "velocity": 0.2755905511811024,
          "duration": 0.45000000000000284
        },
        {
          "name": "G5",
          "midi": 79,
          "time": 73.77578125000024,
          "velocity": 0.3543307086614173,
          "duration": 0.45000000000000284
        },
        {
          "name": "C#3",
          "midi": 49,
          "time": 73.92109375000024,
          "velocity": 0.31496062992125984,
          "duration": 0.4507812500000057
        },
        {
          "name": "B4",
          "midi": 71,
          "time": 73.92578125000024,
          "velocity": 0.29133858267716534,
          "duration": 0.4507812500000057
        },
        {
          "name": "B4",
          "midi": 71,
          "time": 74.07265625000024,
          "velocity": 0.25196850393700787,
          "duration": 0.4507812500000057
        },
        {
          "name": "D3",
          "midi": 50,
          "time": 74.08203125000024,
          "velocity": 0.2440944881889764,
          "duration": 0.4507812499999915
        },
        {
          "name": "E3",
          "midi": 52,
          "time": 74.36796875000024,
          "velocity": 0.28346456692913385,
          "duration": 0.44999999999998863
        },
        {
          "name": "B4",
          "midi": 71,
          "time": 74.37968750000024,
          "velocity": 0.28346456692913385,
          "duration": 0.44999999999998863
        },
        {
          "name": "C#3",
          "midi": 49,
          "time": 74.52031250000024,
          "velocity": 0.2677165354330709,
          "duration": 0.44999999999998863
        },
        {
          "name": "B4",
          "midi": 71,
          "time": 74.52578125000024,
          "velocity": 0.23622047244094488,
          "duration": 0.45000000000000284
        },
        {
          "name": "F#5",
          "midi": 78,
          "time": 74.67265625000023,
          "velocity": 0.44881889763779526,
          "duration": 0.45000000000000284
        },
        {
          "name": "A#2",
          "midi": 46,
          "time": 74.67656250000023,
          "velocity": 0.3228346456692913,
          "duration": 0.45000000000000284
        },
        {
          "name": "A#4",
          "midi": 70,
          "time": 74.82812500000023,
          "velocity": 0.2755905511811024,
          "duration": 0.45000000000000284
        },
        {
          "name": "A#4",
          "midi": 70,
          "time": 74.97968750000024,
          "velocity": 0.29133858267716534,
          "duration": 0.44999999999998863
        },
        {
          "name": "F#2",
          "midi": 42,
          "time": 75.13046875000023,
          "velocity": 0.31496062992125984,
          "duration": 0.4507812499999915
        },
        {
          "name": "A#4",
          "midi": 70,
          "time": 75.28125000000023,
          "velocity": 0.36220472440944884,
          "duration": 0.4507812499999915
        },
        {
          "name": "A#4",
          "midi": 70,
          "time": 75.42500000000022,
          "velocity": 0.25196850393700787,
          "duration": 0.4507812499999915
        },
        {
          "name": "B2",
          "midi": 47,
          "time": 75.57187500000023,
          "velocity": 0.3700787401574803,
          "duration": 0.45078124999997726
        },
        {
          "name": "B1",
          "midi": 35,
          "time": 75.57578125000023,
          "velocity": 0.28346456692913385,
          "duration": 0.45078124999997726
        },
        {
          "name": "B5",
          "midi": 83,
          "time": 75.57812500000023,
          "velocity": 0.4409448818897638,
          "duration": 0.45078124999997726
        },
        {
          "name": "B4",
          "midi": 71,
          "time": 75.72968750000022,
          "velocity": 0.2992125984251969,
          "duration": 0.4507812499999915
        },
        {
          "name": "B4",
          "midi": 71,
          "time": 75.87812500000021,
          "velocity": 0.30708661417322836,
          "duration": 0.45000000000000284
        },
        {
          "name": "B4",
          "midi": 71,
          "time": 76.17890625000021,
          "velocity": 0.3779527559055118,
          "duration": 0.45000000000000284
        },
        {
          "name": "D6",
          "midi": 86,
          "time": 76.33125000000021,
          "velocity": 0.49606299212598426,
          "duration": 0.4507812500000057
        },
        {
          "name": "B4",
          "midi": 71,
          "time": 76.33281250000022,
          "velocity": 0.28346456692913385,
          "duration": 0.4507812500000057
        },
        {
          "name": "B5",
          "midi": 83,
          "time": 76.48125000000022,
          "velocity": 0.4251968503937008,
          "duration": 0.45000000000000284
        },
        {
          "name": "B4",
          "midi": 71,
          "time": 76.63203125000021,
          "velocity": 0.2755905511811024,
          "duration": 0.45000000000001705
        },
        {
          "name": "B4",
          "midi": 71,
          "time": 76.78437500000022,
          "velocity": 0.3779527559055118,
          "duration": 0.4507812500000057
        },
        {
          "name": "B4",
          "midi": 71,
          "time": 77.08125000000022,
          "velocity": 0.25984251968503935,
          "duration": 0.4507812500000199
        },
        {
          "name": "B4",
          "midi": 71,
          "time": 77.22343750000023,
          "velocity": 0.30708661417322836,
          "duration": 0.45000000000001705
        },
        {
          "name": "B2",
          "midi": 47,
          "time": 77.37343750000024,
          "velocity": 0.44881889763779526,
          "duration": 0.45000000000001705
        },
        {
          "name": "G5",
          "midi": 79,
          "time": 77.37890625000024,
          "velocity": 0.30708661417322836,
          "duration": 0.45000000000001705
        },
        {
          "name": "C#3",
          "midi": 49,
          "time": 77.51718750000025,
          "velocity": 0.2283464566929134,
          "duration": 0.45000000000001705
        },
        {
          "name": "B4",
          "midi": 71,
          "time": 77.53125000000024,
          "velocity": 0.30708661417322836,
          "duration": 0.45000000000001705
        },
        {
          "name": "D3",
          "midi": 50,
          "time": 77.68203125000025,
          "velocity": 0.28346456692913385,
          "duration": 0.45000000000000284
        },
        {
          "name": "B4",
          "midi": 71,
          "time": 77.68515625000025,
          "velocity": 0.2677165354330709,
          "duration": 0.45000000000000284
        },
        {
          "name": "B4",
          "midi": 71,
          "time": 77.97578125000027,
          "velocity": 0.3543307086614173,
          "duration": 0.4507812500000057
        },
        {
          "name": "E3",
          "midi": 52,
          "time": 77.97812500000026,
          "velocity": 0.2440944881889764,
          "duration": 0.4507812500000057
        },
        {
          "name": "B4",
          "midi": 71,
          "time": 78.14062500000026,
          "velocity": 0.30708661417322836,
          "duration": 0.4507812500000057
        },
        {
          "name": "C#3",
          "midi": 49,
          "time": 78.14218750000026,
          "velocity": 0.2677165354330709,
          "duration": 0.4507812500000057
        },
        {
          "name": "F#5",
          "midi": 78,
          "time": 78.27656250000027,
          "velocity": 0.4330708661417323,
          "duration": 0.4507812500000057
        },
        {
          "name": "F#3",
          "midi": 54,
          "time": 78.28906250000027,
          "velocity": 0.29133858267716534,
          "duration": 0.4507812500000057
        },
        {
          "name": "A#4",
          "midi": 70,
          "time": 78.43125000000026,
          "velocity": 0.29133858267716534,
          "duration": 0.45000000000001705
        },
        {
          "name": "A#4",
          "midi": 70,
          "time": 78.56875000000026,
          "velocity": 0.28346456692913385,
          "duration": 0.45000000000000284
        },
        {
          "name": "F#2",
          "midi": 42,
          "time": 78.73515625000027,
          "velocity": 0.44881889763779526,
          "duration": 0.45000000000000284
        },
        {
          "name": "A#4",
          "midi": 70,
          "time": 78.89140625000027,
          "velocity": 0.3779527559055118,
          "duration": 0.45000000000000284
        },
        {
          "name": "A#4",
          "midi": 70,
          "time": 79.02578125000026,
          "velocity": 0.36220472440944884,
          "duration": 0.45000000000001705
        },
        {
          "name": "B2",
          "midi": 47,
          "time": 79.17968750000027,
          "velocity": 0.3700787401574803,
          "duration": 0.45000000000001705
        },
        {
          "name": "B1",
          "midi": 35,
          "time": 79.18046875000027,
          "velocity": 0.2755905511811024,
          "duration": 0.45000000000001705
        },
        {
          "name": "B6",
          "midi": 95,
          "time": 79.18203125000028,
          "velocity": 0.4566929133858268,
          "duration": 0.45000000000001705
        },
        {
          "name": "B5",
          "midi": 83,
          "time": 79.33203125000027,
          "velocity": 0.28346456692913385,
          "duration": 0.45000000000003126
        },
        {
          "name": "B5",
          "midi": 83,
          "time": 79.48515625000029,
          "velocity": 0.2677165354330709,
          "duration": 0.45000000000001705
        },
        {
          "name": "B5",
          "midi": 83,
          "time": 79.7835937500003,
          "velocity": 0.2992125984251969,
          "duration": 0.44921875
        },
        {
          "name": "B5",
          "midi": 83,
          "time": 79.9281250000003,
          "velocity": 0.28346456692913385,
          "duration": 0.44921875
        },
        {
          "name": "A6",
          "midi": 93,
          "time": 80.0765625000003,
          "velocity": 0.3464566929133858,
          "duration": 0.45000000000000284
        },
        {
          "name": "B5",
          "midi": 83,
          "time": 80.2273437500003,
          "velocity": 0.33858267716535434,
          "duration": 0.45000000000000284
        },
        {
          "name": "B5",
          "midi": 83,
          "time": 80.3890625000003,
          "velocity": 0.23622047244094488,
          "duration": 0.44921875
        },
        {
          "name": "B5",
          "midi": 83,
          "time": 80.6781250000003,
          "velocity": 0.3779527559055118,
          "duration": 0.4492187500000142
        },
        {
          "name": "B5",
          "midi": 83,
          "time": 80.8296875000003,
          "velocity": 0.30708661417322836,
          "duration": 0.4492187500000284
        },
        {
          "name": "B2",
          "midi": 47,
          "time": 80.96875000000031,
          "velocity": 0.36220472440944884,
          "duration": 0.4492187500000284
        },
        {
          "name": "G6",
          "midi": 91,
          "time": 80.97421875000032,
          "velocity": 0.4251968503937008,
          "duration": 0.4492187500000284
        },
        {
          "name": "C#3",
          "midi": 49,
          "time": 81.12421875000032,
          "velocity": 0.28346456692913385,
          "duration": 0.4492187500000284
        },
        {
          "name": "B5",
          "midi": 83,
          "time": 81.13125000000032,
          "velocity": 0.31496062992125984,
          "duration": 0.4484375000000256
        },
        {
          "name": "D3",
          "midi": 50,
          "time": 81.26953125000033,
          "velocity": 0.3937007874015748,
          "duration": 0.4484375000000256
        },
        {
          "name": "B5",
          "midi": 83,
          "time": 81.28359375000034,
          "velocity": 0.23622047244094488,
          "duration": 0.44843750000001137
        },
        {
          "name": "B5",
          "midi": 83,
          "time": 81.57265625000035,
          "velocity": 0.30708661417322836,
          "duration": 0.44843749999999716
        },
        {
          "name": "E3",
          "midi": 52,
          "time": 81.57656250000035,
          "velocity": 0.2677165354330709,
          "duration": 0.44843749999999716
        },
        {
          "name": "C#3",
          "midi": 49,
          "time": 81.72656250000036,
          "velocity": 0.28346456692913385,
          "duration": 0.44999999999998863
        },
        {
          "name": "B5",
          "midi": 83,
          "time": 81.72968750000035,
          "velocity": 0.2204724409448819,
          "duration": 0.44999999999998863
        },
        {
          "name": "A#2",
          "midi": 46,
          "time": 81.87500000000034,
          "velocity": 0.3464566929133858,
          "duration": 0.45000000000000284
        },
        {
          "name": "F#6",
          "midi": 90,
          "time": 81.88281250000034,
          "velocity": 0.25984251968503935,
          "duration": 0.45000000000000284
        },
        {
          "name": "A#5",
          "midi": 82,
          "time": 82.02343750000034,
          "velocity": 0.3228346456692913,
          "duration": 0.45000000000000284
        },
        {
          "name": "A#5",
          "midi": 82,
          "time": 82.17343750000035,
          "velocity": 0.3543307086614173,
          "duration": 0.45000000000000284
        },
        {
          "name": "F#2",
          "midi": 42,
          "time": 82.31796875000035,
          "velocity": 0.41732283464566927,
          "duration": 0.45000000000000284
        },
        {
          "name": "A#5",
          "midi": 82,
          "time": 82.47109375000035,
          "velocity": 0.3543307086614173,
          "duration": 0.4507812500000057
        },
        {
          "name": "A#5",
          "midi": 82,
          "time": 82.62421875000035,
          "velocity": 0.2755905511811024,
          "duration": 0.4507812500000057
        },
        {
          "name": "B6",
          "midi": 95,
          "time": 82.77578125000035,
          "velocity": 0.30708661417322836,
          "duration": 0.4507812500000057
        },
        {
          "name": "B2",
          "midi": 47,
          "time": 82.77890625000035,
          "velocity": 0.41732283464566927,
          "duration": 0.4507812500000057
        },
        {
          "name": "B1",
          "midi": 35,
          "time": 82.78828125000035,
          "velocity": 0.2440944881889764,
          "duration": 0.4507812500000057
        },
        {
          "name": "B5",
          "midi": 83,
          "time": 82.93125000000036,
          "velocity": 0.2992125984251969,
          "duration": 0.4507812499999915
        },
        {
          "name": "B5",
          "midi": 83,
          "time": 83.06718750000036,
          "velocity": 0.30708661417322836,
          "duration": 0.4507812499999915
        },
        {
          "name": "B5",
          "midi": 83,
          "time": 83.38906250000035,
          "velocity": 0.2677165354330709,
          "duration": 0.44921875
        },
        {
          "name": "B5",
          "midi": 83,
          "time": 83.51796875000035,
          "velocity": 0.2440944881889764,
          "duration": 0.44921875
        },
        {
          "name": "A6",
          "midi": 93,
          "time": 83.67187500000036,
          "velocity": 0.3858267716535433,
          "duration": 0.44921875
        },
        {
          "name": "B5",
          "midi": 83,
          "time": 83.83515625000035,
          "velocity": 0.2755905511811024,
          "duration": 0.44921875
        },
        {
          "name": "B5",
          "midi": 83,
          "time": 83.97265625000036,
          "velocity": 0.25196850393700787,
          "duration": 0.45000000000000284
        },
        {
          "name": "B5",
          "midi": 83,
          "time": 84.27187500000035,
          "velocity": 0.3700787401574803,
          "duration": 0.45000000000000284
        },
        {
          "name": "B5",
          "midi": 83,
          "time": 84.42500000000035,
          "velocity": 0.25984251968503935,
          "duration": 0.45000000000000284
        },
        {
          "name": "B2",
          "midi": 47,
          "time": 84.57421875000036,
          "velocity": 0.4015748031496063,
          "duration": 0.45000000000000284
        },
        {
          "name": "G6",
          "midi": 91,
          "time": 84.57656250000035,
          "velocity": 0.3779527559055118,
          "duration": 0.45000000000000284
        },
        {
          "name": "B5",
          "midi": 83,
          "time": 84.72578125000035,
          "velocity": 0.2755905511811024,
          "duration": 0.4507812499999915
        },
        {
          "name": "C#3",
          "midi": 49,
          "time": 84.72578125000035,
          "velocity": 0.3543307086614173,
          "duration": 0.4507812499999915
        },
        {
          "name": "D3",
          "midi": 50,
          "time": 84.87500000000036,
          "velocity": 0.33070866141732286,
          "duration": 0.4515624999999943
        },
        {
          "name": "B5",
          "midi": 83,
          "time": 84.87968750000036,
          "velocity": 0.2204724409448819,
          "duration": 0.4515624999999943
        },
        {
          "name": "E3",
          "midi": 52,
          "time": 85.16953125000035,
          "velocity": 0.25984251968503935,
          "duration": 0.4507812500000057
        },
        {
          "name": "B5",
          "midi": 83,
          "time": 85.17734375000035,
          "velocity": 0.30708661417322836,
          "duration": 0.45000000000000284
        },
        {
          "name": "C#3",
          "midi": 49,
          "time": 85.32187500000035,
          "velocity": 0.29133858267716534,
          "duration": 0.45000000000000284
        },
        {
          "name": "B5",
          "midi": 83,
          "time": 85.32968750000035,
          "velocity": 0.30708661417322836,
          "duration": 0.45000000000000284
        },
        {
          "name": "F#3",
          "midi": 54,
          "time": 85.47187500000035,
          "velocity": 0.2440944881889764,
          "duration": 0.45000000000000284
        },
        {
          "name": "F#6",
          "midi": 90,
          "time": 85.48281250000035,
          "velocity": 0.36220472440944884,
          "duration": 0.45000000000001705
        },
        {
          "name": "A#5",
          "midi": 82,
          "time": 85.62500000000036,
          "velocity": 0.31496062992125984,
          "duration": 0.4507812500000057
        },
        {
          "name": "A#5",
          "midi": 82,
          "time": 85.78046875000035,
          "velocity": 0.2283464566929134,
          "duration": 0.4507812500000057
        },
        {
          "name": "F#2",
          "midi": 42,
          "time": 85.92734375000036,
          "velocity": 0.25196850393700787,
          "duration": 0.45000000000000284
        },
        {
          "name": "A#5",
          "midi": 82,
          "time": 86.08671875000036,
          "velocity": 0.30708661417322836,
          "duration": 0.45000000000001705
        },
        {
          "name": "A#5",
          "midi": 82,
          "time": 86.22734375000036,
          "velocity": 0.36220472440944884,
          "duration": 0.45000000000001705
        },
        {
          "name": "B5",
          "midi": 83,
          "time": 86.37890625000037,
          "velocity": 0.4330708661417323,
          "duration": 0.4507812500000057
        },
        {
          "name": "B2",
          "midi": 47,
          "time": 86.37890625000037,
          "velocity": 0.4094488188976378,
          "duration": 0.4507812500000057
        },
        {
          "name": "F#4",
          "midi": 66,
          "time": 87.27265625000038,
          "velocity": 0.5039370078740157,
          "duration": 0.45000000000000284
        },
        {
          "name": "B1",
          "midi": 35,
          "time": 87.28828125000038,
          "velocity": 0.29133858267716534,
          "duration": 0.45000000000000284
        },
        {
          "name": "F#4",
          "midi": 66,
          "time": 87.72734375000039,
          "velocity": 0.41732283464566927,
          "duration": 0.44999999999998863
        },
        {
          "name": "G4",
          "midi": 67,
          "time": 87.87734375000038,
          "velocity": 0.47244094488188976,
          "duration": 0.45000000000000284
        },
        {
          "name": "A4",
          "midi": 69,
          "time": 88.02500000000038,
          "velocity": 0.2992125984251969,
          "duration": 0.45000000000000284
        },
        {
          "name": "B4",
          "midi": 71,
          "time": 88.18593750000038,
          "velocity": 0.31496062992125984,
          "duration": 0.44999999999998863
        },
        {
          "name": "G3",
          "midi": 55,
          "time": 88.19062500000038,
          "velocity": 0.3543307086614173,
          "duration": 0.44999999999998863
        },
        {
          "name": "B3",
          "midi": 59,
          "time": 88.33203125000038,
          "velocity": 0.3700787401574803,
          "duration": 0.44999999999998863
        },
        {
          "name": "F#4",
          "midi": 66,
          "time": 88.47812500000038,
          "velocity": 0.44881889763779526,
          "duration": 0.44921875
        },
        {
          "name": "F#5",
          "midi": 78,
          "time": 88.62109375000037,
          "velocity": 0.36220472440944884,
          "duration": 0.44921875
        },
        {
          "name": "E5",
          "midi": 76,
          "time": 88.77265625000037,
          "velocity": 0.4645669291338583,
          "duration": 0.44921875
        },
        {
          "name": "C#4",
          "midi": 61,
          "time": 88.78906250000037,
          "velocity": 0.3779527559055118,
          "duration": 0.44921875
        },
        {
          "name": "D5",
          "midi": 74,
          "time": 88.93515625000038,
          "velocity": 0.2992125984251969,
          "duration": 0.44921875
        },
        {
          "name": "A#2",
          "midi": 46,
          "time": 89.07812500000037,
          "velocity": 0.33858267716535434,
          "duration": 0.45000000000000284
        },
        {
          "name": "C#5",
          "midi": 73,
          "time": 89.08203125000037,
          "velocity": 0.4330708661417323,
          "duration": 0.45000000000000284
        },
        {
          "name": "F#3",
          "midi": 54,
          "time": 89.52109375000038,
          "velocity": 0.2204724409448819,
          "duration": 0.4507812499999915
        },
        {
          "name": "A#3",
          "midi": 58,
          "time": 89.52343750000037,
          "velocity": 0.3228346456692913,
          "duration": 0.4507812499999915
        },
        {
          "name": "F#4",
          "midi": 66,
          "time": 89.52421875000037,
          "velocity": 0.28346456692913385,
          "duration": 0.4507812499999915
        },
        {
          "name": "C#4",
          "midi": 61,
          "time": 89.53593750000037,
          "velocity": 0.36220472440944884,
          "duration": 0.4507812499999915
        },
        {
          "name": "F#5",
          "midi": 78,
          "time": 89.97656250000037,
          "velocity": 0.41732283464566927,
          "duration": 0.44999999999998863
        },
        {
          "name": "B2",
          "midi": 47,
          "time": 89.97968750000037,
          "velocity": 0.41732283464566927,
          "duration": 0.44999999999998863
        },
        {
          "name": "F#3",
          "midi": 54,
          "time": 90.13437500000036,
          "velocity": 0.33070866141732286,
          "duration": 0.45000000000000284
        },
        {
          "name": "B3",
          "midi": 59,
          "time": 90.27500000000036,
          "velocity": 0.3937007874015748,
          "duration": 0.45000000000000284
        },
        {
          "name": "F#5",
          "midi": 78,
          "time": 90.42578125000036,
          "velocity": 0.3858267716535433,
          "duration": 0.4507812500000057
        },
        {
          "name": "E5",
          "midi": 76,
          "time": 90.57578125000036,
          "velocity": 0.3937007874015748,
          "duration": 0.4507812499999915
        },
        {
          "name": "F#3",
          "midi": 54,
          "time": 90.57968750000036,
          "velocity": 0.3228346456692913,
          "duration": 0.4507812499999915
        },
        {
          "name": "D5",
          "midi": 74,
          "time": 90.72812500000036,
          "velocity": 0.25984251968503935,
          "duration": 0.4507812499999915
        },
        {
          "name": "B1",
          "midi": 35,
          "time": 90.87031250000037,
          "velocity": 0.4566929133858268,
          "duration": 0.4507812499999915
        },
        {
          "name": "B4",
          "midi": 71,
          "time": 90.87968750000036,
          "velocity": 0.31496062992125984,
          "duration": 0.4507812500000057
        },
        {
          "name": "D5",
          "midi": 74,
          "time": 91.32500000000036,
          "velocity": 0.4094488188976378,
          "duration": 0.45000000000001705
        },
        {
          "name": "B3",
          "midi": 59,
          "time": 91.34218750000036,
          "velocity": 0.3228346456692913,
          "duration": 0.45000000000000284
        },
        {
          "name": "C#4",
          "midi": 61,
          "time": 91.46875000000037,
          "velocity": 0.31496062992125984,
          "duration": 0.45000000000000284
        },
        {
          "name": "E5",
          "midi": 76,
          "time": 91.48906250000037,
          "velocity": 0.31496062992125984,
          "duration": 0.45000000000000284
        },
        {
          "name": "D4",
          "midi": 62,
          "time": 91.62265625000038,
          "velocity": 0.33858267716535434,
          "duration": 0.45000000000000284
        },
        {
          "name": "F#5",
          "midi": 78,
          "time": 91.62734375000038,
          "velocity": 0.30708661417322836,
          "duration": 0.45000000000000284
        },
        {
          "name": "E5",
          "midi": 76,
          "time": 91.77265625000038,
          "velocity": 0.3779527559055118,
          "duration": 0.45000000000000284
        },
        {
          "name": "C#4",
          "midi": 61,
          "time": 91.77812500000037,
          "velocity": 0.36220472440944884,
          "duration": 0.45000000000001705
        },
        {
          "name": "E4",
          "midi": 64,
          "time": 91.92343750000038,
          "velocity": 0.2992125984251969,
          "duration": 0.45000000000001705
        },
        {
          "name": "A4",
          "midi": 69,
          "time": 92.08984375000038,
          "velocity": 0.2992125984251969,
          "duration": 0.45000000000001705
        },
        {
          "name": "E5",
          "midi": 76,
          "time": 92.23593750000039,
          "velocity": 0.4566929133858268,
          "duration": 0.4492187500000142
        },
        {
          "name": "D5",
          "midi": 74,
          "time": 92.3789062500004,
          "velocity": 0.4094488188976378,
          "duration": 0.44921875
        },
        {
          "name": "E4",
          "midi": 64,
          "time": 92.3804687500004,
          "velocity": 0.30708661417322836,
          "duration": 0.44921875
        },
        {
          "name": "C#5",
          "midi": 73,
          "time": 92.5289062500004,
          "velocity": 0.3779527559055118,
          "duration": 0.44921875
        },
        {
          "name": "A#3",
          "midi": 58,
          "time": 92.6781250000004,
          "velocity": 0.2440944881889764,
          "duration": 0.44843749999999716
        },
        {
          "name": "F#3",
          "midi": 54,
          "time": 92.6812500000004,
          "velocity": 0.29133858267716534,
          "duration": 0.44843749999999716
        },
        {
          "name": "A#4",
          "midi": 70,
          "time": 92.6820312500004,
          "velocity": 0.3543307086614173,
          "duration": 0.44843749999999716
        },
        {
          "name": "E4",
          "midi": 64,
          "time": 92.68281250000041,
          "velocity": 0.25984251968503935,
          "duration": 0.44843749999999716
        },
        {
          "name": "F#2",
          "midi": 42,
          "time": 93.1226562500004,
          "velocity": 0.31496062992125984,
          "duration": 0.44921875
        },
        {
          "name": "F#4",
          "midi": 66,
          "time": 93.1250000000004,
          "velocity": 0.5039370078740157,
          "duration": 0.44921875
        },
        {
          "name": "B2",
          "midi": 47,
          "time": 93.5796875000004,
          "velocity": 0.2440944881889764,
          "duration": 0.44999999999998863
        },
        {
          "name": "D5",
          "midi": 74,
          "time": 93.5820312500004,
          "velocity": 0.4015748031496063,
          "duration": 0.4507812499999915
        },
        {
          "name": "B3",
          "midi": 59,
          "time": 93.5820312500004,
          "velocity": 0.30708661417322836,
          "duration": 0.4507812499999915
        },
        {
          "name": "E5",
          "midi": 76,
          "time": 94.0304687500004,
          "velocity": 0.3543307086614173,
          "duration": 0.45000000000000284
        },
        {
          "name": "C#3",
          "midi": 49,
          "time": 94.0304687500004,
          "velocity": 0.25196850393700787,
          "duration": 0.45000000000000284
        },
        {
          "name": "C#4",
          "midi": 61,
          "time": 94.03281250000039,
          "velocity": 0.3464566929133858,
          "duration": 0.45000000000000284
        },
        {
          "name": "D3",
          "midi": 50,
          "time": 94.47890625000039,
          "velocity": 0.2677165354330709,
          "duration": 0.45000000000000284
        },
        {
          "name": "F#5",
          "midi": 78,
          "time": 94.47890625000039,
          "velocity": 0.3543307086614173,
          "duration": 0.45000000000000284
        },
        {
          "name": "D4",
          "midi": 62,
          "time": 94.47890625000039,
          "velocity": 0.4015748031496063,
          "duration": 0.45000000000000284
        },
        {
          "name": "B5",
          "midi": 83,
          "time": 94.9335937500004,
          "velocity": 0.3700787401574803,
          "duration": 0.44921875
        },
        {
          "name": "A5",
          "midi": 81,
          "time": 95.07656250000039,
          "velocity": 0.47244094488188976,
          "duration": 0.44921875
        },
        {
          "name": "F#5",
          "midi": 78,
          "time": 95.2218750000004,
          "velocity": 0.33070866141732286,
          "duration": 0.44921875
        },
        {
          "name": "E4",
          "midi": 64,
          "time": 95.37343750000039,
          "velocity": 0.29133858267716534,
          "duration": 0.45000000000000284
        },
        {
          "name": "G5",
          "midi": 79,
          "time": 95.3828125000004,
          "velocity": 0.3464566929133858,
          "duration": 0.45000000000000284
        },
        {
          "name": "G4",
          "midi": 67,
          "time": 95.52187500000039,
          "velocity": 0.3228346456692913,
          "duration": 0.45000000000000284
        },
        {
          "name": "D5",
          "midi": 74,
          "time": 95.67421875000039,
          "velocity": 0.2125984251968504,
          "duration": 0.45000000000000284
        },
        {
          "name": "D4",
          "midi": 62,
          "time": 95.82187500000039,
          "velocity": 0.28346456692913385,
          "duration": 0.4492187500000142
        },
        {
          "name": "F#5",
          "midi": 78,
          "time": 95.8250000000004,
          "velocity": 0.3858267716535433,
          "duration": 0.44843749999999716
        },
        {
          "name": "G4",
          "midi": 67,
          "time": 95.9718750000004,
          "velocity": 0.4094488188976378,
          "duration": 0.44843750000001137
        },
        {
          "name": "G5",
          "midi": 79,
          "time": 95.9804687500004,
          "velocity": 0.29133858267716534,
          "duration": 0.44843750000001137
        },
        {
          "name": "B5",
          "midi": 83,
          "time": 96.1281250000004,
          "velocity": 0.41732283464566927,
          "duration": 0.4492187500000142
        },
        {
          "name": "B4",
          "midi": 71,
          "time": 96.1375000000004,
          "velocity": 0.30708661417322836,
          "duration": 0.4492187500000142
        },
        {
          "name": "C#6",
          "midi": 85,
          "time": 96.2734375000004,
          "velocity": 0.4645669291338583,
          "duration": 0.45000000000001705
        },
        {
          "name": "C#4",
          "midi": 61,
          "time": 96.2828125000004,
          "velocity": 0.2677165354330709,
          "duration": 0.45000000000001705
        },
        {
          "name": "E4",
          "midi": 64,
          "time": 96.42500000000041,
          "velocity": 0.3858267716535433,
          "duration": 0.45000000000001705
        },
        {
          "name": "C#5",
          "midi": 73,
          "time": 96.57343750000041,
          "velocity": 0.2677165354330709,
          "duration": 0.45000000000001705
        },
        {
          "name": "A5",
          "midi": 81,
          "time": 96.71640625000042,
          "velocity": 0.30708661417322836,
          "duration": 0.45000000000000284
        },
        {
          "name": "A3",
          "midi": 57,
          "time": 96.71953125000041,
          "velocity": 0.2992125984251969,
          "duration": 0.45000000000000284
        },
        {
          "name": "E4",
          "midi": 64,
          "time": 96.86640625000042,
          "velocity": 0.3779527559055118,
          "duration": 0.44921875
        },
        {
          "name": "A4",
          "midi": 69,
          "time": 97.01953125000043,
          "velocity": 0.36220472440944884,
          "duration": 0.44921875
        },
        {
          "name": "F#5",
          "midi": 78,
          "time": 97.17812500000042,
          "velocity": 0.30708661417322836,
          "duration": 0.44921875
        },
        {
          "name": "D4",
          "midi": 62,
          "time": 97.17890625000042,
          "velocity": 0.2755905511811024,
          "duration": 0.44921875
        },
        {
          "name": "F#4",
          "midi": 66,
          "time": 97.32265625000042,
          "velocity": 0.36220472440944884,
          "duration": 0.44921875
        },
        {
          "name": "C#5",
          "midi": 73,
          "time": 97.47890625000042,
          "velocity": 0.2204724409448819,
          "duration": 0.44921875
        },
        {
          "name": "C#4",
          "midi": 61,
          "time": 97.62031250000042,
          "velocity": 0.33070866141732286,
          "duration": 0.44921875
        },
        {
          "name": "F#5",
          "midi": 78,
          "time": 97.62890625000043,
          "velocity": 0.36220472440944884,
          "duration": 0.44921875
        },
        {
          "name": "F#4",
          "midi": 66,
          "time": 97.76406250000042,
          "velocity": 0.36220472440944884,
          "duration": 0.44999999999998863
        },
        {
          "name": "G5",
          "midi": 79,
          "time": 97.78671875000042,
          "velocity": 0.3543307086614173,
          "duration": 0.44999999999998863
        },
        {
          "name": "A5",
          "midi": 81,
          "time": 97.92265625000041,
          "velocity": 0.4330708661417323,
          "duration": 0.44999999999998863
        },
        {
          "name": "A4",
          "midi": 69,
          "time": 97.92656250000041,
          "velocity": 0.3228346456692913,
          "duration": 0.44999999999998863
        },
        {
          "name": "B3",
          "midi": 59,
          "time": 98.08046875000042,
          "velocity": 0.25196850393700787,
          "duration": 0.4499999999999744
        },
        {
          "name": "B5",
          "midi": 83,
          "time": 98.08281250000041,
          "velocity": 0.3700787401574803,
          "duration": 0.4499999999999744
        },
        {
          "name": "F#4",
          "midi": 66,
          "time": 98.21796875000041,
          "velocity": 0.3779527559055118,
          "duration": 0.4492187499999858
        },
        {
          "name": "B4",
          "midi": 71,
          "time": 98.36640625000041,
          "velocity": 0.33858267716535434,
          "duration": 0.44999999999998863
        },
        {
          "name": "F#5",
          "midi": 78,
          "time": 98.5242187500004,
          "velocity": 0.33070866141732286,
          "duration": 0.45000000000000284
        },
        {
          "name": "F#3",
          "midi": 54,
          "time": 98.53281250000039,
          "velocity": 0.2992125984251969,
          "duration": 0.45000000000001705
        },
        {
          "name": "B3",
          "midi": 59,
          "time": 98.6757812500004,
          "velocity": 0.2677165354330709,
          "duration": 0.4492187500000142
        },
        {
          "name": "F#4",
          "midi": 66,
          "time": 98.8195312500004,
          "velocity": 0.33858267716535434,
          "duration": 0.4492187500000142
        },
        {
          "name": "E5",
          "midi": 76,
          "time": 98.9695312500004,
          "velocity": 0.4015748031496063,
          "duration": 0.44921875
        },
        {
          "name": "C#4",
          "midi": 61,
          "time": 98.97968750000041,
          "velocity": 0.31496062992125984,
          "duration": 0.44921875
        },
        {
          "name": "D5",
          "midi": 74,
          "time": 99.11640625000041,
          "velocity": 0.3228346456692913,
          "duration": 0.44921875
        },
        {
          "name": "D4",
          "midi": 62,
          "time": 99.12421875000041,
          "velocity": 0.30708661417322836,
          "duration": 0.44843749999998295
        },
        {
          "name": "C#5",
          "midi": 73,
          "time": 99.2757812500004,
          "velocity": 0.25984251968503935,
          "duration": 0.4492187499999858
        },
        {
          "name": "C#4",
          "midi": 61,
          "time": 99.2859375000004,
          "velocity": 0.4015748031496063,
          "duration": 0.44921875
        },
        {
          "name": "E5",
          "midi": 76,
          "time": 99.4132812500004,
          "velocity": 0.3543307086614173,
          "duration": 0.44921875
        },
        {
          "name": "A#3",
          "midi": 58,
          "time": 99.4273437500004,
          "velocity": 0.4015748031496063,
          "duration": 0.44999999999998863
        },
        {
          "name": "F#3",
          "midi": 54,
          "time": 99.5679687500004,
          "velocity": 0.4015748031496063,
          "duration": 0.44999999999998863
        },
        {
          "name": "D5",
          "midi": 74,
          "time": 99.5703125000004,
          "velocity": 0.33858267716535434,
          "duration": 0.44999999999998863
        },
        {
          "name": "C#3",
          "midi": 49,
          "time": 99.7257812500004,
          "velocity": 0.48031496062992124,
          "duration": 0.44999999999998863
        },
        {
          "name": "C#5",
          "midi": 73,
          "time": 99.7273437500004,
          "velocity": 0.4094488188976378,
          "duration": 0.44999999999998863
        },
        {
          "name": "A#4",
          "midi": 70,
          "time": 99.8703125000004,
          "velocity": 0.47244094488188976,
          "duration": 0.44999999999998863
        },
        {
          "name": "A#2",
          "midi": 46,
          "time": 99.88125000000039,
          "velocity": 0.3779527559055118,
          "duration": 0.44999999999998863
        },
        {
          "name": "F#4",
          "midi": 66,
          "time": 100.32109375000039,
          "velocity": 0.33858267716535434,
          "duration": 0.45000000000000284
        },
        {
          "name": "F#2",
          "midi": 42,
          "time": 100.33828125000038,
          "velocity": 0.44881889763779526,
          "duration": 0.45000000000001705
        },
        {
          "name": "G#4",
          "midi": 68,
          "time": 100.46015625000038,
          "velocity": 0.3937007874015748,
          "duration": 0.45000000000001705
        },
        {
          "name": "C#3",
          "midi": 49,
          "time": 100.47578125000038,
          "velocity": 0.3937007874015748,
          "duration": 0.45000000000001705
        },
        {
          "name": "A#4",
          "midi": 70,
          "time": 100.63281250000038,
          "velocity": 0.4330708661417323,
          "duration": 0.45000000000000284
        },
        {
          "name": "F#2",
          "midi": 42,
          "time": 100.63281250000038,
          "velocity": 0.4094488188976378,
          "duration": 0.45000000000000284
        },
        {
          "name": "B2",
          "midi": 47,
          "time": 100.76953125000038,
          "velocity": 0.33858267716535434,
          "duration": 0.45000000000000284
        },
        {
          "name": "B4",
          "midi": 71,
          "time": 100.7726562500004,
          "velocity": 0.4881889763779528,
          "duration": 0.44921875
        },
        {
          "name": "F#3",
          "midi": 54,
          "time": 100.9210937500004,
          "velocity": 0.30708661417322836,
          "duration": 0.44921875
        },
        {
          "name": "B3",
          "midi": 59,
          "time": 101.06875000000039,
          "velocity": 0.25984251968503935,
          "duration": 0.44921875
        },
        {
          "name": "C#4",
          "midi": 61,
          "time": 101.22031250000039,
          "velocity": 0.31496062992125984,
          "duration": 0.44921875
        },
        {
          "name": "D5",
          "midi": 74,
          "time": 101.3671875000004,
          "velocity": 0.3464566929133858,
          "duration": 0.44999999999998863
        },
        {
          "name": "D4",
          "midi": 62,
          "time": 101.3679687500004,
          "velocity": 0.2677165354330709,
          "duration": 0.44999999999998863
        },
        {
          "name": "C#4",
          "midi": 61,
          "time": 101.52421875000039,
          "velocity": 0.30708661417322836,
          "duration": 0.4507812500000057
        },
        {
          "name": "C#5",
          "midi": 73,
          "time": 101.52734375000038,
          "velocity": 0.49606299212598426,
          "duration": 0.4507812500000057
        },
        {
          "name": "B4",
          "midi": 71,
          "time": 101.66953125000039,
          "velocity": 0.4015748031496063,
          "duration": 0.4507812500000057
        },
        {
          "name": "B2",
          "midi": 47,
          "time": 101.67031250000039,
          "velocity": 0.49606299212598426,
          "duration": 0.4507812500000057
        },
        {
          "name": "F#3",
          "midi": 54,
          "time": 101.82500000000039,
          "velocity": 0.28346456692913385,
          "duration": 0.44921875
        },
        {
          "name": "B3",
          "midi": 59,
          "time": 101.96718750000039,
          "velocity": 0.3700787401574803,
          "duration": 0.44921875
        },
        {
          "name": "C#4",
          "midi": 61,
          "time": 102.12734375000039,
          "velocity": 0.2992125984251969,
          "duration": 0.4492187499999858
        },
        {
          "name": "D4",
          "midi": 62,
          "time": 102.26718750000039,
          "velocity": 0.4409448818897638,
          "duration": 0.44921875
        },
        {
          "name": "E5",
          "midi": 76,
          "time": 102.27812500000039,
          "velocity": 0.4094488188976378,
          "duration": 0.44921875
        },
        {
          "name": "E4",
          "midi": 64,
          "time": 102.42265625000039,
          "velocity": 0.3858267716535433,
          "duration": 0.44921875
        },
        {
          "name": "B4",
          "midi": 71,
          "time": 102.56171875000038,
          "velocity": 0.3858267716535433,
          "duration": 0.45000000000001705
        },
        {
          "name": "F#5",
          "midi": 78,
          "time": 102.57031250000038,
          "velocity": 0.3858267716535433,
          "duration": 0.45000000000001705
        },
        {
          "name": "D#2",
          "midi": 39,
          "time": 102.57734375000038,
          "velocity": 0.4645669291338583,
          "duration": 0.45000000000001705
        },
        {
          "name": "B2",
          "midi": 47,
          "time": 102.71171875000039,
          "velocity": 0.3543307086614173,
          "duration": 0.44921875
        },
        {
          "name": "F#3",
          "midi": 54,
          "time": 102.87343750000039,
          "velocity": 0.3937007874015748,
          "duration": 0.44921875
        },
        {
          "name": "F#5",
          "midi": 78,
          "time": 103.0156250000004,
          "velocity": 0.3543307086614173,
          "duration": 0.44843749999999716
        },
        {
          "name": "B5",
          "midi": 83,
          "time": 103.0250000000004,
          "velocity": 0.5511811023622047,
          "duration": 0.44843749999998295
        },
        {
          "name": "B3",
          "midi": 59,
          "time": 103.02968750000039,
          "velocity": 0.29133858267716534,
          "duration": 0.4492187499999858
        },
        {
          "name": "F#4",
          "midi": 66,
          "time": 103.17031250000039,
          "velocity": 0.4094488188976378,
          "duration": 0.44999999999998863
        },
        {
          "name": "B3",
          "midi": 59,
          "time": 103.3320312500004,
          "velocity": 0.3779527559055118,
          "duration": 0.44999999999998863
        },
        {
          "name": "F#3",
          "midi": 54,
          "time": 103.47109375000039,
          "velocity": 0.33858267716535434,
          "duration": 0.44999999999998863
        },
        {
          "name": "B4",
          "midi": 71,
          "time": 103.47578125000038,
          "velocity": 0.4015748031496063,
          "duration": 0.45000000000000284
        },
        {
          "name": "F#5",
          "midi": 78,
          "time": 103.47890625000038,
          "velocity": 0.5354330708661418,
          "duration": 0.45000000000000284
        },
        {
          "name": "B3",
          "midi": 59,
          "time": 103.47890625000038,
          "velocity": 0.4251968503937008,
          "duration": 0.4507812500000057
        },
        {
          "name": "F#5",
          "midi": 78,
          "time": 104.07421875000038,
          "velocity": 0.4330708661417323,
          "duration": 0.45000000000000284
        },
        {
          "name": "G5",
          "midi": 79,
          "time": 104.21406250000038,
          "velocity": 0.3464566929133858,
          "duration": 0.45000000000000284
        },
        {
          "name": "E3",
          "midi": 52,
          "time": 104.36640625000038,
          "velocity": 0.41732283464566927,
          "duration": 0.45000000000000284
        },
        {
          "name": "E5",
          "midi": 76,
          "time": 104.36640625000038,
          "velocity": 0.4330708661417323,
          "duration": 0.45000000000000284
        },
        {
          "name": "B4",
          "midi": 71,
          "time": 104.36796875000039,
          "velocity": 0.3464566929133858,
          "duration": 0.45000000000000284
        },
        {
          "name": "B3",
          "midi": 59,
          "time": 104.51953125000038,
          "velocity": 0.2992125984251969,
          "duration": 0.45000000000000284
        },
        {
          "name": "E4",
          "midi": 64,
          "time": 104.66796875000038,
          "velocity": 0.4251968503937008,
          "duration": 0.4492187500000142
        },
        {
          "name": "C#5",
          "midi": 73,
          "time": 104.82500000000039,
          "velocity": 0.4251968503937008,
          "duration": 0.4492187500000142
        },
        {
          "name": "D3",
          "midi": 50,
          "time": 104.83281250000039,
          "velocity": 0.4330708661417323,
          "duration": 0.4492187500000142
        },
        {
          "name": "B4",
          "midi": 71,
          "time": 104.96015625000038,
          "velocity": 0.3228346456692913,
          "duration": 0.4492187500000142
        },
        {
          "name": "C#4",
          "midi": 61,
          "time": 104.97734375000039,
          "velocity": 0.3228346456692913,
          "duration": 0.44921875
        },
        {
          "name": "C#5",
          "midi": 73,
          "time": 105.11171875000039,
          "velocity": 0.4015748031496063,
          "duration": 0.44921875
        },
        {
          "name": "D4",
          "midi": 62,
          "time": 105.11562500000039,
          "velocity": 0.36220472440944884,
          "duration": 0.44921875
        },
        {
          "name": "F#4",
          "midi": 66,
          "time": 105.2703125000004,
          "velocity": 0.3858267716535433,
          "duration": 0.4492187499999858
        },
        {
          "name": "A#4",
          "midi": 70,
          "time": 105.2710937500004,
          "velocity": 0.5196850393700787,
          "duration": 0.4492187499999858
        },
        {
          "name": "C#3",
          "midi": 49,
          "time": 105.2812500000004,
          "velocity": 0.3543307086614173,
          "duration": 0.44921875
        },
        {
          "name": "F#3",
          "midi": 54,
          "time": 105.41250000000039,
          "velocity": 0.3779527559055118,
          "duration": 0.44921875
        },
        {
          "name": "A#3",
          "midi": 58,
          "time": 105.56718750000039,
          "velocity": 0.3543307086614173,
          "duration": 0.4492187500000142
        },
        {
          "name": "F#2",
          "midi": 42,
          "time": 105.7257812500004,
          "velocity": 0.2992125984251969,
          "duration": 0.4492187500000142
        },
        {
          "name": "C#5",
          "midi": 73,
          "time": 105.86171875000039,
          "velocity": 0.3228346456692913,
          "duration": 0.45000000000001705
        },
        {
          "name": "G5",
          "midi": 79,
          "time": 105.8710937500004,
          "velocity": 0.41732283464566927,
          "duration": 0.45000000000001705
        },
        {
          "name": "B4",
          "midi": 71,
          "time": 106.1648437500004,
          "velocity": 0.4015748031496063,
          "duration": 0.4492187500000284
        },
        {
          "name": "B2",
          "midi": 47,
          "time": 106.1703125000004,
          "velocity": 0.4015748031496063,
          "duration": 0.4492187500000284
        },
        {
          "name": "F#3",
          "midi": 54,
          "time": 106.32265625000042,
          "velocity": 0.2755905511811024,
          "duration": 0.4492187500000142
        },
        {
          "name": "B3",
          "midi": 59,
          "time": 106.47656250000043,
          "velocity": 0.2755905511811024,
          "duration": 0.4492187500000142
        },
        {
          "name": "C#4",
          "midi": 61,
          "time": 106.61328125000043,
          "velocity": 0.3700787401574803,
          "duration": 0.45000000000001705
        },
        {
          "name": "D4",
          "midi": 62,
          "time": 106.77734375000044,
          "velocity": 0.3700787401574803,
          "duration": 0.45000000000000284
        },
        {
          "name": "E4",
          "midi": 64,
          "time": 106.90781250000045,
          "velocity": 0.3858267716535433,
          "duration": 0.45000000000000284
        },
        {
          "name": "F#4",
          "midi": 66,
          "time": 107.06171875000044,
          "velocity": 0.4251968503937008,
          "duration": 0.45000000000001705
        },
        {
          "name": "B2",
          "midi": 47,
          "time": 107.07734375000044,
          "velocity": 0.30708661417322836,
          "duration": 0.45000000000001705
        },
        {
          "name": "B1",
          "midi": 35,
          "time": 107.08125000000044,
          "velocity": 0.3779527559055118,
          "duration": 0.45000000000001705
        },
        {
          "name": "B4",
          "midi": 71,
          "time": 107.50703125000045,
          "velocity": 0.41732283464566927,
          "duration": 0.45000000000000284
        },
        {
          "name": "B3",
          "midi": 59,
          "time": 107.52812500000046,
          "velocity": 0.4251968503937008,
          "duration": 0.45000000000000284
        },
        {
          "name": "C#4",
          "midi": 61,
          "time": 107.66640625000045,
          "velocity": 0.44881889763779526,
          "duration": 0.45000000000001705
        },
        {
          "name": "C#5",
          "midi": 73,
          "time": 107.67265625000044,
          "velocity": 0.3858267716535433,
          "duration": 0.45000000000001705
        },
        {
          "name": "D4",
          "midi": 62,
          "time": 107.81484375000045,
          "velocity": 0.30708661417322836,
          "duration": 0.45000000000001705
        },
        {
          "name": "D5",
          "midi": 74,
          "time": 107.82343750000045,
          "velocity": 0.33070866141732286,
          "duration": 0.45000000000001705
        },
        {
          "name": "B3",
          "midi": 59,
          "time": 107.96171875000046,
          "velocity": 0.30708661417322836,
          "duration": 0.45000000000001705
        },
        {
          "name": "G3",
          "midi": 55,
          "time": 107.96953125000046,
          "velocity": 0.3464566929133858,
          "duration": 0.45000000000001705
        },
        {
          "name": "E5",
          "midi": 76,
          "time": 107.97734375000046,
          "velocity": 0.4330708661417323,
          "duration": 0.4507812500000199
        },
        {
          "name": "E4",
          "midi": 64,
          "time": 107.97890625000046,
          "velocity": 0.49606299212598426,
          "duration": 0.4507812500000199
        },
        {
          "name": "C#5",
          "midi": 73,
          "time": 108.42109375000048,
          "velocity": 0.4409448818897638,
          "duration": 0.4507812500000199
        },
        {
          "name": "B4",
          "midi": 71,
          "time": 108.56406250000049,
          "velocity": 0.4330708661417323,
          "duration": 0.4507812500000057
        },
        {
          "name": "C#5",
          "midi": 73,
          "time": 108.72109375000049,
          "velocity": 0.41732283464566927,
          "duration": 0.4507812500000057
        },
        {
          "name": "A#3",
          "midi": 58,
          "time": 108.8632812500005,
          "velocity": 0.30708661417322836,
          "duration": 0.4507812500000057
        },
        {
          "name": "D4",
          "midi": 62,
          "time": 108.8664062500005,
          "velocity": 0.33858267716535434,
          "duration": 0.4507812500000057
        },
        {
          "name": "F#3",
          "midi": 54,
          "time": 108.8710937500005,
          "velocity": 0.31496062992125984,
          "duration": 0.4507812500000057
        },
        {
          "name": "A#4",
          "midi": 70,
          "time": 108.8718750000005,
          "velocity": 0.41732283464566927,
          "duration": 0.4507812500000057
        },
        {
          "name": "F#3",
          "midi": 54,
          "time": 109.3179687500005,
          "velocity": 0.30708661417322836,
          "duration": 0.45000000000000284
        },
        {
          "name": "A#3",
          "midi": 58,
          "time": 109.3203125000005,
          "velocity": 0.31496062992125984,
          "duration": 0.45000000000000284
        },
        {
          "name": "C#4",
          "midi": 61,
          "time": 109.32421875000051,
          "velocity": 0.4251968503937008,
          "duration": 0.44999999999998863
        },
        {
          "name": "F#4",
          "midi": 66,
          "time": 109.3265625000005,
          "velocity": 0.33858267716535434,
          "duration": 0.44999999999998863
        },
        {
          "name": "B3",
          "midi": 59,
          "time": 109.7765625000005,
          "velocity": 0.3543307086614173,
          "duration": 0.4507812500000199
        },
        {
          "name": "F#5",
          "midi": 78,
          "time": 109.7765625000005,
          "velocity": 0.4330708661417323,
          "duration": 0.4507812500000199
        },
        {
          "name": "D4",
          "midi": 62,
          "time": 109.9218750000005,
          "velocity": 0.3464566929133858,
          "duration": 0.4507812500000057
        },
        {
          "name": "F#4",
          "midi": 66,
          "time": 110.0671875000005,
          "velocity": 0.29133858267716534,
          "duration": 0.4507812500000057
        },
        {
          "name": "B4",
          "midi": 71,
          "time": 110.2203125000005,
          "velocity": 0.3937007874015748,
          "duration": 0.4507812499999915
        },
        {
          "name": "A3",
          "midi": 57,
          "time": 110.22187500000051,
          "velocity": 0.3464566929133858,
          "duration": 0.4507812499999915
        },
        {
          "name": "C#4",
          "midi": 61,
          "time": 110.36640625000051,
          "velocity": 0.4015748031496063,
          "duration": 0.4507812499999915
        },
        {
          "name": "F#4",
          "midi": 66,
          "time": 110.5257812500005,
          "velocity": 0.29133858267716534,
          "duration": 0.45000000000000284
        },
        {
          "name": "B4",
          "midi": 71,
          "time": 110.5281250000005,
          "velocity": 0.33858267716535434,
          "duration": 0.45000000000000284
        },
        {
          "name": "A#4",
          "midi": 70,
          "time": 110.5984375000005,
          "velocity": 0.4094488188976378,
          "duration": 0.44921875
        },
        {
          "name": "B4",
          "midi": 71,
          "time": 110.6734375000005,
          "velocity": 0.4645669291338583,
          "duration": 0.4492187499999858
        },
        {
          "name": "G3",
          "midi": 55,
          "time": 110.6812500000005,
          "velocity": 0.31496062992125984,
          "duration": 0.44843749999998295
        },
        {
          "name": "F#4",
          "midi": 66,
          "time": 110.8203125000005,
          "velocity": 0.31496062992125984,
          "duration": 0.44843749999998295
        },
        {
          "name": "D4",
          "midi": 62,
          "time": 110.9742187500005,
          "velocity": 0.2677165354330709,
          "duration": 0.44843749999998295
        },
        {
          "name": "C#5",
          "midi": 73,
          "time": 110.9828125000005,
          "velocity": 0.31496062992125984,
          "duration": 0.4492187499999858
        },
        {
          "name": "F#4",
          "midi": 66,
          "time": 111.1085937500005,
          "velocity": 0.29133858267716534,
          "duration": 0.44921875
        },
        {
          "name": "F#3",
          "midi": 54,
          "time": 111.12343750000049,
          "velocity": 0.3464566929133858,
          "duration": 0.44921875
        },
        {
          "name": "D4",
          "midi": 62,
          "time": 111.26484375000048,
          "velocity": 0.3543307086614173,
          "duration": 0.45000000000000284
        },
        {
          "name": "D5",
          "midi": 74,
          "time": 111.27187500000048,
          "velocity": 0.3858267716535433,
          "duration": 0.45000000000001705
        },
        {
          "name": "F#4",
          "midi": 66,
          "time": 111.42109375000048,
          "velocity": 0.3937007874015748,
          "duration": 0.45000000000001705
        },
        {
          "name": "F3",
          "midi": 53,
          "time": 111.5625000000005,
          "velocity": 0.4015748031496063,
          "duration": 0.4507812500000057
        },
        {
          "name": "C#5",
          "midi": 73,
          "time": 111.56875000000049,
          "velocity": 0.4251968503937008,
          "duration": 0.4507812500000057
        },
        {
          "name": "C#4",
          "midi": 61,
          "time": 111.57578125000049,
          "velocity": 0.5354330708661418,
          "duration": 0.4507812500000057
        },
        {
          "name": "G#3",
          "midi": 56,
          "time": 111.57578125000049,
          "velocity": 0.3858267716535433,
          "duration": 0.4507812500000057
        },
        {
          "name": "B4",
          "midi": 71,
          "time": 111.71640625000049,
          "velocity": 0.41732283464566927,
          "duration": 0.4507812500000057
        },
        {
          "name": "C#5",
          "midi": 73,
          "time": 111.8742187500005,
          "velocity": 0.3464566929133858,
          "duration": 0.4507812500000057
        },
        {
          "name": "F5",
          "midi": 77,
          "time": 112.0125000000005,
          "velocity": 0.5039370078740157,
          "duration": 0.45000000000000284
        },
        {
          "name": "C#5",
          "midi": 73,
          "time": 112.1687500000005,
          "velocity": 0.48031496062992124,
          "duration": 0.45000000000000284
        },
        {
          "name": "F5",
          "midi": 77,
          "time": 112.3304687500005,
          "velocity": 0.3228346456692913,
          "duration": 0.4507812499999915
        },
        {
          "name": "G#5",
          "midi": 80,
          "time": 112.4656250000005,
          "velocity": 0.5118110236220472,
          "duration": 0.4515624999999943
        },
        {
          "name": "C#4",
          "midi": 61,
          "time": 112.4687500000005,
          "velocity": 0.25984251968503935,
          "duration": 0.4515624999999943
        },
        {
          "name": "G#3",
          "midi": 56,
          "time": 112.4726562500005,
          "velocity": 0.3543307086614173,
          "duration": 0.4515624999999943
        },
        {
          "name": "F4",
          "midi": 65,
          "time": 112.4742187500005,
          "velocity": 0.3858267716535433,
          "duration": 0.4515624999999943
        },
        {
          "name": "C#5",
          "midi": 73,
          "time": 112.6195312500005,
          "velocity": 0.4645669291338583,
          "duration": 0.4507812499999915
        },
        {
          "name": "G#5",
          "midi": 80,
          "time": 112.7632812500005,
          "velocity": 0.4251968503937008,
          "duration": 0.44999999999998863
        },
        {
          "name": "F3",
          "midi": 53,
          "time": 112.9148437500005,
          "velocity": 0.4330708661417323,
          "duration": 0.45000000000000284
        },
        {
          "name": "G#2",
          "midi": 44,
          "time": 112.9210937500005,
          "velocity": 0.3228346456692913,
          "duration": 0.4492187500000142
        },
        {
          "name": "C#6",
          "midi": 85,
          "time": 112.9257812500005,
          "velocity": 0.4094488188976378,
          "duration": 0.4492187500000142
        },
        {
          "name": "C#3",
          "midi": 49,
          "time": 112.9257812500005,
          "velocity": 0.3858267716535433,
          "duration": 0.4492187500000142
        },
        {
          "name": "B5",
          "midi": 83,
          "time": 113.2109375000005,
          "velocity": 0.41732283464566927,
          "duration": 0.45000000000001705
        },
        {
          "name": "C#6",
          "midi": 85,
          "time": 113.2921875000005,
          "velocity": 0.49606299212598426,
          "duration": 0.45000000000001705
        },
        {
          "name": "C#3",
          "midi": 49,
          "time": 113.3632812500005,
          "velocity": 0.31496062992125984,
          "duration": 0.45000000000001705
        },
        {
          "name": "B3",
          "midi": 59,
          "time": 113.37500000000051,
          "velocity": 0.3779527559055118,
          "duration": 0.45000000000000284
        },
        {
          "name": "F#3",
          "midi": 54,
          "time": 113.3812500000005,
          "velocity": 0.23622047244094488,
          "duration": 0.45000000000000284
        },
        {
          "name": "B5",
          "midi": 83,
          "time": 113.38281250000051,
          "velocity": 0.4409448818897638,
          "duration": 0.45000000000000284
        },
        {
          "name": "C#6",
          "midi": 85,
          "time": 114.11484375000052,
          "velocity": 0.3464566929133858,
          "duration": 0.45000000000000284
        },
        {
          "name": "B5",
          "midi": 83,
          "time": 114.19453125000052,
          "velocity": 0.3700787401574803,
          "duration": 0.45000000000000284
        },
        {
          "name": "A#3",
          "midi": 58,
          "time": 114.26484375000052,
          "velocity": 0.2677165354330709,
          "duration": 0.45000000000000284
        },
        {
          "name": "C#3",
          "midi": 49,
          "time": 114.27890625000052,
          "velocity": 0.29133858267716534,
          "duration": 0.45000000000000284
        },
        {
          "name": "F#3",
          "midi": 54,
          "time": 114.27968750000052,
          "velocity": 0.3543307086614173,
          "duration": 0.45000000000000284
        },
        {
          "name": "A#5",
          "midi": 82,
          "time": 114.28046875000052,
          "velocity": 0.33858267716535434,
          "duration": 0.45000000000000284
        },
        {
          "name": "F#5",
          "midi": 78,
          "time": 114.71718750000052,
          "velocity": 0.4251968503937008,
          "duration": 0.45000000000001705
        },
        {
          "name": "A#4",
          "midi": 70,
          "time": 114.72656250000053,
          "velocity": 0.3543307086614173,
          "duration": 0.45000000000001705
        },
        {
          "name": "G#5",
          "midi": 80,
          "time": 114.86093750000053,
          "velocity": 0.3700787401574803,
          "duration": 0.4507812500000057
        },
        {
          "name": "B4",
          "midi": 71,
          "time": 114.86171875000053,
          "velocity": 0.4409448818897638,
          "duration": 0.4507812500000057
        },
        {
          "name": "A#5",
          "midi": 82,
          "time": 115.02578125000053,
          "velocity": 0.3464566929133858,
          "duration": 0.4507812500000057
        },
        {
          "name": "C#5",
          "midi": 73,
          "time": 115.02734375000054,
          "velocity": 0.33070866141732286,
          "duration": 0.4507812500000057
        },
        {
          "name": "D5",
          "midi": 74,
          "time": 115.16875000000054,
          "velocity": 0.3228346456692913,
          "duration": 0.45000000000000284
        },
        {
          "name": "B5",
          "midi": 83,
          "time": 115.17109375000054,
          "velocity": 0.3858267716535433,
          "duration": 0.45000000000000284
        },
        {
          "name": "B2",
          "midi": 47,
          "time": 115.17890625000054,
          "velocity": 0.3543307086614173,
          "duration": 0.45000000000000284
        },
        {
          "name": "F#3",
          "midi": 54,
          "time": 115.31406250000055,
          "velocity": 0.44881889763779526,
          "duration": 0.45000000000000284
        },
        {
          "name": "B3",
          "midi": 59,
          "time": 115.46875000000054,
          "velocity": 0.25984251968503935,
          "duration": 0.45000000000001705
        },
        {
          "name": "C#4",
          "midi": 61,
          "time": 115.61640625000055,
          "velocity": 0.3700787401574803,
          "duration": 0.45000000000000284
        },
        {
          "name": "D6",
          "midi": 86,
          "time": 115.76093750000054,
          "velocity": 0.3779527559055118,
          "duration": 0.45000000000001705
        },
        {
          "name": "D4",
          "midi": 62,
          "time": 115.76250000000054,
          "velocity": 0.4566929133858268,
          "duration": 0.45000000000001705
        },
        {
          "name": "F#5",
          "midi": 78,
          "time": 115.77265625000055,
          "velocity": 0.41732283464566927,
          "duration": 0.4492187500000142
        },
        {
          "name": "C#4",
          "midi": 61,
          "time": 115.92031250000056,
          "velocity": 0.3858267716535433,
          "duration": 0.44921875
        },
        {
          "name": "C#6",
          "midi": 85,
          "time": 115.92031250000056,
          "velocity": 0.49606299212598426,
          "duration": 0.44921875
        },
        {
          "name": "E5",
          "midi": 76,
          "time": 115.92656250000056,
          "velocity": 0.36220472440944884,
          "duration": 0.44921875
        },
        {
          "name": "D5",
          "midi": 74,
          "time": 116.06718750000056,
          "velocity": 0.3228346456692913,
          "duration": 0.44921875
        },
        {
          "name": "B2",
          "midi": 47,
          "time": 116.06718750000056,
          "velocity": 0.4015748031496063,
          "duration": 0.44921875
        },
        {
          "name": "B5",
          "midi": 83,
          "time": 116.07968750000056,
          "velocity": 0.41732283464566927,
          "duration": 0.4492187499999858
        },
        {
          "name": "F#3",
          "midi": 54,
          "time": 116.22500000000056,
          "velocity": 0.4015748031496063,
          "duration": 0.4492187499999858
        },
        {
          "name": "B3",
          "midi": 59,
          "time": 116.37343750000056,
          "velocity": 0.4251968503937008,
          "duration": 0.44999999999998863
        },
        {
          "name": "C#4",
          "midi": 61,
          "time": 116.52656250000055,
          "velocity": 0.4094488188976378,
          "duration": 0.45000000000000284
        },
        {
          "name": "E6",
          "midi": 88,
          "time": 116.66328125000055,
          "velocity": 0.4251968503937008,
          "duration": 0.45000000000000284
        },
        {
          "name": "G5",
          "midi": 79,
          "time": 116.66796875000055,
          "velocity": 0.30708661417322836,
          "duration": 0.45000000000000284
        },
        {
          "name": "D4",
          "midi": 62,
          "time": 116.67812500000055,
          "velocity": 0.4330708661417323,
          "duration": 0.45000000000000284
        },
        {
          "name": "E4",
          "midi": 64,
          "time": 116.81953125000055,
          "velocity": 0.33858267716535434,
          "duration": 0.45000000000000284
        },
        {
          "name": "A5",
          "midi": 81,
          "time": 116.96953125000056,
          "velocity": 0.5039370078740157,
          "duration": 0.45000000000000284
        },
        {
          "name": "D#3",
          "midi": 51,
          "time": 116.96953125000056,
          "velocity": 0.36220472440944884,
          "duration": 0.45000000000000284
        },
        {
          "name": "F#6",
          "midi": 90,
          "time": 116.97578125000055,
          "velocity": 0.4330708661417323,
          "duration": 0.45000000000000284
        },
        {
          "name": "A3",
          "midi": 57,
          "time": 117.11250000000055,
          "velocity": 0.3464566929133858,
          "duration": 0.44921875
        },
        {
          "name": "D#4",
          "midi": 63,
          "time": 117.26875000000055,
          "velocity": 0.2677165354330709,
          "duration": 0.44921875
        },
        {
          "name": "A6",
          "midi": 93,
          "time": 117.42031250000056,
          "velocity": 0.5669291338582677,
          "duration": 0.44921875
        },
        {
          "name": "F#4",
          "midi": 66,
          "time": 117.42031250000056,
          "velocity": 0.2992125984251969,
          "duration": 0.44921875
        },
        {
          "name": "C#6",
          "midi": 85,
          "time": 117.42343750000056,
          "velocity": 0.4094488188976378,
          "duration": 0.44921875
        },
        {
          "name": "D#5",
          "midi": 75,
          "time": 117.56640625000055,
          "velocity": 0.2677165354330709,
          "duration": 0.4492187500000142
        },
        {
          "name": "F#4",
          "midi": 66,
          "time": 117.71796875000055,
          "velocity": 0.3937007874015748,
          "duration": 0.4492187500000142
        },
        {
          "name": "D#4",
          "midi": 63,
          "time": 117.86718750000055,
          "velocity": 0.3937007874015748,
          "duration": 0.4492187500000142
        },
        {
          "name": "F#6",
          "midi": 90,
          "time": 117.86796875000056,
          "velocity": 0.4645669291338583,
          "duration": 0.4492187500000142
        },
        {
          "name": "A5",
          "midi": 81,
          "time": 117.87343750000056,
          "velocity": 0.33858267716535434,
          "duration": 0.4492187500000142
        },
        {
          "name": "G4",
          "midi": 67,
          "time": 118.32343750000058,
          "velocity": 0.41732283464566927,
          "duration": 0.4507812500000199
        },
        {
          "name": "E6",
          "midi": 88,
          "time": 118.33125000000058,
          "velocity": 0.41732283464566927,
          "duration": 0.4507812500000199
        },
        {
          "name": "F#4",
          "midi": 66,
          "time": 118.46562500000059,
          "velocity": 0.3779527559055118,
          "duration": 0.4507812500000199
        },
        {
          "name": "F#6",
          "midi": 90,
          "time": 118.47656250000058,
          "velocity": 0.47244094488188976,
          "duration": 0.4507812500000199
        },
        {
          "name": "G6",
          "midi": 91,
          "time": 118.60937500000058,
          "velocity": 0.3858267716535433,
          "duration": 0.4507812500000199
        },
        {
          "name": "D#4",
          "midi": 63,
          "time": 118.61640625000058,
          "velocity": 0.33858267716535434,
          "duration": 0.4507812500000341
        },
        {
          "name": "G6",
          "midi": 91,
          "time": 118.76171875000058,
          "velocity": 0.4015748031496063,
          "duration": 0.4507812500000341
        },
        {
          "name": "E6",
          "midi": 88,
          "time": 118.76328125000059,
          "velocity": 0.3700787401574803,
          "duration": 0.4507812500000341
        },
        {
          "name": "E4",
          "midi": 64,
          "time": 118.7648437500006,
          "velocity": 0.3464566929133858,
          "duration": 0.4507812500000341
        },
        {
          "name": "B4",
          "midi": 71,
          "time": 118.91718750000061,
          "velocity": 0.3779527559055118,
          "duration": 0.4492187500000142
        },
        {
          "name": "E5",
          "midi": 76,
          "time": 119.06562500000061,
          "velocity": 0.4015748031496063,
          "duration": 0.4492187500000142
        },
        {
          "name": "C#6",
          "midi": 85,
          "time": 119.21875000000063,
          "velocity": 0.3228346456692913,
          "duration": 0.44921875
        },
        {
          "name": "D4",
          "midi": 62,
          "time": 119.22343750000063,
          "velocity": 0.30708661417322836,
          "duration": 0.44921875
        },
        {
          "name": "B5",
          "midi": 83,
          "time": 119.36406250000063,
          "velocity": 0.3228346456692913,
          "duration": 0.44921875
        },
        {
          "name": "B4",
          "midi": 71,
          "time": 119.38203125000062,
          "velocity": 0.29133858267716534,
          "duration": 0.4492187500000142
        },
        {
          "name": "C#6",
          "midi": 85,
          "time": 119.51484375000062,
          "velocity": 0.3937007874015748,
          "duration": 0.4492187500000142
        },
        {
          "name": "C#5",
          "midi": 73,
          "time": 119.51796875000062,
          "velocity": 0.3464566929133858,
          "duration": 0.4492187500000142
        },
        {
          "name": "F#5",
          "midi": 78,
          "time": 119.66406250000063,
          "velocity": 0.3228346456692913,
          "duration": 0.44921875
        },
        {
          "name": "C#4",
          "midi": 61,
          "time": 119.66796875000063,
          "velocity": 0.2677165354330709,
          "duration": 0.44921875
        },
        {
          "name": "A#5",
          "midi": 82,
          "time": 119.67109375000062,
          "velocity": 0.3779527559055118,
          "duration": 0.45000000000000284
        },
        {
          "name": "A#4",
          "midi": 70,
          "time": 119.81875000000063,
          "velocity": 0.30708661417322836,
          "duration": 0.4507812499999915
        },
        {
          "name": "C#5",
          "midi": 73,
          "time": 119.96953125000063,
          "velocity": 0.3543307086614173,
          "duration": 0.4507812500000057
        },
        {
          "name": "A#3",
          "midi": 58,
          "time": 120.10937500000063,
          "velocity": 0.4251968503937008,
          "duration": 0.4507812500000199
        },
        {
          "name": "F#3",
          "midi": 54,
          "time": 120.26562500000063,
          "velocity": 0.28346456692913385,
          "duration": 0.45000000000003126
        },
        {
          "name": "G6",
          "midi": 91,
          "time": 120.26796875000062,
          "velocity": 0.4566929133858268,
          "duration": 0.45000000000003126
        },
        {
          "name": "C#6",
          "midi": 85,
          "time": 120.27500000000063,
          "velocity": 0.4094488188976378,
          "duration": 0.4492187500000142
        },
        {
          "name": "C#3",
          "midi": 49,
          "time": 120.42187500000064,
          "velocity": 0.2440944881889764,
          "duration": 0.44921875
        },
        {
          "name": "B5",
          "midi": 83,
          "time": 120.56562500000065,
          "velocity": 0.30708661417322836,
          "duration": 0.44843749999998295
        },
        {
          "name": "F#6",
          "midi": 90,
          "time": 120.56640625000065,
          "velocity": 0.47244094488188976,
          "duration": 0.44843749999998295
        },
        {
          "name": "B2",
          "midi": 47,
          "time": 120.56640625000065,
          "velocity": 0.4015748031496063,
          "duration": 0.44843749999998295
        },
        {
          "name": "F#3",
          "midi": 54,
          "time": 120.71406250000065,
          "velocity": 0.41732283464566927,
          "duration": 0.44843749999998295
        },
        {
          "name": "B3",
          "midi": 59,
          "time": 120.87109375000064,
          "velocity": 0.4015748031496063,
          "duration": 0.4492187499999858
        },
        {
          "name": "C#4",
          "midi": 61,
          "time": 121.01406250000063,
          "velocity": 0.4015748031496063,
          "duration": 0.4492187499999858
        },
        {
          "name": "C#6",
          "midi": 85,
          "time": 121.01406250000063,
          "velocity": 0.3543307086614173,
          "duration": 0.44999999999998863
        },
        {
          "name": "F#5",
          "midi": 78,
          "time": 121.03125000000064,
          "velocity": 0.31496062992125984,
          "duration": 0.45078124999997726
        },
        {
          "name": "D4",
          "midi": 62,
          "time": 121.16953125000063,
          "velocity": 0.31496062992125984,
          "duration": 0.4507812499999915
        },
        {
          "name": "E4",
          "midi": 64,
          "time": 121.31640625000063,
          "velocity": 0.3228346456692913,
          "duration": 0.4507812499999915
        },
        {
          "name": "B5",
          "midi": 83,
          "time": 121.46718750000062,
          "velocity": 0.3543307086614173,
          "duration": 0.4507812499999915
        },
        {
          "name": "F#5",
          "midi": 78,
          "time": 121.47031250000062,
          "velocity": 0.48031496062992124,
          "duration": 0.44999999999998863
        },
        {
          "name": "F#4",
          "midi": 66,
          "time": 121.47968750000062,
          "velocity": 0.2992125984251969,
          "duration": 0.4492187499999858
        },
        {
          "name": "B4",
          "midi": 71,
          "time": 121.91796875000061,
          "velocity": 0.5354330708661418,
          "duration": 0.44843750000001137
        },
        {
          "name": "F#4",
          "midi": 66,
          "time": 121.9203125000006,
          "velocity": 0.29133858267716534,
          "duration": 0.44843750000001137
        },
        {
          "name": "C#5",
          "midi": 73,
          "time": 122.07109375000061,
          "velocity": 0.4015748031496063,
          "duration": 0.44921875
        },
        {
          "name": "E4",
          "midi": 64,
          "time": 122.07500000000061,
          "velocity": 0.2755905511811024,
          "duration": 0.44921875
        },
        {
          "name": "D5",
          "midi": 74,
          "time": 122.20468750000062,
          "velocity": 0.3543307086614173,
          "duration": 0.44921875
        },
        {
          "name": "D4",
          "midi": 62,
          "time": 122.21953125000061,
          "velocity": 0.4015748031496063,
          "duration": 0.44921875
        },
        {
          "name": "B3",
          "midi": 59,
          "time": 122.36484375000062,
          "velocity": 0.3464566929133858,
          "duration": 0.44921875
        },
        {
          "name": "E5",
          "midi": 76,
          "time": 122.36640625000062,
          "velocity": 0.5826771653543307,
          "duration": 0.44921875
        },
        {
          "name": "E4",
          "midi": 64,
          "time": 122.36640625000062,
          "velocity": 0.3228346456692913,
          "duration": 0.44921875
        },
        {
          "name": "G3",
          "midi": 55,
          "time": 122.37265625000062,
          "velocity": 0.4094488188976378,
          "duration": 0.44921875
        },
        {
          "name": "C#5",
          "midi": 73,
          "time": 122.81796875000062,
          "velocity": 0.36220472440944884,
          "duration": 0.4507812500000057
        },
        {
          "name": "B4",
          "midi": 71,
          "time": 122.97187500000062,
          "velocity": 0.36220472440944884,
          "duration": 0.4507812500000057
        },
        {
          "name": "C#5",
          "midi": 73,
          "time": 123.11484375000062,
          "velocity": 0.3937007874015748,
          "duration": 0.4507812500000057
        },
        {
          "name": "A#3",
          "midi": 58,
          "time": 123.25625000000062,
          "velocity": 0.3937007874015748,
          "duration": 0.4507812500000057
        },
        {
          "name": "D4",
          "midi": 62,
          "time": 123.26640625000061,
          "velocity": 0.31496062992125984,
          "duration": 0.4507812500000199
        },
        {
          "name": "F#3",
          "midi": 54,
          "time": 123.26718750000062,
          "velocity": 0.28346456692913385,
          "duration": 0.4507812500000199
        },
        {
          "name": "D5",
          "midi": 74,
          "time": 123.27031250000063,
          "velocity": 0.3464566929133858,
          "duration": 0.4507812500000199
        },
        {
          "name": "C#4",
          "midi": 61,
          "time": 123.71562500000063,
          "velocity": 0.3700787401574803,
          "duration": 0.45000000000001705
        },
        {
          "name": "F#3",
          "midi": 54,
          "time": 123.71953125000064,
          "velocity": 0.31496062992125984,
          "duration": 0.44921875
        },
        {
          "name": "F#4",
          "midi": 66,
          "time": 123.72109375000065,
          "velocity": 0.49606299212598426,
          "duration": 0.44921875
        },
        {
          "name": "A#3",
          "midi": 58,
          "time": 123.72421875000065,
          "velocity": 0.30708661417322836,
          "duration": 0.44921875
        },
        {
          "name": "B3",
          "midi": 59,
          "time": 124.15703125000064,
          "velocity": 0.4251968503937008,
          "duration": 0.44921875
        },
        {
          "name": "F#5",
          "midi": 78,
          "time": 124.16093750000064,
          "velocity": 0.41732283464566927,
          "duration": 0.44921875
        },
        {
          "name": "D4",
          "midi": 62,
          "time": 124.32500000000064,
          "velocity": 0.30708661417322836,
          "duration": 0.4492187500000142
        },
        {
          "name": "F#4",
          "midi": 66,
          "time": 124.47187500000064,
          "velocity": 0.3779527559055118,
          "duration": 0.4492187500000284
        },
        {
          "name": "A3",
          "midi": 57,
          "time": 124.61875000000065,
          "velocity": 0.2440944881889764,
          "duration": 0.45000000000001705
        },
        {
          "name": "B4",
          "midi": 71,
          "time": 124.62421875000065,
          "velocity": 0.2992125984251969,
          "duration": 0.45000000000001705
        },
        {
          "name": "C#4",
          "midi": 61,
          "time": 124.75312500000065,
          "velocity": 0.2992125984251969,
          "duration": 0.45000000000001705
        },
        {
          "name": "C#5",
          "midi": 73,
          "time": 124.77500000000066,
          "velocity": 0.3543307086614173,
          "duration": 0.4507812500000057
        },
        {
          "name": "F#4",
          "midi": 66,
          "time": 124.91484375000066,
          "velocity": 0.4094488188976378,
          "duration": 0.4507812500000199
        },
        {
          "name": "B4",
          "midi": 71,
          "time": 124.91640625000066,
          "velocity": 0.4645669291338583,
          "duration": 0.4507812500000199
        },
        {
          "name": "A#4",
          "midi": 70,
          "time": 124.99921875000067,
          "velocity": 0.28346456692913385,
          "duration": 0.45000000000001705
        },
        {
          "name": "G3",
          "midi": 55,
          "time": 125.05859375000067,
          "velocity": 0.4330708661417323,
          "duration": 0.45000000000001705
        },
        {
          "name": "B4",
          "midi": 71,
          "time": 125.07890625000067,
          "velocity": 0.4094488188976378,
          "duration": 0.45000000000001705
        },
        {
          "name": "F#4",
          "midi": 66,
          "time": 125.22265625000067,
          "velocity": 0.3700787401574803,
          "duration": 0.45000000000003126
        },
        {
          "name": "C#5",
          "midi": 73,
          "time": 125.36406250000067,
          "velocity": 0.4330708661417323,
          "duration": 0.45000000000003126
        },
        {
          "name": "D4",
          "midi": 62,
          "time": 125.37578125000068,
          "velocity": 0.41732283464566927,
          "duration": 0.4507812500000199
        },
        {
          "name": "F#3",
          "midi": 54,
          "time": 125.50703125000068,
          "velocity": 0.4094488188976378,
          "duration": 0.4507812500000199
        },
        {
          "name": "D4",
          "midi": 62,
          "time": 125.65468750000069,
          "velocity": 0.29133858267716534,
          "duration": 0.4507812500000057
        },
        {
          "name": "D5",
          "midi": 74,
          "time": 125.6640625000007,
          "velocity": 0.4881889763779528,
          "duration": 0.4507812500000057
        },
        {
          "name": "F#4",
          "midi": 66,
          "time": 125.8257812500007,
          "velocity": 0.36220472440944884,
          "duration": 0.44999999999998863
        },
        {
          "name": "B4",
          "midi": 71,
          "time": 125.9601562500007,
          "velocity": 0.3700787401574803,
          "duration": 0.45000000000000284
        },
        {
          "name": "E3",
          "midi": 52,
          "time": 125.9609375000007,
          "velocity": 0.5039370078740157,
          "duration": 0.45000000000000284
        },
        {
          "name": "E5",
          "midi": 76,
          "time": 125.9703125000007,
          "velocity": 0.4330708661417323,
          "duration": 0.4507812500000057
        },
        {
          "name": "G3",
          "midi": 55,
          "time": 126.1250000000007,
          "velocity": 0.3228346456692913,
          "duration": 0.4515625000000085
        },
        {
          "name": "C#4",
          "midi": 61,
          "time": 126.2734375000007,
          "velocity": 0.3228346456692913,
          "duration": 0.4515625000000085
        },
        {
          "name": "B4",
          "midi": 71,
          "time": 126.4117187500007,
          "velocity": 0.3937007874015748,
          "duration": 0.4507812500000057
        },
        {
          "name": "G4",
          "midi": 67,
          "time": 126.4195312500007,
          "velocity": 0.3700787401574803,
          "duration": 0.4507812500000057
        },
        {
          "name": "E3",
          "midi": 52,
          "time": 126.42187500000071,
          "velocity": 0.36220472440944884,
          "duration": 0.4507812499999915
        },
        {
          "name": "G3",
          "midi": 55,
          "time": 126.5570312500007,
          "velocity": 0.3700787401574803,
          "duration": 0.44999999999998863
        },
        {
          "name": "B3",
          "midi": 59,
          "time": 126.7085937500007,
          "velocity": 0.28346456692913385,
          "duration": 0.44999999999998863
        },
        {
          "name": "F#3",
          "midi": 54,
          "time": 126.8617187500007,
          "velocity": 0.33070866141732286,
          "duration": 0.44999999999998863
        },
        {
          "name": "A#4",
          "midi": 70,
          "time": 126.8617187500007,
          "velocity": 0.47244094488188976,
          "duration": 0.44999999999998863
        },
        {
          "name": "F#4",
          "midi": 66,
          "time": 126.8757812500007,
          "velocity": 0.33070866141732286,
          "duration": 0.44921875
        },
        {
          "name": "A#3",
          "midi": 58,
          "time": 127.0148437500007,
          "velocity": 0.30708661417322836,
          "duration": 0.4492187500000142
        },
        {
          "name": "D4",
          "midi": 62,
          "time": 127.1718750000007,
          "velocity": 0.2677165354330709,
          "duration": 0.4492187500000142
        },
        {
          "name": "F#3",
          "midi": 54,
          "time": 127.3164062500007,
          "velocity": 0.33070866141732286,
          "duration": 0.4492187500000284
        },
        {
          "name": "F#4",
          "midi": 66,
          "time": 127.4609375000007,
          "velocity": 0.3543307086614173,
          "duration": 0.4492187500000284
        },
        {
          "name": "A#4",
          "midi": 70,
          "time": 127.4617187500007,
          "velocity": 0.5039370078740157,
          "duration": 0.4492187500000284
        },
        {
          "name": "D4",
          "midi": 62,
          "time": 127.4625000000007,
          "velocity": 0.30708661417322836,
          "duration": 0.4492187500000284
        },
        {
          "name": "C#4",
          "midi": 61,
          "time": 127.60859375000071,
          "velocity": 0.2440944881889764,
          "duration": 0.4492187500000142
        },
        {
          "name": "B3",
          "midi": 59,
          "time": 127.75859375000071,
          "velocity": 0.3858267716535433,
          "duration": 0.4492187500000142
        },
        {
          "name": "B2",
          "midi": 47,
          "time": 127.76015625000072,
          "velocity": 0.2755905511811024,
          "duration": 0.4492187500000142
        },
        {
          "name": "B4",
          "midi": 71,
          "time": 127.76171875000072,
          "velocity": 0.5196850393700787,
          "duration": 0.4492187500000142
        },
        {
          "name": "F#4",
          "midi": 66,
          "time": 127.76796875000072,
          "velocity": 0.30708661417322836,
          "duration": 0.44921875000004263
        },
        {
          "name": "E3",
          "midi": 52,
          "time": 127.91171875000073,
          "velocity": 0.41732283464566927,
          "duration": 0.44921875000004263
        },
        {
          "name": "F#3",
          "midi": 54,
          "time": 128.06484375000073,
          "velocity": 0.3228346456692913,
          "duration": 0.4500000000000455
        },
        {
          "name": "B3",
          "midi": 59,
          "time": 128.21406250000075,
          "velocity": 0.3543307086614173,
          "duration": 0.44921875
        },
        {
          "name": "E4",
          "midi": 64,
          "time": 128.37421875000078,
          "velocity": 0.3543307086614173,
          "duration": 0.4492187499999716
        },
        {
          "name": "F#4",
          "midi": 66,
          "time": 128.50781250000077,
          "velocity": 0.30708661417322836,
          "duration": 0.44921875
        },
        {
          "name": "B4",
          "midi": 71,
          "time": 128.65625000000077,
          "velocity": 0.5590551181102362,
          "duration": 0.44921875
        },
        {
          "name": "B2",
          "midi": 47,
          "time": 128.65781250000077,
          "velocity": 0.33858267716535434,
          "duration": 0.44921875
        },
        {
          "name": "B1",
          "midi": 35,
          "time": 128.65781250000077,
          "velocity": 0.4330708661417323,
          "duration": 0.44921875
        },
        {
          "name": "D#4",
          "midi": 63,
          "time": 128.66250000000076,
          "velocity": 0.28346456692913385,
          "duration": 0.44921875
        },
        {
          "name": "F#4",
          "midi": 66,
          "time": 128.95390625000076,
          "velocity": 0.3858267716535433,
          "duration": 0.44921875
        },
        {
          "name": "B4",
          "midi": 71,
          "time": 129.11718750000077,
          "velocity": 0.4409448818897638,
          "duration": 0.45000000000001705
        },
        {
          "name": "C#5",
          "midi": 73,
          "time": 129.25625000000076,
          "velocity": 0.33070866141732286,
          "duration": 0.44921875
        },
        {
          "name": "D5",
          "midi": 74,
          "time": 129.41640625000076,
          "velocity": 0.2992125984251969,
          "duration": 0.44921875
        },
        {
          "name": "G3",
          "midi": 55,
          "time": 129.55859375000077,
          "velocity": 0.3937007874015748,
          "duration": 0.4492187499999716
        },
        {
          "name": "E5",
          "midi": 76,
          "time": 129.56171875000078,
          "velocity": 0.3779527559055118,
          "duration": 0.4492187499999716
        },
        {
          "name": "E4",
          "midi": 64,
          "time": 129.56953125000078,
          "velocity": 0.3700787401574803,
          "duration": 0.4492187499999716
        },
        {
          "name": "B3",
          "midi": 59,
          "time": 129.57578125000077,
          "velocity": 0.3543307086614173,
          "duration": 0.4492187499999716
        },
        {
          "name": "C#5",
          "midi": 73,
          "time": 130.00312500000075,
          "velocity": 0.3937007874015748,
          "duration": 0.45000000000001705
        },
        {
          "name": "B4",
          "midi": 71,
          "time": 130.16718750000075,
          "velocity": 0.2677165354330709,
          "duration": 0.4507812500000341
        },
        {
          "name": "C#5",
          "midi": 73,
          "time": 130.32500000000076,
          "velocity": 0.31496062992125984,
          "duration": 0.4507812500000341
        },
        {
          "name": "D5",
          "midi": 74,
          "time": 130.45468750000077,
          "velocity": 0.5118110236220472,
          "duration": 0.4507812500000341
        },
        {
          "name": "D4",
          "midi": 62,
          "time": 130.45625000000078,
          "velocity": 0.4330708661417323,
          "duration": 0.45156250000002274
        },
        {
          "name": "F#3",
          "midi": 54,
          "time": 130.46406250000078,
          "velocity": 0.3228346456692913,
          "duration": 0.45156250000002274
        },
        {
          "name": "A#3",
          "midi": 58,
          "time": 130.46796875000078,
          "velocity": 0.3858267716535433,
          "duration": 0.45156250000002274
        },
        {
          "name": "F#4",
          "midi": 66,
          "time": 130.9023437500008,
          "velocity": 0.33070866141732286,
          "duration": 0.4507812500000057
        },
        {
          "name": "C#4",
          "midi": 61,
          "time": 130.9070312500008,
          "velocity": 0.4015748031496063,
          "duration": 0.45078124999997726
        },
        {
          "name": "F#3",
          "midi": 54,
          "time": 130.9132812500008,
          "velocity": 0.30708661417322836,
          "duration": 0.4515624999999943
        },
        {
          "name": "A#3",
          "midi": 58,
          "time": 130.9148437500008,
          "velocity": 0.2283464566929134,
          "duration": 0.4515624999999943
        },
        {
          "name": "D4",
          "midi": 62,
          "time": 131.3554687500008,
          "velocity": 0.36220472440944884,
          "duration": 0.4507812500000057
        },
        {
          "name": "B3",
          "midi": 59,
          "time": 131.3609375000008,
          "velocity": 0.3779527559055118,
          "duration": 0.45078124999997726
        },
        {
          "name": "F#4",
          "midi": 66,
          "time": 131.3632812500008,
          "velocity": 0.33858267716535434,
          "duration": 0.4499999999999602
        },
        {
          "name": "F#5",
          "midi": 78,
          "time": 131.3679687500008,
          "velocity": 0.44881889763779526,
          "duration": 0.44921874999994316
        },
        {
          "name": "A3",
          "midi": 57,
          "time": 131.8109375000008,
          "velocity": 0.3464566929133858,
          "duration": 0.4484374999999545
        },
        {
          "name": "F#4",
          "midi": 66,
          "time": 131.81250000000077,
          "velocity": 0.33070866141732286,
          "duration": 0.4492187499999716
        },
        {
          "name": "B4",
          "midi": 71,
          "time": 131.81484375000076,
          "velocity": 0.41732283464566927,
          "duration": 0.44999999999998863
        },
        {
          "name": "C#4",
          "midi": 61,
          "time": 131.82656250000076,
          "velocity": 0.33858267716535434,
          "duration": 0.44999999999998863
        },
        {
          "name": "C#5",
          "midi": 73,
          "time": 131.95625000000075,
          "velocity": 0.4015748031496063,
          "duration": 0.44999999999998863
        },
        {
          "name": "B4",
          "midi": 71,
          "time": 132.11875000000074,
          "velocity": 0.3779527559055118,
          "duration": 0.44999999999998863
        },
        {
          "name": "A#4",
          "midi": 70,
          "time": 132.19218750000076,
          "velocity": 0.31496062992125984,
          "duration": 0.44999999999998863
        },
        {
          "name": "B3",
          "midi": 59,
          "time": 132.25312500000075,
          "velocity": 0.25196850393700787,
          "duration": 0.44999999999998863
        },
        {
          "name": "D4",
          "midi": 62,
          "time": 132.25937500000074,
          "velocity": 0.41732283464566927,
          "duration": 0.44999999999998863
        },
        {
          "name": "G3",
          "midi": 55,
          "time": 132.26640625000076,
          "velocity": 0.3464566929133858,
          "duration": 0.4499999999999602
        },
        {
          "name": "B4",
          "midi": 71,
          "time": 132.26875000000075,
          "velocity": 0.3779527559055118,
          "duration": 0.4499999999999602
        },
        {
          "name": "C#5",
          "midi": 73,
          "time": 132.56875000000073,
          "velocity": 0.4566929133858268,
          "duration": 0.4499999999999602
        },
        {
          "name": "D4",
          "midi": 62,
          "time": 132.71406250000072,
          "velocity": 0.3858267716535433,
          "duration": 0.4499999999999602
        },
        {
          "name": "F#3",
          "midi": 54,
          "time": 132.7210937500007,
          "velocity": 0.2755905511811024,
          "duration": 0.4492187499999716
        },
        {
          "name": "A3",
          "midi": 57,
          "time": 132.7210937500007,
          "velocity": 0.33070866141732286,
          "duration": 0.4492187499999716
        },
        {
          "name": "D5",
          "midi": 74,
          "time": 132.8718750000007,
          "velocity": 0.5118110236220472,
          "duration": 0.4492187499999716
        },
        {
          "name": "E3",
          "midi": 52,
          "time": 133.1671875000007,
          "velocity": 0.3858267716535433,
          "duration": 0.4492187499999716
        },
        {
          "name": "B4",
          "midi": 71,
          "time": 133.1687500000007,
          "velocity": 0.33858267716535434,
          "duration": 0.4492187499999716
        },
        {
          "name": "E5",
          "midi": 76,
          "time": 133.1695312500007,
          "velocity": 0.44881889763779526,
          "duration": 0.4492187499999716
        },
        {
          "name": "G3",
          "midi": 55,
          "time": 133.32500000000067,
          "velocity": 0.3543307086614173,
          "duration": 0.44921875
        },
        {
          "name": "C#4",
          "midi": 61,
          "time": 133.46015625000067,
          "velocity": 0.3228346456692913,
          "duration": 0.44843750000001137
        },
        {
          "name": "G4",
          "midi": 67,
          "time": 133.61093750000066,
          "velocity": 0.47244094488188976,
          "duration": 0.44843750000001137
        },
        {
          "name": "B4",
          "midi": 71,
          "time": 133.61328125000065,
          "velocity": 0.3700787401574803,
          "duration": 0.44843750000001137
        },
        {
          "name": "E3",
          "midi": 52,
          "time": 133.61328125000065,
          "velocity": 0.3858267716535433,
          "duration": 0.44843750000001137
        },
        {
          "name": "G3",
          "midi": 55,
          "time": 133.76875000000067,
          "velocity": 0.3464566929133858,
          "duration": 0.44921875
        },
        {
          "name": "B3",
          "midi": 59,
          "time": 133.90468750000068,
          "velocity": 0.41732283464566927,
          "duration": 0.44921875
        },
        {
          "name": "F#3",
          "midi": 54,
          "time": 134.05468750000068,
          "velocity": 0.47244094488188976,
          "duration": 0.44921875
        },
        {
          "name": "F#4",
          "midi": 66,
          "time": 134.06171875000067,
          "velocity": 0.31496062992125984,
          "duration": 0.45000000000001705
        },
        {
          "name": "A#4",
          "midi": 70,
          "time": 134.06328125000067,
          "velocity": 0.3779527559055118,
          "duration": 0.45000000000001705
        },
        {
          "name": "A#3",
          "midi": 58,
          "time": 134.20859375000066,
          "velocity": 0.3700787401574803,
          "duration": 0.45000000000001705
        },
        {
          "name": "D4",
          "midi": 62,
          "time": 134.36562500000068,
          "velocity": 0.3700787401574803,
          "duration": 0.4507812500000057
        },
        {
          "name": "F#3",
          "midi": 54,
          "time": 134.5054687500007,
          "velocity": 0.3779527559055118,
          "duration": 0.45078124999997726
        },
        {
          "name": "A#4",
          "midi": 70,
          "time": 134.6617187500007,
          "velocity": 0.2992125984251969,
          "duration": 0.4507812500000057
        },
        {
          "name": "D4",
          "midi": 62,
          "time": 134.67031250000068,
          "velocity": 0.2755905511811024,
          "duration": 0.4507812500000057
        },
        {
          "name": "F#4",
          "midi": 66,
          "time": 134.67421875000068,
          "velocity": 0.33070866141732286,
          "duration": 0.4507812500000057
        },
        {
          "name": "C#4",
          "midi": 61,
          "time": 134.81875000000068,
          "velocity": 0.3464566929133858,
          "duration": 0.4507812500000057
        },
        {
          "name": "B2",
          "midi": 47,
          "time": 134.95625000000067,
          "velocity": 0.4330708661417323,
          "duration": 0.4507812500000057
        },
        {
          "name": "B4",
          "midi": 71,
          "time": 134.95937500000068,
          "velocity": 0.3700787401574803,
          "duration": 0.4507812500000057
        },
        {
          "name": "F#4",
          "midi": 66,
          "time": 134.96718750000068,
          "velocity": 0.3464566929133858,
          "duration": 0.4507812500000057
        },
        {
          "name": "B3",
          "midi": 59,
          "time": 134.96875000000068,
          "velocity": 0.3228346456692913,
          "duration": 0.4507812500000057
        },
        {
          "name": "B3",
          "midi": 59,
          "time": 135.8625000000007,
          "velocity": 0.3228346456692913,
          "duration": 0.45000000000001705
        },
        {
          "name": "F#3",
          "midi": 54,
          "time": 135.8640625000007,
          "velocity": 0.2755905511811024,
          "duration": 0.45000000000001705
        },
        {
          "name": "B2",
          "midi": 47,
          "time": 135.8664062500007,
          "velocity": 0.3937007874015748,
          "duration": 0.45000000000001705
        },
        {
          "name": "B1",
          "midi": 35,
          "time": 135.8718750000007,
          "velocity": 0.4330708661417323,
          "duration": 0.45000000000001705
        }
      ],
      "controlChanges": {},
      "id": 0,
      "name": "Grand Piano",
      "instrumentNumber": 0,
      "instrument": "acoustic grand piano",
      "instrumentFamily": "piano",
      "channelNumber": 0,
      "isPercussion": false
    }
  ]
}